SplineFontDB: 3.0
FontName: Lemon-Regular
FullName: Lemon Regular
FamilyName: Lemon
Weight: Book
Copyright: Copyright (c) 2011, Eduardo Tunni (http://www.tipo.net.ar), with Reserved Font Name "Lemon"
Version: 1.002
ItalicAngle: 0
UnderlinePosition: -50
UnderlineWidth: 50
Ascent: 800
Descent: 200
sfntRevision: 0x00010083
LayerCount: 2
Layer: 0 1 "Back"  1
Layer: 1 1 "Fore"  0
XUID: [1021 288 713564382 15620339]
FSType: 0
OS2Version: 2
OS2_WeightWidthSlopeOnly: 0
OS2_UseTypoMetrics: 1
CreationTime: 1322421239
ModificationTime: 1322450171
PfmFamily: 17
TTFWeight: 400
TTFWidth: 5
LineGap: 0
VLineGap: 0
Panose: 2 0 0 0 0 0 0 0 0 0
OS2TypoAscent: 219
OS2TypoAOffset: 1
OS2TypoDescent: -87
OS2TypoDOffset: 1
OS2TypoLinegap: 0
OS2WinAscent: 0
OS2WinAOffset: 1
OS2WinDescent: 0
OS2WinDOffset: 1
HheadAscent: 0
HheadAOffset: 1
HheadDescent: 0
HheadDOffset: 1
OS2SubXSize: 700
OS2SubYSize: 650
OS2SubXOff: 0
OS2SubYOff: 140
OS2SupXSize: 700
OS2SupYSize: 650
OS2SupXOff: 0
OS2SupYOff: 477
OS2StrikeYSize: 50
OS2StrikeYPos: 250
OS2Vendor: 'TIPO'
OS2CodePages: 20000001.00000000
OS2UnicodeRanges: 800000af.4000204b.00000000.00000000
Lookup: 258 0 0 "'kern' Horizontal Kerning in Latin lookup 0"  {"'kern' Horizontal Kerning in Latin lookup 0 subtable"  } ['kern' ('DFLT' <'dflt' > 'latn' <'dflt' > ) ]
MarkAttachClasses: 1
DEI: 91125
TtTable: prep
PUSHW_1
 511
SCANCTRL
PUSHB_1
 4
SCANTYPE
EndTTInstrs
ShortTable: maxp 16
  1
  0
  250
  89
  6
  0
  0
  2
  0
  1
  1
  0
  64
  0
  0
  0
EndShort
LangName: 1033 "" "" "" "EduardoRodriguezTunni: Lemon Regular: 2011" "" "Version 1.002" "" "Lemon is a trademark of Eduardo Rodriguez Tunni." "Eduardo Rodriguez Tunni" "Eduardo Rodriguez Tunni" "" "http://www.tipo.net.ar" "http://www.tipo.net.ar" "This Font Software is licensed under the SIL Open Font License, Version 1.1. This license is available with a FAQ at: http://scripts.sil.org/OFL" "http://scripts.sil.org/OFL" 
GaspTable: 1 65535 15
Encoding: UnicodeBmp
UnicodeInterp: none

StartChar: exclam
Encoding: 33 33 4
Width: 458
GlyphClass: 2
Flags: W
LayerCount: 2
Fore
SplineSet
199 279 m 0,0,1
 129 279 129 279 129 364 c 0,2,3
 129 385 129 385 138.5 490.5 c 128,-1,4
 148 596 148 596 148 640 c 128,-1,5
 148 684 148 684 123 708 c 1,6,7
 189 775 189 775 297 775 c 128,-1,8
 405 775 405 775 405 672 c 0,9,10
 405 625 405 625 391 575 c 128,-1,11
 377 525 377 525 363.5 485 c 128,-1,12
 350 445 350 445 341.5 422.5 c 128,-1,13
 333 400 333 400 318.5 362.5 c 128,-1,14
 304 325 304 325 301 317 c 1,15,16
 281 299 281 299 251.5 289 c 128,-1,17
 222 279 222 279 199 279 c 0,0,1
97 169 m 128,-1,19
 60 131 60 131 60 83.5 c 128,-1,20
 60 36 60 36 90.5 5.5 c 128,-1,21
 121 -25 121 -25 170 -25 c 128,-1,22
 219 -25 219 -25 256 13 c 128,-1,23
 293 51 293 51 293 98.5 c 128,-1,24
 293 146 293 146 262.5 176.5 c 128,-1,25
 232 207 232 207 183 207 c 128,-1,18
 134 207 134 207 97 169 c 128,-1,19
EndSplineSet
EndChar

StartChar: quotedbl
Encoding: 34 34 5
Width: 516
GlyphClass: 2
Flags: W
LayerCount: 2
Fore
SplineSet
359 446 m 0,0,1
 300 446 300 446 300 496 c 0,2,3
 300 526 300 526 326 600.5 c 128,-1,4
 352 675 352 675 352 707 c 128,-1,5
 352 739 352 739 345 759 c 1,6,7
 390 780 390 780 437 780 c 0,8,9
 496 780 496 780 496 730 c 0,10,11
 496 698 496 698 470 624 c 128,-1,12
 444 550 444 550 444 518.5 c 128,-1,13
 444 487 444 487 451 467 c 1,14,15
 406 446 406 446 359 446 c 0,0,1
129 446 m 0,16,17
 70 446 70 446 70 496 c 0,18,19
 70 526 70 526 96 600.5 c 128,-1,20
 122 675 122 675 122 707 c 128,-1,21
 122 739 122 739 115 759 c 1,22,23
 160 780 160 780 207 780 c 0,24,25
 266 780 266 780 266 730 c 0,26,27
 266 698 266 698 240 624 c 128,-1,28
 214 550 214 550 214 518.5 c 128,-1,29
 214 487 214 487 221 467 c 1,30,31
 176 446 176 446 129 446 c 0,16,17
EndSplineSet
EndChar

StartChar: numbersign
Encoding: 35 35 6
Width: 733
GlyphClass: 2
Flags: W
LayerCount: 2
Fore
SplineSet
342 600 m 1,0,-1
 500 603 l 1,1,2
 522 698 522 698 536 754 c 0,3,4
 552 818 552 818 615.5 818 c 128,-1,5
 679 818 679 818 731 771 c 1,6,7
 693 714 693 714 657 605 c 1,8,-1
 667 605 l 2,9,10
 751 605 751 605 751 529 c 0,11,12
 751 482 751 482 731 448 c 1,13,14
 692 464 692 464 617 466 c 1,15,-1
 574 303 l 1,16,-1
 591 303 l 2,17,18
 675 303 675 303 675 227 c 0,19,20
 675 180 675 180 655 146 c 1,21,22
 615 162 615 162 538 164 c 1,23,24
 518 85 518 85 495 5 c 0,25,26
 465 -103 465 -103 384 -103 c 0,27,28
 335 -103 335 -103 294 -71 c 1,29,30
 335 -33 335 -33 378 115 c 1,31,-1
 390 160 l 1,32,33
 324 158 324 158 220 150 c 1,34,-1
 181 5 l 2,35,36
 151 -103 151 -103 70 -103 c 0,37,38
 21 -103 21 -103 -20 -71 c 1,39,40
 21 -33 21 -33 64 115 c 1,41,-1
 71 141 l 1,42,43
 54 140 54 140 26 140 c 0,44,45
 -18 140 -18 140 -18 202 c 128,-1,46
 -18 264 -18 264 16 316 c 1,47,48
 52 302 52 302 113 298 c 1,49,-1
 148 443 l 1,50,51
 131 442 131 442 102 442 c 0,52,53
 58 442 58 442 58 504 c 128,-1,54
 58 566 58 566 92 618 c 1,55,56
 126 604 126 604 185 600 c 1,57,58
 202 676 202 676 222 754 c 0,59,60
 238 818 238 818 301.5 818 c 128,-1,61
 365 818 365 818 417 771 c 1,62,63
 376 712 376 712 342 600 c 1,0,-1
259 298 m 1,64,-1
 428 301 l 1,65,-1
 467 462 l 1,66,67
 403 460 403 460 300 452 c 1,68,69
 282 390 282 390 259 298 c 1,64,-1
EndSplineSet
EndChar

StartChar: dollar
Encoding: 36 36 7
Width: 724
GlyphClass: 2
Flags: W
LayerCount: 2
Fore
SplineSet
109 41.5 m 128,-1,1
 62 78 62 78 62 139 c 128,-1,2
 62 200 62 200 91 258 c 1,3,4
 126 220 126 220 186.5 193.5 c 128,-1,5
 247 167 247 167 304 167 c 0,6,7
 387 167 387 167 406 222 c 1,8,9
 328 233 328 233 269.5 256 c 128,-1,10
 211 279 211 279 180 303.5 c 128,-1,11
 149 328 149 328 130.5 358 c 128,-1,12
 112 388 112 388 107.5 408 c 128,-1,13
 103 428 103 428 103 448 c 0,14,15
 103 552 103 552 174 605 c 128,-1,16
 245 658 245 658 353 670 c 1,17,18
 366 725 366 725 366 754 c 128,-1,19
 366 783 366 783 364 799 c 1,20,21
 418 853 418 853 450 853 c 0,22,23
 479 853 479 853 479 802 c 128,-1,24
 479 751 479 751 452 673 c 1,25,26
 661 665 661 665 661 556 c 0,27,28
 661 499 661 499 636 455 c 1,29,30
 573 496 573 496 445 496 c 0,31,32
 345 496 345 496 339 433 c 1,33,34
 473 407 473 407 528 383.5 c 128,-1,35
 583 360 583 360 608 337 c 0,36,37
 663 286 663 286 663 209 c 0,38,39
 663 117 663 117 577.5 63 c 128,-1,40
 492 9 492 9 371 -1 c 1,41,42
 358 -58 358 -58 358 -92.5 c 128,-1,43
 358 -127 358 -127 362 -142 c 1,44,45
 313 -194 313 -194 278 -194 c 0,46,47
 246 -194 246 -194 246 -139 c 128,-1,48
 246 -84 246 -84 271 -1 c 1,49,0
 156 5 156 5 109 41.5 c 128,-1,1
EndSplineSet
EndChar

StartChar: percent
Encoding: 37 37 8
Width: 1150
GlyphClass: 2
Flags: W
LayerCount: 2
Fore
SplineSet
330 13 m 1,0,1
 376 64 376 64 434 177 c 1,2,3
 478 267 478 267 547.5 411.5 c 128,-1,4
 617 556 617 556 658.5 640.5 c 128,-1,5
 700 725 700 725 765 725 c 0,6,7
 803 725 803 725 832 699 c 1,8,9
 786 654 786 654 732 545.5 c 128,-1,10
 678 437 678 437 598.5 258.5 c 128,-1,11
 519 80 519 80 493.5 27.5 c 128,-1,12
 468 -25 468 -25 416.5 -25 c 128,-1,13
 365 -25 365 -25 330 13 c 1,0,1
18 417 m 0,14,15
 18 316 18 316 75.5 254.5 c 128,-1,16
 133 193 133 193 238 193 c 128,-1,17
 343 193 343 193 421.5 272.5 c 128,-1,18
 500 352 500 352 500 476 c 0,19,20
 500 629 500 629 382 656 c 1,21,22
 380 682 380 682 374 690 c 1,23,24
 351 700 351 700 314 700 c 0,25,26
 182 700 182 700 100 622 c 128,-1,27
 18 544 18 544 18 417 c 0,14,15
239 307 m 0,28,29
 216 307 216 307 203 334.5 c 128,-1,30
 190 362 190 362 190 405 c 0,31,32
 190 493 190 493 233 559 c 1,33,34
 248 562 248 562 259 562 c 0,35,36
 322 562 322 562 322 478 c 0,37,38
 322 413 322 413 296.5 360 c 128,-1,39
 271 307 271 307 239 307 c 0,28,29
651 205 m 0,40,41
 651 104 651 104 708.5 42.5 c 128,-1,42
 766 -19 766 -19 871 -19 c 128,-1,43
 976 -19 976 -19 1054.5 60.5 c 128,-1,44
 1133 140 1133 140 1133 264 c 0,45,46
 1133 417 1133 417 1015 444 c 1,47,48
 1013 470 1013 470 1007 478 c 1,49,50
 984 488 984 488 947 488 c 0,51,52
 815 488 815 488 733 410 c 128,-1,53
 651 332 651 332 651 205 c 0,40,41
872 95 m 0,54,55
 849 95 849 95 836 122.5 c 128,-1,56
 823 150 823 150 823 193 c 0,57,58
 823 281 823 281 866 347 c 1,59,60
 881 350 881 350 892 350 c 0,61,62
 955 350 955 350 955 266 c 0,63,64
 955 201 955 201 929.5 148 c 128,-1,65
 904 95 904 95 872 95 c 0,54,55
EndSplineSet
EndChar

StartChar: ampersand
Encoding: 38 38 9
Width: 758
GlyphClass: 2
Flags: W
LayerCount: 2
Fore
SplineSet
404 642 m 1,0,1
 346 628 346 628 314.5 592.5 c 128,-1,2
 283 557 283 557 283 516 c 128,-1,3
 283 475 283 475 314 447 c 128,-1,4
 345 419 345 419 400.5 419 c 128,-1,5
 456 419 456 419 581 447 c 128,-1,6
 706 475 706 475 747 475 c 128,-1,7
 788 475 788 475 788 420.5 c 128,-1,8
 788 366 788 366 769 319 c 1,9,10
 741 325 741 325 707 325 c 128,-1,11
 673 325 673 325 632 317 c 1,12,13
 632 210 632 210 598.5 125.5 c 128,-1,14
 565 41 565 41 509 -10 c 0,15,16
 395 -112 395 -112 247 -112 c 0,17,18
 135 -112 135 -112 75 -55 c 128,-1,19
 15 2 15 2 15 80 c 128,-1,20
 15 158 15 158 57.5 227.5 c 128,-1,21
 100 297 100 297 178 343 c 1,22,23
 130 372 130 372 105 417 c 128,-1,24
 80 462 80 462 80 512 c 0,25,26
 80 615 80 615 180 695 c 128,-1,27
 280 775 280 775 447 775 c 0,28,29
 533 775 533 775 583 742.5 c 128,-1,30
 633 710 633 710 633 661 c 128,-1,31
 633 612 633 612 599.5 586 c 128,-1,32
 566 560 566 560 526.5 560 c 128,-1,33
 487 560 487 560 454.5 581 c 128,-1,34
 422 602 422 602 404 642 c 1,0,1
333 91 m 0,35,36
 392 91 392 91 453.5 147.5 c 128,-1,37
 515 204 515 204 526 309 c 1,38,39
 414 297 414 297 371.5 297 c 128,-1,40
 329 297 329 297 304 301 c 1,41,42
 244 237 244 237 244 173 c 0,43,44
 244 135 244 135 269 113 c 128,-1,45
 294 91 294 91 333 91 c 0,35,36
EndSplineSet
EndChar

StartChar: quotesingle
Encoding: 39 39 10
Width: 286
GlyphClass: 2
Flags: W
LayerCount: 2
Fore
SplineSet
129 446 m 0,0,1
 70 446 70 446 70 496 c 0,2,3
 70 526 70 526 96 600.5 c 128,-1,4
 122 675 122 675 122 707 c 128,-1,5
 122 739 122 739 115 759 c 1,6,7
 160 780 160 780 207 780 c 0,8,9
 266 780 266 780 266 730 c 0,10,11
 266 698 266 698 240 624 c 128,-1,12
 214 550 214 550 214 518.5 c 128,-1,13
 214 487 214 487 221 467 c 1,14,15
 176 446 176 446 129 446 c 0,0,1
EndSplineSet
EndChar

StartChar: parenleft
Encoding: 40 40 11
Width: 415
GlyphClass: 2
Flags: W
LayerCount: 2
Fore
SplineSet
109 -73.5 m 128,-1,1
 70 9 70 9 70 147.5 c 128,-1,2
 70 286 70 286 107 437.5 c 128,-1,3
 144 589 144 589 206 695 c 128,-1,4
 268 801 268 801 329.5 801 c 128,-1,5
 391 801 391 801 425 758 c 1,6,7
 332 674 332 674 285.5 517.5 c 128,-1,8
 239 361 239 361 239 242.5 c 128,-1,9
 239 124 239 124 264.5 41 c 128,-1,10
 290 -42 290 -42 357 -108 c 1,11,12
 288 -156 288 -156 225 -156 c 0,13,0
 148 -156 148 -156 109 -73.5 c 128,-1,1
EndSplineSet
EndChar

StartChar: parenright
Encoding: 41 41 12
Width: 415
GlyphClass: 2
Flags: W
LayerCount: 2
Fore
SplineSet
305.5 718 m 128,-1,1
 345 635 345 635 345 497 c 128,-1,2
 345 359 345 359 308 207.5 c 128,-1,3
 271 56 271 56 209 -50 c 128,-1,4
 147 -156 147 -156 85.5 -156 c 128,-1,5
 24 -156 24 -156 -10 -113 c 1,6,7
 83 -29 83 -29 129.5 127.5 c 128,-1,8
 176 284 176 284 176 402.5 c 128,-1,9
 176 521 176 521 150.5 604 c 128,-1,10
 125 687 125 687 58 753 c 1,11,12
 127 801 127 801 190 801 c 0,13,0
 266 801 266 801 305.5 718 c 128,-1,1
EndSplineSet
EndChar

StartChar: asterisk
Encoding: 42 42 13
Width: 592
GlyphClass: 2
Flags: W
LayerCount: 2
Fore
SplineSet
313 433 m 1,0,1
 252 347 252 347 243 310 c 1,2,3
 193 314 193 314 151.5 339 c 128,-1,4
 110 364 110 364 110 386.5 c 128,-1,5
 110 409 110 409 134.5 435.5 c 128,-1,6
 159 462 159 462 212 508 c 1,7,8
 132 536 132 536 74 537 c 1,9,10
 67 564 67 564 67 600.5 c 128,-1,11
 67 637 67 637 81.5 663 c 128,-1,12
 96 689 96 689 123 689 c 128,-1,13
 150 689 150 689 254 627 c 1,14,15
 253 731 253 731 239 768 c 1,16,17
 293 800 293 800 334 800 c 128,-1,18
 375 800 375 800 387.5 786 c 128,-1,19
 400 772 400 772 400 739 c 128,-1,20
 400 706 400 706 378 625 c 1,21,22
 485 659 485 659 509 681 c 1,23,24
 537 657 537 657 557 622.5 c 128,-1,25
 577 588 577 588 577 567 c 0,26,27
 577 535 577 535 537.5 524 c 128,-1,28
 498 513 498 513 415 506 c 1,29,30
 455 452 455 452 472 433 c 128,-1,31
 489 414 489 414 509 399 c 1,32,33
 494 359 494 359 462.5 327.5 c 128,-1,34
 431 296 431 296 408 296 c 0,35,36
 363 296 363 296 313 433 c 1,0,1
314 461 m 1,37,38
 340 487 340 487 401 513 c 1,39,40
 370 568 370 568 370 609 c 1,41,42
 332 604 332 604 317 604 c 128,-1,43
 302 604 302 604 269 609 c 1,44,45
 262 551 262 551 235 514 c 1,46,47
 295 492 295 492 314 461 c 1,37,38
EndSplineSet
EndChar

StartChar: plus
Encoding: 43 43 14
Width: 733
GlyphClass: 2
Flags: W
LayerCount: 2
Fore
SplineSet
139 283 m 0,0,1
 100 283 100 283 100 347 c 128,-1,2
 100 411 100 411 131 457 c 1,3,4
 185 440 185 440 292 440 c 1,5,6
 290 518 290 518 290 557 c 0,7,8
 290 636 290 636 366 636 c 0,9,10
 410 636 410 636 445 618 c 1,11,12
 429 579 429 579 429 522 c 128,-1,13
 429 465 429 465 431 443 c 1,14,15
 492 446 492 446 554 446 c 0,16,17
 633 446 633 446 633 370 c 0,18,19
 633 326 633 326 615 291 c 1,20,21
 576 307 576 307 505 307 c 0,22,23
 483 307 483 307 443 305 c 1,24,25
 453 195 453 195 453 142 c 0,26,27
 453 103 453 103 389 103 c 128,-1,28
 325 103 325 103 279 134 c 1,29,30
 296 188 296 188 296 292 c 1,31,32
 201 283 201 283 139 283 c 0,0,1
EndSplineSet
EndChar

StartChar: comma
Encoding: 44 44 15
Width: 333
GlyphClass: 2
Flags: W
LayerCount: 2
Fore
SplineSet
118 -2 m 1,0,-1
 48 88 l 1,1,2
 50 136 50 136 88 172 c 128,-1,3
 126 208 126 208 176 208 c 128,-1,4
 226 208 226 208 255 174 c 128,-1,5
 284 140 284 140 284 93 c 0,6,7
 284 -11 284 -11 214 -91.5 c 128,-1,8
 144 -172 144 -172 27 -196 c 1,9,-1
 12 -152 l 1,10,11
 59 -130 59 -130 88.5 -85.5 c 128,-1,12
 118 -41 118 -41 118 -2 c 1,0,-1
EndSplineSet
EndChar

StartChar: hyphen
Encoding: 45 45 16
Width: 528
GlyphClass: 2
Flags: W
LayerCount: 2
Fore
SplineSet
118 183 m 0,0,1
 55 183 55 183 55 256 c 0,2,3
 55 309 55 309 83 370 c 1,4,5
 104 363 104 363 144.5 363 c 128,-1,6
 185 363 185 363 274.5 395 c 128,-1,7
 364 427 364 427 410 427 c 0,8,9
 473 427 473 427 473 354 c 0,10,11
 473 301 473 301 445 240 c 1,12,13
 424 247 424 247 383.5 247 c 128,-1,14
 343 247 343 247 253.5 215 c 128,-1,15
 164 183 164 183 118 183 c 0,0,1
EndSplineSet
EndChar

StartChar: period
Encoding: 46 46 17
Width: 333
GlyphClass: 2
Flags: W
LayerCount: 2
Fore
SplineSet
80.5 5.5 m 128,-1,1
 50 36 50 36 50 83.5 c 128,-1,2
 50 131 50 131 87 169 c 128,-1,3
 124 207 124 207 173 207 c 128,-1,4
 222 207 222 207 252.5 176.5 c 128,-1,5
 283 146 283 146 283 98.5 c 128,-1,6
 283 51 283 51 246 13 c 128,-1,7
 209 -25 209 -25 160 -25 c 128,-1,0
 111 -25 111 -25 80.5 5.5 c 128,-1,1
EndSplineSet
EndChar

StartChar: slash
Encoding: 47 47 18
Width: 397
GlyphClass: 2
Flags: W
LayerCount: 2
Fore
SplineSet
181 23 m 0,0,1
 151 -85 151 -85 70 -85 c 0,2,3
 21 -85 21 -85 -20 -53 c 1,4,5
 21 -15 21 -15 63.5 133.5 c 128,-1,6
 106 282 106 282 162 520 c 128,-1,7
 218 758 218 758 222 772 c 0,8,9
 238 836 238 836 301.5 836 c 128,-1,10
 365 836 365 836 417 789 c 1,11,12
 369 718 369 718 335.5 599.5 c 128,-1,13
 302 481 302 481 256 303 c 128,-1,14
 210 125 210 125 181 23 c 0,0,1
EndSplineSet
EndChar

StartChar: zero
Encoding: 48 48 19
Width: 758
GlyphClass: 2
Flags: W
LayerCount: 2
Fore
SplineSet
55 295 m 0,0,1
 55 477 55 477 165 588.5 c 128,-1,2
 275 700 275 700 452 700 c 0,3,4
 503 700 503 700 533 685 c 1,5,6
 542 675 542 675 545 637 c 1,7,8
 626 618 626 618 664.5 550 c 128,-1,9
 703 482 703 482 703 380 c 0,10,11
 703 203 703 203 597.5 89 c 128,-1,12
 492 -25 492 -25 351 -25 c 128,-1,13
 210 -25 210 -25 132.5 63 c 128,-1,14
 55 151 55 151 55 295 c 0,0,1
277.5 162.5 m 128,-1,16
 304 117 304 117 357 117 c 128,-1,17
 410 117 410 117 454.5 198.5 c 128,-1,18
 499 280 499 280 499 380 c 0,19,20
 499 524 499 524 379 524 c 0,21,22
 360 524 360 524 332 519 c 1,23,24
 251 414 251 414 251 280 c 0,25,15
 251 208 251 208 277.5 162.5 c 128,-1,16
EndSplineSet
EndChar

StartChar: one
Encoding: 49 49 20
Width: 569
GlyphClass: 2
Flags: W
LayerCount: 2
Fore
SplineSet
180 145 m 0,0,1
 180 207 180 207 222 417 c 1,2,3
 154 417 154 417 105.5 455 c 128,-1,4
 57 493 57 493 47 573 c 1,5,6
 128 589 128 589 200.5 621.5 c 128,-1,7
 273 654 273 654 322 677 c 128,-1,8
 371 700 371 700 410 700 c 0,9,10
 481 700 481 700 481 620 c 0,11,12
 481 571 481 571 442 392.5 c 128,-1,13
 403 214 403 214 403 137.5 c 128,-1,14
 403 61 403 61 432 12 c 1,15,16
 365 -25 365 -25 304 -25 c 0,17,18
 180 -25 180 -25 180 145 c 0,0,1
EndSplineSet
EndChar

StartChar: two
Encoding: 50 50 21
Width: 715
GlyphClass: 2
Flags: W
LayerCount: 2
Fore
SplineSet
244 32 m 1,0,1
 178 -19 178 -19 122 -19 c 128,-1,2
 66 -19 66 -19 39 14 c 128,-1,3
 12 47 12 47 12 99.5 c 128,-1,4
 12 152 12 152 55.5 196.5 c 128,-1,5
 99 241 99 241 173 241 c 0,6,7
 196 241 196 241 218 236 c 1,8,9
 303 308 303 308 345 361 c 128,-1,10
 387 414 387 414 387 453.5 c 128,-1,11
 387 493 387 493 365.5 514 c 128,-1,12
 344 535 344 535 308 535 c 0,13,14
 249 535 249 535 214 480 c 0,15,16
 197 455 197 455 184 417 c 1,17,18
 139 422 139 422 116 448 c 128,-1,19
 93 474 93 474 93 513 c 0,20,21
 93 588 93 588 165.5 644 c 128,-1,22
 238 700 238 700 386 700 c 0,23,24
 507 700 507 700 567.5 642.5 c 128,-1,25
 628 585 628 585 628 510 c 0,26,27
 628 377 628 377 391 191 c 1,28,29
 477 177 477 177 526 177 c 1,30,-1
 643 222 l 1,31,32
 654 176 654 176 654 138 c 0,33,34
 654 56 654 56 609 15.5 c 128,-1,35
 564 -25 564 -25 500 -25 c 128,-1,36
 436 -25 436 -25 381.5 -11.5 c 128,-1,37
 327 2 327 2 244 32 c 1,0,1
EndSplineSet
EndChar

StartChar: three
Encoding: 51 51 22
Width: 653
GlyphClass: 2
Flags: W
LayerCount: 2
Fore
SplineSet
44 -126.5 m 128,-1,1
 -10 -97 -10 -97 -10 -47 c 128,-1,2
 -10 3 -10 3 24 29.5 c 128,-1,3
 58 56 58 56 99 56 c 128,-1,4
 140 56 140 56 177 34 c 128,-1,5
 214 12 214 12 238 -29 c 1,6,7
 285 -16 285 -16 322.5 25.5 c 128,-1,8
 360 67 360 67 360 113 c 128,-1,9
 360 159 360 159 323 195 c 1,10,11
 262 160 262 160 198 160 c 0,12,13
 118 160 118 160 118 234 c 0,14,15
 118 276 118 276 155.5 304.5 c 128,-1,16
 193 333 193 333 268 333 c 0,17,18
 295 333 295 333 310 331 c 1,19,20
 337 352 337 352 352.5 384.5 c 128,-1,21
 368 417 368 417 368 451.5 c 128,-1,22
 368 486 368 486 347 509.5 c 128,-1,23
 326 533 326 533 290.5 533 c 128,-1,24
 255 533 255 533 220 505 c 128,-1,25
 185 477 185 477 168 416 c 1,26,27
 113 419 113 419 86 445.5 c 128,-1,28
 59 472 59 472 59 513 c 0,29,30
 59 588 59 588 131.5 644 c 128,-1,31
 204 700 204 700 347 700 c 0,32,33
 414 700 414 700 462 683.5 c 128,-1,34
 510 667 510 667 535 640 c 0,35,36
 582 588 582 588 582 523 c 0,37,38
 582 405 582 405 454 283 c 1,39,40
 583 221 583 221 583 103 c 0,41,42
 583 -4 583 -4 476.5 -80 c 128,-1,43
 370 -156 370 -156 197 -156 c 0,44,0
 98 -156 98 -156 44 -126.5 c 128,-1,1
EndSplineSet
EndChar

StartChar: four
Encoding: 52 52 23
Width: 707
GlyphClass: 2
Flags: W
LayerCount: 2
Fore
SplineSet
364 -32 m 0,0,1
 364 -7 364 -7 368 16 c 1,2,3
 286 0 286 0 205 0 c 0,4,5
 19 0 19 0 19 115 c 0,6,7
 19 181 19 181 115 354 c 0,8,9
 151 419 151 419 181 497 c 128,-1,10
 211 575 211 575 211 630 c 0,11,12
 211 655 211 655 203 677 c 1,13,14
 264 700 264 700 310 700 c 0,15,16
 445 700 445 700 445 566 c 0,17,18
 445 386 445 386 186 130 c 1,19,-1
 394 130 l 1,20,21
 421 224 421 224 460 304 c 1,22,23
 487 331 487 331 545 354 c 128,-1,24
 603 377 603 377 652 377 c 0,25,26
 667 377 667 377 672 371.5 c 128,-1,27
 677 366 677 366 677 349 c 128,-1,28
 677 332 677 332 660 268 c 0,29,30
 608 78 608 78 608 -41 c 0,31,32
 608 -98 608 -98 632 -134 c 1,33,34
 562 -170 562 -170 495 -170 c 128,-1,35
 428 -170 428 -170 396 -131.5 c 128,-1,36
 364 -93 364 -93 364 -32 c 0,0,1
EndSplineSet
EndChar

StartChar: five
Encoding: 53 53 24
Width: 635
GlyphClass: 2
Flags: W
LayerCount: 2
Fore
SplineSet
60.5 -126 m 128,-1,1
 7 -96 7 -96 7 -46.5 c 128,-1,2
 7 3 7 3 41 29.5 c 128,-1,3
 75 56 75 56 114 56 c 0,4,5
 196 56 196 56 239 -26 c 1,6,7
 290 -18 290 -18 321.5 18.5 c 128,-1,8
 353 55 353 55 353 102 c 128,-1,9
 353 149 353 149 317 183.5 c 128,-1,10
 281 218 281 218 209 218 c 0,11,12
 173 218 173 218 127 208 c 1,13,14
 98 210 98 210 98 231 c 1,15,-1
 135 527 l 1,16,17
 98 569 98 569 98 610.5 c 128,-1,18
 98 652 98 652 122 676 c 128,-1,19
 146 700 146 700 188 700 c 0,20,21
 257 700 257 700 298 630 c 1,22,23
 349 630 349 630 435 648 c 128,-1,24
 521 666 521 666 594 693 c 1,25,26
 600 663 600 663 600 628 c 0,27,28
 600 456 600 456 409 456 c 0,29,30
 399 456 399 456 301 462 c 1,31,-1
 290 348 l 1,32,33
 406 342 406 342 492 289 c 0,34,35
 536 262 536 262 562 217 c 128,-1,36
 588 172 588 172 588 114 c 0,37,38
 588 0 588 0 482.5 -78 c 128,-1,39
 377 -156 377 -156 210 -156 c 0,40,0
 114 -156 114 -156 60.5 -126 c 128,-1,1
EndSplineSet
EndChar

StartChar: six
Encoding: 54 54 25
Width: 674
GlyphClass: 2
Flags: W
LayerCount: 2
Fore
SplineSet
656 306 m 0,0,1
 656 166 656 166 546.5 70.5 c 128,-1,2
 437 -25 437 -25 288 -25 c 0,3,4
 174 -25 174 -25 105.5 45.5 c 128,-1,5
 37 116 37 116 37 250 c 0,6,7
 37 360 37 360 81 468.5 c 128,-1,8
 125 577 125 577 192 654 c 128,-1,9
 259 731 259 731 339 779 c 128,-1,10
 419 827 419 827 485 827 c 128,-1,11
 551 827 551 827 583.5 803.5 c 128,-1,12
 616 780 616 780 638 727 c 1,13,14
 538 693 538 693 467 642.5 c 128,-1,15
 396 592 396 592 343 511 c 1,16,17
 378 519 378 519 408 519 c 0,18,19
 525 519 525 519 590.5 459.5 c 128,-1,20
 656 400 656 400 656 306 c 0,0,1
266 143.5 m 128,-1,22
 285 108 285 108 325 108 c 128,-1,23
 365 108 365 108 399 154.5 c 128,-1,24
 433 201 433 201 433 283 c 0,25,26
 433 332 433 332 414.5 365 c 128,-1,27
 396 398 396 398 356 398 c 128,-1,28
 316 398 316 398 281.5 352.5 c 128,-1,29
 247 307 247 307 247 230 c 0,30,21
 247 179 247 179 266 143.5 c 128,-1,22
EndSplineSet
EndChar

StartChar: seven
Encoding: 55 55 26
Width: 612
GlyphClass: 2
Flags: W
LayerCount: 2
Fore
SplineSet
137 0 m 0,0,1
 137 83 137 83 198.5 206.5 c 128,-1,2
 260 330 260 330 363 462 c 1,3,4
 314 459 314 459 272 459 c 0,5,6
 172 459 172 459 116.5 506.5 c 128,-1,7
 61 554 61 554 61 637 c 0,8,9
 61 669 61 669 65 700 c 1,10,11
 143 674 143 674 259.5 656.5 c 128,-1,12
 376 639 376 639 446 639 c 1,13,14
 487 709 487 709 552 709 c 0,15,16
 592 709 592 709 614.5 685 c 128,-1,17
 637 661 637 661 637 626 c 0,18,19
 637 557 637 557 569 516 c 1,20,21
 499 380 499 380 435 210.5 c 128,-1,22
 371 41 371 41 371 -51 c 0,23,24
 371 -81 371 -81 380 -98 c 1,25,26
 327 -121 327 -121 273 -121 c 0,27,28
 137 -121 137 -121 137 0 c 0,0,1
EndSplineSet
EndChar

StartChar: eight
Encoding: 56 56 27
Width: 675
GlyphClass: 2
Flags: W
LayerCount: 2
Fore
SplineSet
92.5 280.5 m 128,-1,1
 134 337 134 337 203 378 c 1,2,3
 169 410 169 410 150 431 c 128,-1,4
 131 452 131 452 113 486.5 c 128,-1,5
 95 521 95 521 95 556 c 0,6,7
 95 654 95 654 174.5 713.5 c 128,-1,8
 254 773 254 773 386 773 c 0,9,10
 460 773 460 773 512 755 c 128,-1,11
 564 737 564 737 590 707 c 0,12,13
 636 652 636 652 636 592 c 128,-1,14
 636 532 636 532 601 483.5 c 128,-1,15
 566 435 566 435 509 400 c 1,16,17
 570 358 570 358 609 304.5 c 128,-1,18
 648 251 648 251 648 197 c 0,19,20
 648 97 648 97 553.5 35.5 c 128,-1,21
 459 -26 459 -26 316 -26 c 0,22,23
 237 -26 237 -26 181.5 -7.5 c 128,-1,24
 126 11 126 11 100 42 c 1,25,26
 51 97 51 97 51 160.5 c 128,-1,0
 51 224 51 224 92.5 280.5 c 128,-1,1
344 261 m 2,27,-1
 287 308 l 1,28,29
 233 266 233 266 233 196 c 0,30,31
 233 151 233 151 258.5 119 c 128,-1,32
 284 87 284 87 323 87 c 128,-1,33
 362 87 362 87 388.5 109 c 128,-1,34
 415 131 415 131 415 161 c 128,-1,35
 415 191 415 191 401 208 c 128,-1,36
 387 225 387 225 344 261 c 2,27,-1
444.5 634.5 m 128,-1,38
 424 661 424 661 388 661.5 c 128,-1,39
 352 662 352 662 329 642 c 128,-1,40
 306 622 306 622 306 591.5 c 128,-1,41
 306 561 306 561 340 531 c 2,42,-1
 422 460 l 1,43,44
 465 500 465 500 465 568 c 0,45,37
 465 608 465 608 444.5 634.5 c 128,-1,38
EndSplineSet
EndChar

StartChar: nine
Encoding: 57 57 28
Width: 746
GlyphClass: 2
Flags: W
LayerCount: 2
Fore
SplineSet
119.5 232 m 128,-1,1
 62 293 62 293 62 382 c 128,-1,2
 62 471 62 471 113.5 545.5 c 128,-1,3
 165 620 165 620 248.5 660 c 128,-1,4
 332 700 332 700 437.5 700 c 128,-1,5
 543 700 543 700 612 637 c 128,-1,6
 681 574 681 574 681 460.5 c 128,-1,7
 681 347 681 347 638.5 235.5 c 128,-1,8
 596 124 596 124 530.5 42 c 128,-1,9
 465 -40 465 -40 384 -91.5 c 128,-1,10
 303 -143 303 -143 229 -143 c 0,11,12
 109 -143 109 -143 81 -43 c 1,13,14
 276 11 276 11 386 182 c 1,15,16
 338 171 338 171 290 171 c 0,17,0
 177 171 177 171 119.5 232 c 128,-1,1
452 541 m 128,-1,19
 433 576 433 576 393 576 c 128,-1,20
 353 576 353 576 319 529.5 c 128,-1,21
 285 483 285 483 285 402 c 0,22,23
 285 353 285 353 303.5 320 c 128,-1,24
 322 287 322 287 362 287 c 128,-1,25
 402 287 402 287 436.5 332.5 c 128,-1,26
 471 378 471 378 471 455 c 0,27,18
 471 506 471 506 452 541 c 128,-1,19
EndSplineSet
EndChar

StartChar: colon
Encoding: 58 58 29
Width: 333
GlyphClass: 2
Flags: W
LayerCount: 2
Fore
SplineSet
80.5 5.5 m 128,-1,1
 50 36 50 36 50 83.5 c 128,-1,2
 50 131 50 131 87 169 c 128,-1,3
 124 207 124 207 173 207 c 128,-1,4
 222 207 222 207 252.5 176.5 c 128,-1,5
 283 146 283 146 283 98.5 c 128,-1,6
 283 51 283 51 246 13 c 128,-1,7
 209 -25 209 -25 160 -25 c 128,-1,0
 111 -25 111 -25 80.5 5.5 c 128,-1,1
127.5 358.5 m 128,-1,9
 97 389 97 389 97 436.5 c 128,-1,10
 97 484 97 484 134 522 c 128,-1,11
 171 560 171 560 220 560 c 128,-1,12
 269 560 269 560 299.5 529.5 c 128,-1,13
 330 499 330 499 330 451.5 c 128,-1,14
 330 404 330 404 293 366 c 128,-1,15
 256 328 256 328 207 328 c 128,-1,8
 158 328 158 328 127.5 358.5 c 128,-1,9
EndSplineSet
EndChar

StartChar: semicolon
Encoding: 59 59 30
Width: 333
GlyphClass: 2
Flags: W
LayerCount: 2
Fore
SplineSet
118 -2 m 1,0,-1
 48 88 l 1,1,2
 50 136 50 136 88 172 c 128,-1,3
 126 208 126 208 176 208 c 128,-1,4
 226 208 226 208 255 174 c 128,-1,5
 284 140 284 140 284 93 c 0,6,7
 284 -11 284 -11 214 -91.5 c 128,-1,8
 144 -172 144 -172 27 -196 c 1,9,-1
 12 -152 l 1,10,11
 59 -130 59 -130 88.5 -85.5 c 128,-1,12
 118 -41 118 -41 118 -2 c 1,0,-1
127.5 358.5 m 128,-1,14
 97 389 97 389 97 436.5 c 128,-1,15
 97 484 97 484 134 522 c 128,-1,16
 171 560 171 560 220 560 c 128,-1,17
 269 560 269 560 299.5 529.5 c 128,-1,18
 330 499 330 499 330 451.5 c 128,-1,19
 330 404 330 404 293 366 c 128,-1,20
 256 328 256 328 207 328 c 128,-1,13
 158 328 158 328 127.5 358.5 c 128,-1,14
EndSplineSet
EndChar

StartChar: less
Encoding: 60 60 31
Width: 733
GlyphClass: 2
Flags: W
LayerCount: 2
Fore
SplineSet
610 502 m 1,0,1
 560 497 560 497 504.5 474.5 c 128,-1,2
 449 452 449 452 381 417 c 128,-1,3
 313 382 313 382 281 369 c 1,4,5
 329 343 329 343 420 311.5 c 128,-1,6
 511 280 511 280 568 256.5 c 128,-1,7
 625 233 625 233 625 214 c 0,8,9
 625 183 625 183 592.5 146.5 c 128,-1,10
 560 110 560 110 523 91 c 1,11,12
 491 125 491 125 434 155 c 128,-1,13
 377 185 377 185 290.5 226 c 128,-1,14
 204 267 204 267 166 287 c 128,-1,15
 128 307 128 307 116 342 c 128,-1,16
 104 377 104 377 103 429 c 1,17,18
 150 432 150 432 219 468 c 128,-1,19
 288 504 288 504 346 546 c 0,20,21
 499 656 499 656 537 656 c 0,22,23
 567 656 567 656 588.5 607 c 128,-1,24
 610 558 610 558 610 502 c 1,0,1
EndSplineSet
EndChar

StartChar: equal
Encoding: 61 61 32
Width: 733
GlyphClass: 2
Flags: W
LayerCount: 2
Fore
SplineSet
259 589 m 1,0,-1
 554 595 l 1,1,2
 633 595 633 595 633 519 c 0,3,4
 633 475 633 475 615 440 c 1,5,6
 576 456 576 456 508.5 456 c 128,-1,7
 441 456 441 456 320 444 c 128,-1,8
 199 432 199 432 139 432 c 0,9,10
 100 432 100 432 100 496 c 128,-1,11
 100 560 100 560 131 606 c 1,12,13
 185 589 185 589 259 589 c 1,0,-1
259 302 m 1,14,-1
 554 308 l 1,15,16
 633 308 633 308 633 232 c 0,17,18
 633 188 633 188 615 153 c 1,19,20
 576 169 576 169 508.5 169 c 128,-1,21
 441 169 441 169 320 157 c 128,-1,22
 199 145 199 145 139 145 c 0,23,24
 100 145 100 145 100 209 c 128,-1,25
 100 273 100 273 131 319 c 1,26,27
 185 302 185 302 259 302 c 1,14,-1
EndSplineSet
EndChar

StartChar: greater
Encoding: 62 62 33
Width: 733
GlyphClass: 2
Flags: W
LayerCount: 2
Fore
SplineSet
118 241 m 1,0,1
 168 246 168 246 223.5 268.5 c 128,-1,2
 279 291 279 291 347 326 c 128,-1,3
 415 361 415 361 447 374 c 1,4,5
 399 400 399 400 308 431.5 c 128,-1,6
 217 463 217 463 160 486.5 c 128,-1,7
 103 510 103 510 103 529 c 0,8,9
 103 560 103 560 135.5 596.5 c 128,-1,10
 168 633 168 633 205 652 c 1,11,12
 237 618 237 618 294 588 c 128,-1,13
 351 558 351 558 437.5 517 c 128,-1,14
 524 476 524 476 562 456 c 128,-1,15
 600 436 600 436 612 401 c 128,-1,16
 624 366 624 366 625 314 c 1,17,18
 578 311 578 311 509 275 c 128,-1,19
 440 239 440 239 382 198 c 0,20,21
 229 87 229 87 191 87 c 0,22,23
 161 87 161 87 139.5 136 c 128,-1,24
 118 185 118 185 118 241 c 1,0,1
EndSplineSet
EndChar

StartChar: question
Encoding: 63 63 34
Width: 602
GlyphClass: 2
Flags: W
LayerCount: 2
Fore
SplineSet
214 381 m 1,0,1
 273 396 273 396 309 435 c 128,-1,2
 345 474 345 474 345 514 c 0,3,4
 345 600 345 600 268 600 c 0,5,6
 182 600 182 600 144 482 c 1,7,8
 97 487 97 487 72 517 c 128,-1,9
 47 547 47 547 47 589 c 0,10,11
 47 661 47 661 111.5 718 c 128,-1,12
 176 775 176 775 301.5 775 c 128,-1,13
 427 775 427 775 493 709 c 128,-1,14
 559 643 559 643 559 549 c 0,15,16
 559 427 559 427 488.5 345 c 128,-1,17
 418 263 418 263 328 263 c 0,18,19
 278 263 278 263 246 296 c 128,-1,20
 214 329 214 329 214 381 c 1,0,1
162 169 m 128,-1,22
 125 131 125 131 125 83.5 c 128,-1,23
 125 36 125 36 155.5 5.5 c 128,-1,24
 186 -25 186 -25 235 -25 c 128,-1,25
 284 -25 284 -25 321 13 c 128,-1,26
 358 51 358 51 358 98.5 c 128,-1,27
 358 146 358 146 327.5 176.5 c 128,-1,28
 297 207 297 207 248 207 c 128,-1,21
 199 207 199 207 162 169 c 128,-1,22
EndSplineSet
EndChar

StartChar: at
Encoding: 64 64 35
Width: 1090
GlyphClass: 2
Flags: W
LayerCount: 2
Fore
SplineSet
293 288 m 0,0,1
 293 403 293 403 360 497 c 0,2,3
 392 543 392 543 446.5 571.5 c 128,-1,4
 501 600 501 600 562.5 600 c 128,-1,5
 624 600 624 600 645 594 c 1,6,7
 651 573 651 573 651 560 c 1,8,9
 699 592 699 592 759 592 c 0,10,11
 810 592 810 592 810 544 c 0,12,13
 810 514 810 514 787.5 423.5 c 128,-1,14
 765 333 765 333 765 278 c 0,15,16
 765 198 765 198 816 198 c 0,17,18
 875 198 875 198 914 256 c 128,-1,19
 953 314 953 314 953 413 c 0,20,21
 953 530 953 530 874 616 c 1,22,23
 833 659 833 659 761 684.5 c 128,-1,24
 689 710 689 710 592 710 c 128,-1,25
 495 710 495 710 413.5 673 c 128,-1,26
 332 636 332 636 280 576 c 128,-1,27
 228 516 228 516 199.5 441 c 128,-1,28
 171 366 171 366 171 278.5 c 128,-1,29
 171 191 171 191 200.5 119.5 c 128,-1,30
 230 48 230 48 284 6 c 0,31,32
 389 -74 389 -74 558 -74 c 0,33,34
 778 -74 778 -74 917 65 c 1,35,36
 937 17 937 17 937 -21 c 0,37,38
 937 -83 937 -83 880 -133 c 128,-1,39
 823 -183 823 -183 732.5 -209 c 128,-1,40
 642 -235 642 -235 545 -235 c 128,-1,41
 448 -235 448 -235 366 -208 c 128,-1,42
 284 -181 284 -181 214 -126 c 128,-1,43
 144 -71 144 -71 102 25.5 c 128,-1,44
 60 122 60 122 60 237 c 128,-1,45
 60 352 60 352 95 449 c 128,-1,46
 130 546 130 546 196.5 625 c 128,-1,47
 263 704 263 704 370.5 752 c 128,-1,48
 478 800 478 800 596.5 800 c 128,-1,49
 715 800 715 800 800.5 767.5 c 128,-1,50
 886 735 886 735 940 681 c 0,51,52
 1050 569 1050 569 1050 420 c 0,53,54
 1050 333 1050 333 1017 256.5 c 128,-1,55
 984 180 984 180 912 128.5 c 128,-1,56
 840 77 840 77 743 77 c 0,57,58
 678 77 678 77 643.5 111.5 c 128,-1,59
 609 146 609 146 602 199 c 1,60,-1
 594 203 l 1,61,62
 566 153 566 153 523.5 126.5 c 128,-1,63
 481 100 481 100 436 100 c 0,64,65
 376 100 376 100 334.5 148.5 c 128,-1,66
 293 197 293 197 293 288 c 0,0,1
603 287 m 1,67,68
 616 412 616 412 643 511 c 1,69,70
 557 503 557 503 510.5 457.5 c 128,-1,71
 464 412 464 412 464 348 c 0,72,73
 464 310 464 310 483.5 285.5 c 128,-1,74
 503 261 503 261 539 261 c 128,-1,75
 575 261 575 261 603 287 c 1,67,68
EndSplineSet
EndChar

StartChar: A
Encoding: 65 65 36
Width: 729
GlyphClass: 2
Flags: W
LayerCount: 2
Fore
SplineSet
635 578 m 1,0,-1
 627 340 l 1,1,2
 627 217 627 217 647.5 133 c 128,-1,3
 668 49 668 49 724 17 c 1,4,5
 655 -26 655 -26 584 -26 c 0,6,7
 459 -26 459 -26 430 176 c 1,8,-1
 226 176 l 1,9,10
 207 111 207 111 207 76.5 c 128,-1,11
 207 42 207 42 215 21 c 1,12,13
 141 -26 141 -26 83 -26 c 0,14,15
 -6 -26 -6 -26 -6 82 c 0,16,17
 -6 136 -6 136 27.5 218 c 128,-1,18
 61 300 61 300 116.5 406 c 128,-1,19
 172 512 172 512 187 546 c 1,20,21
 176 600 176 600 162 652 c 1,22,23
 214 688 214 688 262.5 706.5 c 128,-1,24
 311 725 311 725 367.5 725 c 128,-1,25
 424 725 424 725 446 700 c 1,26,27
 503 725 503 725 540 725 c 128,-1,28
 577 725 577 725 595 713 c 128,-1,29
 613 701 613 701 621 678 c 0,30,31
 635 638 635 638 635 578 c 1,0,-1
434 555 m 1,32,-1
 402 555 l 1,33,34
 312 381 312 381 268 281 c 1,35,-1
 423 281 l 1,36,37
 423 390 423 390 434 555 c 1,32,-1
EndSplineSet
EndChar

StartChar: B
Encoding: 66 66 37
Width: 757
GlyphClass: 2
Flags: W
LayerCount: 2
Fore
SplineSet
88 11.5 m 128,-1,1
 60 49 60 49 60 123.5 c 128,-1,2
 60 198 60 198 123 546 c 1,3,-1
 70 653 l 1,4,5
 183 726 183 726 276 726 c 0,6,7
 338 726 338 726 350 666 c 1,8,9
 453 725 453 725 552 725 c 0,10,11
 617 725 617 725 666 695 c 0,12,13
 724 660 724 660 724 574 c 0,14,15
 724 432 724 432 567 368 c 1,16,17
 727 340 727 340 727 189 c 0,18,19
 727 91 727 91 646 33 c 128,-1,20
 565 -25 565 -25 464.5 -25 c 128,-1,21
 364 -25 364 -25 303 17 c 1,22,23
 244 -26 244 -26 180 -26 c 128,-1,0
 116 -26 116 -26 88 11.5 c 128,-1,1
468.5 280 m 128,-1,25
 441 302 441 302 395 302 c 128,-1,26
 349 302 349 302 292 283 c 1,27,28
 276 198 276 198 276 138 c 1,29,30
 325 115 325 115 378 115 c 128,-1,31
 431 115 431 115 463.5 140 c 128,-1,32
 496 165 496 165 496 211.5 c 128,-1,24
 496 258 496 258 468.5 280 c 128,-1,25
431 593 m 0,33,34
 392 593 392 593 347 578 c 1,35,36
 341 539 341 539 310 378 c 1,37,38
 393 384 393 384 451 418.5 c 128,-1,39
 509 453 509 453 509 518 c 0,40,41
 509 593 509 593 431 593 c 0,33,34
EndSplineSet
EndChar

StartChar: C
Encoding: 67 67 38
Width: 683
GlyphClass: 2
Flags: W
LayerCount: 2
Fore
SplineSet
30 307 m 0,0,1
 30 377 30 377 60 449.5 c 128,-1,2
 90 522 90 522 145 584 c 128,-1,3
 200 646 200 646 288.5 685.5 c 128,-1,4
 377 725 377 725 471.5 725 c 128,-1,5
 566 725 566 725 619.5 690 c 128,-1,6
 673 655 673 655 673 593 c 128,-1,7
 673 531 673 531 632.5 496.5 c 128,-1,8
 592 462 592 462 540 462 c 128,-1,9
 488 462 488 462 446.5 484.5 c 128,-1,10
 405 507 405 507 380 549 c 1,11,12
 326 523 326 523 287 447 c 128,-1,13
 248 371 248 371 248 294.5 c 128,-1,14
 248 218 248 218 273 173.5 c 128,-1,15
 298 129 298 129 344 129 c 128,-1,16
 390 129 390 129 425.5 176 c 128,-1,17
 461 223 461 223 461 289 c 1,18,19
 562 289 562 289 605.5 273 c 128,-1,20
 649 257 649 257 649 204 c 0,21,22
 649 121 649 121 559 48 c 128,-1,23
 469 -25 469 -25 333 -25 c 128,-1,24
 197 -25 197 -25 113.5 59 c 128,-1,25
 30 143 30 143 30 307 c 0,0,1
EndSplineSet
EndChar

StartChar: D
Encoding: 68 68 39
Width: 776
GlyphClass: 2
Flags: W
LayerCount: 2
Fore
SplineSet
60 163 m 0,0,1
 60 220 60 220 87 364 c 128,-1,2
 114 508 114 508 120 546 c 1,3,-1
 67 653 l 1,4,5
 194 725 194 725 283 725 c 0,6,7
 327 725 327 725 349 695 c 1,8,9
 432 724 432 724 502 724 c 0,10,11
 632 724 632 724 704 639.5 c 128,-1,12
 776 555 776 555 776 429 c 0,13,14
 776 263 776 263 654 124 c 0,15,16
 595 57 595 57 498.5 16 c 128,-1,17
 402 -25 402 -25 292 -25 c 128,-1,18
 182 -25 182 -25 121 23.5 c 128,-1,19
 60 72 60 72 60 163 c 0,0,1
272 125 m 1,20,21
 293 121 293 121 319 121 c 0,22,23
 428 121 428 121 489 199.5 c 128,-1,24
 550 278 550 278 550 393 c 0,25,26
 550 486 550 486 508 541 c 128,-1,27
 466 596 466 596 387 596 c 0,28,29
 375 596 375 596 347 592 c 1,30,31
 340 541 340 541 310.5 364.5 c 128,-1,32
 281 188 281 188 272 125 c 1,20,21
EndSplineSet
EndChar

StartChar: E
Encoding: 69 69 40
Width: 619
GlyphClass: 2
Flags: W
LayerCount: 2
Fore
SplineSet
88 11.5 m 128,-1,1
 60 49 60 49 60 123.5 c 128,-1,2
 60 198 60 198 123 546 c 1,3,-1
 70 653 l 1,4,5
 183 726 183 726 276 726 c 0,6,7
 335 726 335 726 349 670 c 1,8,9
 462 673 462 673 631 721 c 1,10,11
 639 688 639 688 639 656 c 0,12,13
 639 575 639 575 585.5 534 c 128,-1,14
 532 493 532 493 448 493 c 0,15,16
 391 493 391 493 336 517 c 1,17,18
 328 472 328 472 308 370 c 1,19,20
 345 363 345 363 371 363 c 1,21,22
 412 371 412 371 461 386 c 1,23,24
 466 369 466 369 466 330.5 c 128,-1,25
 466 292 466 292 435 269 c 128,-1,26
 404 246 404 246 365.5 246 c 128,-1,27
 327 246 327 246 287 255 c 1,28,29
 276 192 276 192 276 136 c 1,30,-1
 438 136 l 1,31,32
 514 147 514 147 591 175 c 1,33,34
 597 157 597 157 597 126 c 0,35,36
 597 67 597 67 562.5 21 c 128,-1,37
 528 -25 528 -25 467 -25 c 0,38,39
 435 -25 435 -25 373.5 -12.5 c 128,-1,40
 312 0 312 0 282 3 c 1,41,42
 234 -26 234 -26 175 -26 c 128,-1,0
 116 -26 116 -26 88 11.5 c 128,-1,1
EndSplineSet
EndChar

StartChar: F
Encoding: 70 70 41
Width: 589
GlyphClass: 2
Flags: W
LayerCount: 2
Fore
SplineSet
88 11.5 m 128,-1,1
 60 49 60 49 60 123.5 c 128,-1,2
 60 198 60 198 123 546 c 1,3,-1
 70 653 l 1,4,5
 183 726 183 726 276 726 c 0,6,7
 335 726 335 726 349 670 c 1,8,9
 451 673 451 673 621 721 c 1,10,11
 629 676 629 676 629 645 c 0,12,13
 629 581 629 581 580.5 544.5 c 128,-1,14
 532 508 532 508 468 508 c 128,-1,15
 404 508 404 508 340 539 c 1,16,17
 340 539 340 539 331 490 c 0,18,19
 324 451 324 451 308 371 c 1,20,21
 342 363 342 363 372 363 c 1,22,23
 413 371 413 371 462 386 c 1,24,25
 467 369 467 369 467 330.5 c 128,-1,26
 467 292 467 292 436 269 c 128,-1,27
 405 246 405 246 366 246 c 128,-1,28
 327 246 327 246 287 255 c 1,29,30
 276 192 276 192 276 164 c 0,31,32
 276 67 276 67 306 19 c 1,33,34
 246 -26 246 -26 181 -26 c 128,-1,0
 116 -26 116 -26 88 11.5 c 128,-1,1
EndSplineSet
EndChar

StartChar: G
Encoding: 71 71 42
Width: 722
GlyphClass: 2
Flags: W
LayerCount: 2
Fore
SplineSet
488 192 m 1,0,-1
 437 297 l 1,1,2
 544 368 544 368 630 368 c 0,3,4
 702 368 702 368 702 287 c 0,5,6
 702 264 702 264 674.5 146.5 c 128,-1,7
 647 29 647 29 647 -33 c 128,-1,8
 647 -95 647 -95 674 -125 c 1,9,10
 618 -166 618 -166 557 -166 c 128,-1,11
 496 -166 496 -166 470.5 -126 c 128,-1,12
 445 -86 445 -86 445 -9 c 1,13,14
 391 -25 391 -25 333 -25 c 0,15,16
 197 -25 197 -25 113.5 59 c 128,-1,17
 30 143 30 143 30 307 c 0,18,19
 30 377 30 377 60 449.5 c 128,-1,20
 90 522 90 522 145 584 c 128,-1,21
 200 646 200 646 288.5 685.5 c 128,-1,22
 377 725 377 725 471.5 725 c 128,-1,23
 566 725 566 725 619.5 690 c 128,-1,24
 673 655 673 655 673 593 c 128,-1,25
 673 531 673 531 632.5 496.5 c 128,-1,26
 592 462 592 462 540 462 c 128,-1,27
 488 462 488 462 446.5 484.5 c 128,-1,28
 405 507 405 507 380 549 c 1,29,30
 326 523 326 523 287 447 c 128,-1,31
 248 371 248 371 248 288 c 128,-1,32
 248 205 248 205 280.5 163.5 c 128,-1,33
 313 122 313 122 362 122 c 0,34,35
 433 122 433 122 488 192 c 1,0,-1
EndSplineSet
EndChar

StartChar: H
Encoding: 72 72 43
Width: 824
GlyphClass: 2
Flags: W
LayerCount: 2
Fore
SplineSet
501 129 m 0,0,1
 501 171 501 171 515 267 c 1,2,-1
 289 267 l 1,3,4
 276 192 276 192 276 164 c 0,5,6
 276 67 276 67 306 19 c 1,7,8
 246 -26 246 -26 181 -26 c 128,-1,9
 116 -26 116 -26 88 11.5 c 128,-1,10
 60 49 60 49 60 123.5 c 128,-1,11
 60 198 60 198 123 546 c 1,12,-1
 70 653 l 1,13,14
 183 726 183 726 276 726 c 0,15,16
 353 726 353 726 353 632 c 0,17,18
 353 604 353 604 311 386 c 1,19,-1
 535 386 l 1,20,21
 539 411 539 411 564 546 c 1,22,-1
 511 653 l 1,23,24
 624 726 624 726 717 726 c 0,25,26
 794 726 794 726 794 632 c 0,27,28
 794 601 794 601 755.5 401.5 c 128,-1,29
 717 202 717 202 717 164 c 0,30,31
 717 67 717 67 747 19 c 1,32,33
 687 -26 687 -26 622 -26 c 128,-1,34
 557 -26 557 -26 529 11.5 c 128,-1,35
 501 49 501 49 501 129 c 0,0,1
EndSplineSet
EndChar

StartChar: I
Encoding: 73 73 44
Width: 388
GlyphClass: 2
Flags: W
LayerCount: 2
Fore
SplineSet
93 11.5 m 128,-1,1
 65 49 65 49 65 123.5 c 128,-1,2
 65 198 65 198 128 546 c 1,3,-1
 75 653 l 1,4,5
 188 726 188 726 281 726 c 0,6,7
 358 726 358 726 358 632 c 0,8,9
 358 601 358 601 319.5 401.5 c 128,-1,10
 281 202 281 202 281 164 c 0,11,12
 281 67 281 67 311 19 c 1,13,14
 251 -26 251 -26 186 -26 c 128,-1,0
 121 -26 121 -26 93 11.5 c 128,-1,1
EndSplineSet
EndChar

StartChar: J
Encoding: 74 74 45
Width: 553
GlyphClass: 2
Flags: W
LayerCount: 2
Fore
SplineSet
302 489 m 1,0,1
 161 489 161 489 96.5 520 c 128,-1,2
 32 551 32 551 32 636 c 0,3,4
 32 666 32 666 42 721 c 1,5,6
 111 692 111 692 206 674.5 c 128,-1,7
 301 657 301 657 355 657 c 1,8,9
 393 724 393 724 460 724 c 0,10,11
 504 724 504 724 528.5 696.5 c 128,-1,12
 553 669 553 669 553 626.5 c 128,-1,13
 553 584 553 584 520 547 c 1,14,-1
 485 260 l 2,15,16
 476 183 476 183 445.5 122 c 128,-1,17
 415 61 415 61 373 26 c 0,18,19
 288 -45 288 -45 198 -45 c 128,-1,20
 108 -45 108 -45 54 -5.5 c 128,-1,21
 0 34 0 34 0 90.5 c 128,-1,22
 0 147 0 147 33 179.5 c 128,-1,23
 66 212 66 212 110.5 212 c 128,-1,24
 155 212 155 212 193 181 c 128,-1,25
 231 150 231 150 251 88 c 1,26,-1
 276 108 l 1,27,28
 249 183 249 183 249 228 c 0,29,30
 249 253 249 253 268 343 c 128,-1,31
 287 433 287 433 302 489 c 1,0,1
EndSplineSet
EndChar

StartChar: K
Encoding: 75 75 46
Width: 720
GlyphClass: 2
Flags: W
LayerCount: 2
Fore
SplineSet
88 11.5 m 128,-1,1
 60 49 60 49 60 123.5 c 128,-1,2
 60 198 60 198 123 546 c 1,3,-1
 70 653 l 1,4,5
 183 726 183 726 276 726 c 0,6,7
 353 726 353 726 353 632 c 0,8,9
 353 604 353 604 311 386 c 1,10,-1
 358 425 l 2,11,12
 504 547 504 547 504 633 c 0,13,14
 504 659 504 659 496 680 c 1,15,16
 570 725 570 725 636 725 c 0,17,18
 734 725 734 725 734 625 c 0,19,20
 734 513 734 513 535 398 c 1,21,22
 628 100 628 100 736 30 c 1,23,24
 714 8 714 8 670.5 -8.5 c 128,-1,25
 627 -25 627 -25 593 -25 c 0,26,27
 525 -25 525 -25 484 10 c 128,-1,28
 443 45 443 45 410 139 c 2,29,-1
 352 302 l 1,30,-1
 290 269 l 1,31,32
 276 187 276 187 276 164 c 0,33,34
 276 67 276 67 306 19 c 1,35,36
 246 -26 246 -26 181 -26 c 128,-1,0
 116 -26 116 -26 88 11.5 c 128,-1,1
EndSplineSet
EndChar

StartChar: L
Encoding: 76 76 47
Width: 549
GlyphClass: 2
Flags: W
LayerCount: 2
Fore
SplineSet
88 11.5 m 128,-1,1
 60 49 60 49 60 123.5 c 128,-1,2
 60 198 60 198 123 546 c 1,3,-1
 70 653 l 1,4,5
 183 726 183 726 276 726 c 0,6,7
 353 726 353 726 353 632 c 0,8,9
 353 604 353 604 314.5 398 c 128,-1,10
 276 192 276 192 276 136 c 1,11,-1
 384 136 l 1,12,13
 460 147 460 147 537 175 c 1,14,15
 543 157 543 157 543 126 c 0,16,17
 543 67 543 67 508.5 21 c 128,-1,18
 474 -25 474 -25 413 -25 c 0,19,20
 372 -25 372 -25 271 -3 c 1,21,22
 229 -26 229 -26 182 -26 c 0,23,0
 116 -26 116 -26 88 11.5 c 128,-1,1
EndSplineSet
EndChar

StartChar: M
Encoding: 77 77 48
Width: 1036
GlyphClass: 2
Flags: W
LayerCount: 2
Fore
SplineSet
738 11.5 m 128,-1,1
 710 49 710 49 710 122 c 128,-1,2
 710 195 710 195 757 458 c 1,3,-1
 741 458 l 1,4,5
 680 378 680 378 640 267 c 128,-1,6
 600 156 600 156 591 67 c 1,7,8
 542 21 542 21 478 21 c 0,9,10
 452 21 452 21 432.5 39.5 c 128,-1,11
 413 58 413 58 394 104 c 0,12,13
 357 197 357 197 341 458 c 1,14,-1
 325 458 l 1,15,16
 276 243 276 243 276 155 c 128,-1,17
 276 67 276 67 306 19 c 1,18,19
 246 -26 246 -26 181 -26 c 128,-1,20
 116 -26 116 -26 88 11.5 c 128,-1,21
 60 49 60 49 60 123.5 c 128,-1,22
 60 198 60 198 123 546 c 1,23,-1
 70 653 l 1,24,25
 183 726 183 726 276 726 c 0,26,27
 317 726 317 726 345.5 717.5 c 128,-1,28
 374 709 374 709 400.5 685 c 128,-1,29
 427 661 427 661 444 618 c 0,30,31
 483 521 483 521 500 335 c 1,32,-1
 512 335 l 1,33,34
 564 488 564 488 656 598 c 0,35,36
 706 657 706 657 775.5 691 c 128,-1,37
 845 725 845 725 926 725 c 0,38,39
 1003 725 1003 725 1003 632 c 0,40,41
 1003 601 1003 601 964.5 401.5 c 128,-1,42
 926 202 926 202 926 164 c 0,43,44
 926 67 926 67 956 19 c 1,45,46
 896 -26 896 -26 831 -26 c 128,-1,0
 766 -26 766 -26 738 11.5 c 128,-1,1
EndSplineSet
EndChar

StartChar: N
Encoding: 78 78 49
Width: 870
GlyphClass: 2
Flags: W
LayerCount: 2
Fore
SplineSet
578 157 m 1,0,-1
 602 173 l 1,1,2
 537 298 537 298 537 447 c 0,3,4
 537 563 537 563 594.5 644 c 128,-1,5
 652 725 652 725 757 725 c 0,6,7
 812 725 812 725 850 706 c 1,8,9
 840 650 840 650 814 511 c 0,10,11
 758 212 758 212 758 168 c 0,12,13
 758 73 758 73 790 26 c 1,14,15
 746 -3 746 -3 709 -14 c 128,-1,16
 672 -25 672 -25 613.5 -25 c 128,-1,17
 555 -25 555 -25 507.5 0 c 128,-1,18
 460 25 460 25 429.5 66.5 c 128,-1,19
 399 108 399 108 378 169 c 0,20,21
 341 276 341 276 333 441 c 1,22,-1
 317 441 l 1,23,24
 271 233 271 233 271 150 c 128,-1,25
 271 67 271 67 301 19 c 1,26,27
 241 -26 241 -26 176 -26 c 128,-1,28
 111 -26 111 -26 83 11.5 c 128,-1,29
 55 49 55 49 55 123.5 c 128,-1,30
 55 198 55 198 118 546 c 1,31,-1
 65 653 l 1,32,33
 177 725 177 725 265 725 c 128,-1,34
 353 725 353 725 398 694.5 c 128,-1,35
 443 664 443 664 461 605 c 128,-1,36
 479 546 479 546 487.5 480.5 c 128,-1,37
 496 415 496 415 517.5 323 c 128,-1,38
 539 231 539 231 578 157 c 1,0,-1
EndSplineSet
EndChar

StartChar: O
Encoding: 79 79 50
Width: 774
GlyphClass: 2
Flags: W
LayerCount: 2
Fore
SplineSet
25 306 m 0,0,1
 25 496 25 496 131 610.5 c 128,-1,2
 237 725 237 725 421 725 c 0,3,4
 480 725 480 725 505.5 701.5 c 128,-1,5
 531 678 531 678 531 629 c 0,6,7
 531 622 531 622 529 602 c 1,8,9
 566 632 566 632 611 632 c 0,10,11
 672 632 672 632 715.5 577.5 c 128,-1,12
 759 523 759 523 759 420 c 128,-1,13
 759 317 759 317 726 231 c 128,-1,14
 693 145 693 145 638.5 90 c 128,-1,15
 584 35 584 35 514.5 5 c 128,-1,16
 445 -25 445 -25 371 -25 c 0,17,18
 211 -25 211 -25 118 66.5 c 128,-1,19
 25 158 25 158 25 306 c 0,0,1
524 259 m 1,20,21
 460 337 460 337 460 427 c 128,-1,22
 460 517 460 517 500 572 c 1,23,24
 482 575 482 575 464 575 c 0,25,26
 393 575 393 575 341 532 c 0,27,28
 243 452 243 452 243 310 c 0,29,30
 243 229 243 229 279 175 c 128,-1,31
 315 121 315 121 379 121 c 0,32,33
 428 121 428 121 468.5 159.5 c 128,-1,34
 509 198 509 198 524 259 c 1,20,21
EndSplineSet
EndChar

StartChar: P
Encoding: 80 80 51
Width: 717
GlyphClass: 2
Flags: W
LayerCount: 2
Fore
SplineSet
282 219 m 1,0,1
 276 183 276 183 276 164 c 0,2,3
 276 67 276 67 306 19 c 1,4,5
 246 -26 246 -26 181 -26 c 128,-1,6
 116 -26 116 -26 88 11.5 c 128,-1,7
 60 49 60 49 60 123.5 c 128,-1,8
 60 198 60 198 123 546 c 1,9,-1
 70 653 l 1,10,11
 183 726 183 726 276 726 c 0,12,13
 302 726 302 726 333 716.5 c 128,-1,14
 364 707 364 707 377 695 c 1,15,16
 451 724 451 724 514 724 c 0,17,18
 608 724 608 724 662.5 658.5 c 128,-1,19
 717 593 717 593 717 500 c 0,20,21
 717 388 717 388 636 300 c 0,22,23
 597 257 597 257 531 231 c 128,-1,24
 465 205 465 205 396.5 205 c 128,-1,25
 328 205 328 205 282 219 c 1,0,1
301 333 m 1,26,27
 315 330 315 330 330 330 c 0,28,29
 394 330 394 330 444 375 c 128,-1,30
 494 420 494 420 494 486 c 0,31,32
 494 532 494 532 467.5 564 c 128,-1,33
 441 596 441 596 393 596 c 0,34,35
 373 596 373 596 347 588 c 1,36,37
 327 451 327 451 301 333 c 1,26,27
EndSplineSet
EndChar

StartChar: Q
Encoding: 81 81 52
Width: 774
GlyphClass: 2
Flags: W
LayerCount: 2
Fore
SplineSet
25 306 m 0,0,1
 25 496 25 496 131 610.5 c 128,-1,2
 237 725 237 725 421 725 c 0,3,4
 480 725 480 725 505.5 701.5 c 128,-1,5
 531 678 531 678 531 629 c 0,6,7
 531 622 531 622 529 602 c 1,8,9
 566 632 566 632 611 632 c 0,10,11
 672 632 672 632 715.5 577.5 c 128,-1,12
 759 523 759 523 759 421 c 0,13,14
 759 239 759 239 666.5 123 c 128,-1,15
 574 7 574 7 438 -18 c 1,16,-1
 438 -24 l 1,17,18
 498 -32 498 -32 530 -32 c 0,19,20
 628 -32 628 -32 709 -2 c 1,21,22
 720 -32 720 -32 720 -68 c 0,23,24
 720 -128 720 -128 683 -168.5 c 128,-1,25
 646 -209 646 -209 575 -209 c 0,26,27
 443 -209 443 -209 260 -104 c 1,28,29
 212 -169 212 -169 137 -169 c 0,30,31
 98 -169 98 -169 76 -143.5 c 128,-1,32
 54 -118 54 -118 54 -82 c 128,-1,33
 54 -46 54 -46 85.5 -16 c 128,-1,34
 117 14 117 14 175 14 c 1,35,-1
 175 22 l 1,36,37
 102 64 102 64 63.5 137.5 c 128,-1,38
 25 211 25 211 25 306 c 0,0,1
524 259 m 1,39,40
 460 337 460 337 460 427 c 128,-1,41
 460 517 460 517 500 572 c 1,42,43
 482 575 482 575 464 575 c 0,44,45
 393 575 393 575 341 532 c 0,46,47
 243 452 243 452 243 310 c 0,48,49
 243 229 243 229 279 175 c 128,-1,50
 315 121 315 121 379 121 c 0,51,52
 428 121 428 121 468.5 159.5 c 128,-1,53
 509 198 509 198 524 259 c 1,39,40
EndSplineSet
EndChar

StartChar: R
Encoding: 82 82 53
Width: 733
GlyphClass: 2
Flags: W
LayerCount: 2
Fore
SplineSet
427 139 m 2,0,-1
 392 240 l 1,1,2
 340 240 340 240 287 256 c 1,3,4
 276 192 276 192 276 164 c 0,5,6
 276 67 276 67 306 19 c 1,7,8
 246 -26 246 -26 181 -26 c 128,-1,9
 116 -26 116 -26 88 11.5 c 128,-1,10
 60 49 60 49 60 123.5 c 128,-1,11
 60 198 60 198 123 546 c 1,12,-1
 70 653 l 1,13,14
 182 725 182 725 276 725 c 0,15,16
 348 725 348 725 387 695 c 1,17,18
 462 725 462 725 522 725 c 0,19,20
 614 725 614 725 668 663 c 128,-1,21
 722 601 722 601 722 514 c 0,22,23
 722 449 722 449 689 388.5 c 128,-1,24
 656 328 656 328 592 290 c 1,25,26
 626 193 626 193 668.5 123 c 128,-1,27
 711 53 711 53 753 30 c 1,28,29
 732 8 732 8 688.5 -8.5 c 128,-1,30
 645 -25 645 -25 610 -25 c 0,31,32
 542 -25 542 -25 501 9.5 c 128,-1,33
 460 44 460 44 427 139 c 2,0,-1
331 365 m 0,34,35
 411 365 411 365 455.5 406 c 128,-1,36
 500 447 500 447 500 494 c 128,-1,37
 500 541 500 541 474 569 c 128,-1,38
 448 597 448 597 400 597 c 0,39,40
 374 597 374 597 348 590 c 1,41,42
 316 399 316 399 308 366 c 1,43,44
 315 365 315 365 331 365 c 0,34,35
EndSplineSet
EndChar

StartChar: S
Encoding: 83 83 54
Width: 688
GlyphClass: 2
Flags: W
LayerCount: 2
Fore
SplineSet
414 725 m 0,0,1
 546 725 546 725 612 694.5 c 128,-1,2
 678 664 678 664 678 597.5 c 128,-1,3
 678 531 678 531 637.5 496.5 c 128,-1,4
 597 462 597 462 545 462 c 128,-1,5
 493 462 493 462 451.5 488.5 c 128,-1,6
 410 515 410 515 394 559 c 1,7,8
 357 559 357 559 323.5 534.5 c 128,-1,9
 290 510 290 510 281 471 c 1,10,11
 479 423 479 423 565 359 c 128,-1,12
 651 295 651 295 651 195 c 128,-1,13
 651 95 651 95 560.5 35 c 128,-1,14
 470 -25 470 -25 316.5 -25 c 128,-1,15
 163 -25 163 -25 99 17 c 128,-1,16
 35 59 35 59 35 128 c 128,-1,17
 35 197 35 197 78 255 c 1,18,19
 99 210 99 210 158.5 174 c 128,-1,20
 218 138 218 138 276 138 c 0,21,22
 383 138 383 138 412 206 c 1,23,24
 246 228 246 228 159 298.5 c 128,-1,25
 72 369 72 369 72 469 c 0,26,27
 72 536 72 536 108 588.5 c 128,-1,28
 144 641 144 641 200 669 c 0,29,30
 310 725 310 725 414 725 c 0,0,1
EndSplineSet
EndChar

StartChar: T
Encoding: 84 84 55
Width: 595
GlyphClass: 2
Flags: W
LayerCount: 2
Fore
SplineSet
13 552 m 0,0,1
 13 633 13 633 55 674 c 128,-1,2
 97 715 97 715 155.5 715 c 128,-1,3
 214 715 214 715 315 695 c 128,-1,4
 416 675 416 675 467 674 c 1,5,6
 552 690 552 690 629 713 c 1,7,8
 637 687 637 687 637 648 c 0,9,10
 637 567 637 567 590.5 526 c 128,-1,11
 544 485 544 485 472 485 c 0,12,13
 454 485 454 485 424 487 c 1,14,15
 369 198 369 198 369 164 c 0,16,17
 369 67 369 67 399 19 c 1,18,19
 339 -26 339 -26 274 -26 c 128,-1,20
 209 -26 209 -26 181 11.5 c 128,-1,21
 153 49 153 49 153 123.5 c 128,-1,22
 153 198 153 198 211 521 c 1,23,24
 98 506 98 506 21 487 c 1,25,26
 13 512 13 512 13 552 c 0,0,1
EndSplineSet
EndChar

StartChar: U
Encoding: 85 85 56
Width: 827
GlyphClass: 2
Flags: W
LayerCount: 2
Fore
SplineSet
745 19 m 1,0,1
 685 -26 685 -26 627 -26 c 128,-1,2
 569 -26 569 -26 535 4 c 128,-1,3
 501 34 501 34 501 94 c 0,4,5
 501 111 501 111 502 120 c 1,6,-1
 492 123 l 1,7,8
 393 -25 393 -25 226 -25 c 0,9,10
 65 -25 65 -25 65 145 c 0,11,12
 65 202 65 202 81 296.5 c 128,-1,13
 97 391 97 391 108.5 456.5 c 128,-1,14
 120 522 120 522 124 546 c 1,15,-1
 71 653 l 1,16,17
 134 689 134 689 180.5 707 c 128,-1,18
 227 725 227 725 274 725 c 128,-1,19
 321 725 321 725 337.5 700.5 c 128,-1,20
 354 676 354 676 354 642 c 128,-1,21
 354 608 354 608 320.5 424 c 128,-1,22
 287 240 287 240 287 209 c 0,23,24
 287 130 287 130 341 130 c 0,25,26
 381 130 381 130 432 181 c 128,-1,27
 483 232 483 232 515 321 c 1,28,29
 494 382 494 382 494 447 c 0,30,31
 494 563 494 563 551.5 644 c 128,-1,32
 609 725 609 725 714 725 c 0,33,34
 772 725 772 725 807 706 c 1,35,36
 798 652 798 652 772 510 c 0,37,38
 715 209 715 209 715 164 c 0,39,40
 715 67 715 67 745 19 c 1,0,1
EndSplineSet
EndChar

StartChar: V
Encoding: 86 86 57
Width: 728
GlyphClass: 2
Flags: W
LayerCount: 2
Fore
SplineSet
336 326 m 1,0,-1
 333 158 l 1,1,-1
 359 158 l 1,2,3
 415 277 415 277 462 412.5 c 128,-1,4
 509 548 509 548 509 619 c 0,5,6
 509 647 509 647 498 673 c 1,7,8
 574 725 574 725 638 725 c 0,9,10
 738 725 738 725 738 612 c 0,11,12
 738 556 738 556 707.5 470.5 c 128,-1,13
 677 385 677 385 617 256.5 c 128,-1,14
 557 128 557 128 553 118 c 1,15,-1
 567 63 l 1,16,17
 521 26 521 26 449 0.5 c 128,-1,18
 377 -25 377 -25 290 -25 c 128,-1,19
 203 -25 203 -25 161 3 c 128,-1,20
 119 31 119 31 119 97 c 2,21,-1
 120 281 l 1,22,23
 120 510 120 510 64 604 c 0,24,25
 38 647 38 647 0 673 c 1,26,27
 68 725 68 725 156 725 c 0,28,29
 236 725 236 725 275 662.5 c 128,-1,30
 314 600 314 600 326 513 c 0,31,32
 336 434 336 434 336 326 c 1,0,-1
EndSplineSet
EndChar

StartChar: W
Encoding: 87 87 58
Width: 1018
GlyphClass: 2
Flags: W
LayerCount: 2
Fore
SplineSet
626 399 m 1,0,-1
 623 158 l 1,1,-1
 649 158 l 1,2,3
 705 277 705 277 752 412.5 c 128,-1,4
 799 548 799 548 799 619 c 0,5,6
 799 647 799 647 788 673 c 1,7,8
 864 725 864 725 928 725 c 0,9,10
 1028 725 1028 725 1028 612 c 0,11,12
 1028 556 1028 556 997.5 470.5 c 128,-1,13
 967 385 967 385 907 256.5 c 128,-1,14
 847 128 847 128 843 118 c 1,15,-1
 857 63 l 1,16,17
 771 -25 771 -25 642 -25 c 128,-1,18
 513 -25 513 -25 479 22 c 1,19,20
 395 -25 395 -25 299 -25 c 128,-1,21
 203 -25 203 -25 161 3 c 128,-1,22
 119 31 119 31 119 97 c 2,23,-1
 120 281 l 1,24,25
 120 510 120 510 64 604 c 0,26,27
 38 647 38 647 0 673 c 1,28,29
 68 725 68 725 156 725 c 0,30,31
 236 725 236 725 275 662.5 c 128,-1,32
 314 600 314 600 326 513 c 0,33,34
 336 434 336 434 336 326 c 1,35,-1
 333 158 l 1,36,-1
 359 158 l 1,37,38
 416 282 416 282 455 452 c 1,39,40
 445 548 445 548 411 645 c 1,41,42
 448 674 448 674 480 686.5 c 128,-1,43
 512 699 512 699 565 699 c 0,44,45
 674 699 674 699 674 598 c 0,46,47
 674 538 674 538 626 399 c 1,0,-1
EndSplineSet
EndChar

StartChar: X
Encoding: 88 88 59
Width: 749
GlyphClass: 2
Flags: W
LayerCount: 2
Fore
SplineSet
564 -25 m 0,0,1
 497 -25 497 -25 458 10 c 128,-1,2
 419 45 419 45 363 150 c 2,3,-1
 321 228 l 1,4,5
 253 147 253 147 253 82 c 0,6,7
 253 50 253 50 262 27 c 1,8,9
 186 -25 186 -25 114 -25 c 0,10,11
 61 -25 61 -25 35.5 2 c 128,-1,12
 10 29 10 29 10 69 c 0,13,14
 10 188 10 188 249 363 c 1,15,-1
 160 531 l 2,16,17
 108 631 108 631 38 654 c 1,18,19
 106 725 106 725 199 725 c 0,20,21
 266 725 266 725 305 690 c 128,-1,22
 344 655 344 655 400 550 c 2,23,-1
 441 472 l 1,24,25
 511 552 511 552 511 618 c 0,26,27
 511 648 511 648 501 673 c 1,28,29
 578 725 578 725 650 725 c 0,30,31
 703 725 703 725 728.5 698 c 128,-1,32
 754 671 754 671 754 631 c 0,33,34
 754 505 754 505 516 331 c 1,35,-1
 603 169 l 1,36,37
 655 69 655 69 725 46 c 1,38,39
 657 -25 657 -25 564 -25 c 0,0,1
EndSplineSet
EndChar

StartChar: Y
Encoding: 89 89 60
Width: 672
GlyphClass: 2
Flags: W
LayerCount: 2
Fore
SplineSet
122 180 m 0,0,1
 121 200 121 200 118 264 c 128,-1,2
 115 328 115 328 112.5 361.5 c 128,-1,3
 110 395 110 395 101.5 453 c 128,-1,4
 93 511 93 511 80 546 c 0,5,6
 48 638 48 638 -10 678 c 1,7,8
 68 725 68 725 116.5 725 c 128,-1,9
 165 725 165 725 197 709 c 128,-1,10
 229 693 229 693 249.5 670.5 c 128,-1,11
 270 648 270 648 286 608 c 128,-1,12
 302 568 302 568 310 535 c 128,-1,13
 318 502 318 502 323.5 450 c 128,-1,14
 329 398 329 398 330.5 366 c 128,-1,15
 332 334 332 334 333.5 281.5 c 128,-1,16
 335 229 335 229 336 209 c 1,17,-1
 350 209 l 1,18,19
 389 302 389 302 421.5 422 c 128,-1,20
 454 542 454 542 454 613 c 0,21,22
 454 648 454 648 439 678 c 1,23,24
 514 725 514 725 572 725 c 0,25,26
 682 725 682 725 682 609 c 0,27,28
 682 550 682 550 637 411 c 128,-1,29
 592 272 592 272 531 142 c 0,30,31
 452 -27 452 -27 368.5 -102 c 128,-1,32
 285 -177 285 -177 154 -177 c 0,33,34
 96 -177 96 -177 49 -154 c 0,35,36
 -8 -127 -8 -127 -8 -63 c 128,-1,37
 -8 1 -8 1 41 69 c 1,38,39
 63 37 63 37 100 19.5 c 128,-1,40
 137 2 137 2 181.5 2 c 128,-1,41
 226 2 226 2 265.5 26.5 c 128,-1,42
 305 51 305 51 322 97 c 1,43,44
 269 84 269 84 225 84 c 0,45,46
 130 84 130 84 122 180 c 0,0,1
EndSplineSet
EndChar

StartChar: Z
Encoding: 90 90 61
Width: 674
GlyphClass: 2
Flags: W
LayerCount: 2
Fore
SplineSet
9.5 7.5 m 128,-1,1
 -20 35 -20 35 -20 85 c 128,-1,2
 -20 135 -20 135 18.5 176 c 128,-1,3
 57 217 57 217 125 217 c 1,4,-1
 317 473 l 1,5,6
 203 476 203 476 136 515.5 c 128,-1,7
 69 555 69 555 69 636 c 0,8,9
 69 674 69 674 79 721 c 1,10,11
 150 692 150 692 276.5 672.5 c 128,-1,12
 403 653 403 653 462 653 c 1,13,14
 503 724 503 724 574 724 c 0,15,16
 621 724 621 724 647.5 694.5 c 128,-1,17
 674 665 674 665 674 622 c 0,18,19
 674 554 674 554 590 515 c 1,20,-1
 334 195 l 1,21,-1
 510 176 l 1,22,-1
 631 231 l 1,23,24
 639 195 639 195 639 152 c 0,25,26
 639 64 639 64 594.5 19.5 c 128,-1,27
 550 -25 550 -25 480 -25 c 0,28,29
 345 -25 345 -25 220 54 c 1,30,31
 158 -20 158 -20 87 -20 c 0,32,0
 39 -20 39 -20 9.5 7.5 c 128,-1,1
EndSplineSet
EndChar

StartChar: bracketleft
Encoding: 91 91 62
Width: 481
GlyphClass: 2
Flags: W
LayerCount: 2
Fore
SplineSet
85 15 m 0,0,1
 85 231 85 231 163 584 c 0,2,3
 179 657 179 657 201.5 701 c 128,-1,4
 224 745 224 745 259.5 766.5 c 128,-1,5
 295 788 295 788 331 794 c 128,-1,6
 367 800 367 800 422 800 c 128,-1,7
 477 800 477 800 494 776 c 128,-1,8
 511 752 511 752 511 709 c 128,-1,9
 511 666 511 666 506 649 c 1,10,11
 491 656 491 656 447 662 c 128,-1,12
 403 668 403 668 376 668 c 1,13,14
 317 551 317 551 294 382.5 c 128,-1,15
 271 214 271 214 271 -25 c 1,16,17
 298 -25 298 -25 340 -19 c 128,-1,18
 382 -13 382 -13 397 -6 c 1,19,20
 405 -33 405 -33 405 -58 c 0,21,22
 405 -157 405 -157 337 -157 c 0,23,24
 260 -157 260 -157 226 -154 c 128,-1,25
 192 -151 192 -151 152.5 -135.5 c 128,-1,26
 113 -120 113 -120 99 -84 c 128,-1,27
 85 -48 85 -48 85 15 c 0,0,1
EndSplineSet
EndChar

StartChar: backslash
Encoding: 92 92 63
Width: 397
GlyphClass: 2
Flags: W
LayerCount: 2
Fore
SplineSet
216 23 m 0,0,1
 187 125 187 125 141 303 c 128,-1,2
 95 481 95 481 61.5 599.5 c 128,-1,3
 28 718 28 718 -20 789 c 1,4,5
 32 836 32 836 95.5 836 c 128,-1,6
 159 836 159 836 175 772 c 0,7,8
 179 758 179 758 235 520 c 128,-1,9
 291 282 291 282 333.5 133.5 c 128,-1,10
 376 -15 376 -15 417 -53 c 1,11,12
 376 -85 376 -85 327 -85 c 0,13,14
 246 -85 246 -85 216 23 c 0,0,1
EndSplineSet
EndChar

StartChar: bracketright
Encoding: 93 93 64
Width: 481
GlyphClass: 2
Flags: W
LayerCount: 2
Fore
SplineSet
396 628 m 0,0,1
 396 412 396 412 318 59 c 0,2,3
 302 -14 302 -14 279.5 -58 c 128,-1,4
 257 -102 257 -102 221.5 -123.5 c 128,-1,5
 186 -145 186 -145 150 -151 c 128,-1,6
 114 -157 114 -157 59 -157 c 128,-1,7
 4 -157 4 -157 -13 -133 c 128,-1,8
 -30 -109 -30 -109 -30 -66 c 128,-1,9
 -30 -23 -30 -23 -25 -6 c 1,10,11
 -10 -13 -10 -13 34 -19 c 128,-1,12
 78 -25 78 -25 105 -25 c 1,13,14
 164 92 164 92 187 260.5 c 128,-1,15
 210 429 210 429 210 668 c 1,16,17
 183 668 183 668 141 662 c 128,-1,18
 99 656 99 656 84 649 c 1,19,20
 79 666 79 666 79 708.5 c 128,-1,21
 79 751 79 751 93.5 775.5 c 128,-1,22
 108 800 108 800 144 800 c 0,23,24
 221 800 221 800 255 797 c 128,-1,25
 289 794 289 794 328.5 778.5 c 128,-1,26
 368 763 368 763 382 727 c 128,-1,27
 396 691 396 691 396 628 c 0,0,1
EndSplineSet
EndChar

StartChar: asciicircum
Encoding: 94 94 65
Width: 733
GlyphClass: 2
Flags: W
LayerCount: 2
Fore
SplineSet
468 959 m 1,0,1
 467 955 467 955 467 946 c 0,2,3
 467 899 467 899 496.5 831.5 c 128,-1,4
 526 764 526 764 561 708 c 0,5,6
 655 559 655 559 655 514 c 0,7,8
 655 478 655 478 599.5 450 c 128,-1,9
 544 422 544 422 487 422 c 0,10,11
 472 422 472 422 465 423 c 1,12,13
 465 492 465 492 431 582 c 0,14,15
 417 619 417 619 412.5 631 c 128,-1,16
 408 643 408 643 390 684.5 c 128,-1,17
 372 726 372 726 371 728 c 1,18,19
 352 695 352 695 313 605.5 c 128,-1,20
 274 516 274 516 243 461.5 c 128,-1,21
 212 407 212 407 189 407 c 0,22,23
 152 407 152 407 111.5 447 c 128,-1,24
 71 487 71 487 58 528 c 1,25,26
 96 555 96 555 144 634 c 0,27,28
 158 657 158 657 210.5 750 c 128,-1,29
 263 843 263 843 291.5 888 c 128,-1,30
 320 933 320 933 362 946 c 128,-1,31
 404 959 404 959 468 959 c 1,0,1
EndSplineSet
EndChar

StartChar: underscore
Encoding: 95 95 66
Width: 723
GlyphClass: 2
Flags: W
LayerCount: 2
Fore
SplineSet
179 -25 m 1,0,1
 179 -25 179 -25 395 -22 c 1,2,3
 509 -19 509 -19 624 -19 c 0,4,5
 708 -19 708 -19 708 -95 c 0,6,7
 708 -142 708 -142 688 -176 c 1,8,9
 646 -158 646 -158 547 -158 c 128,-1,10
 448 -158 448 -158 270 -170 c 128,-1,11
 92 -182 92 -182 59 -182 c 0,12,13
 15 -182 15 -182 15 -120 c 128,-1,14
 15 -58 15 -58 49 -6 c 1,15,16
 97 -25 97 -25 179 -25 c 1,0,1
EndSplineSet
EndChar

StartChar: grave
Encoding: 96 96 67
Width: 376
GlyphClass: 2
Flags: W
LayerCount: 2
Fore
SplineSet
300 653 m 0,0,1
 258 653 258 653 178.5 686.5 c 128,-1,2
 99 720 99 720 53 720 c 0,3,4
 44 720 44 720 30 718 c 1,5,6
 20 752 20 752 20 791 c 0,7,8
 20 886 20 886 76 886 c 0,9,10
 113 886 113 886 160.5 852.5 c 128,-1,11
 208 819 208 819 260.5 779 c 128,-1,12
 313 739 313 739 356 729 c 1,13,14
 353 690 353 690 337.5 671.5 c 128,-1,15
 322 653 322 653 300 653 c 0,0,1
EndSplineSet
EndChar

StartChar: a
Encoding: 97 97 68
Width: 736
GlyphClass: 2
Flags: W
LayerCount: 2
Fore
SplineSet
427 123 m 1,0,-1
 417 128 l 1,1,2
 390 56 390 56 339.5 15.5 c 128,-1,3
 289 -25 289 -25 227 -25 c 0,4,5
 142 -25 142 -25 91 39 c 128,-1,6
 40 103 40 103 40 210 c 0,7,8
 40 376 40 376 151.5 488 c 128,-1,9
 263 600 263 600 429 600 c 0,10,11
 472 600 472 600 508 592 c 1,12,13
 514 564 514 564 515 543 c 1,14,15
 565 575 565 575 618 575 c 0,16,17
 691 575 691 575 691 496 c 0,18,19
 691 468 691 468 659.5 327 c 128,-1,20
 628 186 628 186 628 118 c 128,-1,21
 628 50 628 50 659 24 c 1,22,23
 603 -25 603 -25 542.5 -25 c 128,-1,24
 482 -25 482 -25 454.5 11 c 128,-1,25
 427 47 427 47 427 123 c 1,0,-1
228 259 m 0,26,27
 228 210 228 210 248.5 183.5 c 128,-1,28
 269 157 269 157 307 157 c 128,-1,29
 345 157 345 157 382 185 c 128,-1,30
 419 213 419 213 444 262 c 1,31,32
 453 363 453 363 483 501 c 1,33,34
 382 501 382 501 305 428 c 128,-1,35
 228 355 228 355 228 259 c 0,26,27
EndSplineSet
EndChar

StartChar: b
Encoding: 98 98 69
Width: 739
GlyphClass: 2
Flags: W
LayerCount: 2
Fore
SplineSet
66 190 m 0,0,1
 66 274 66 274 131 622 c 1,2,-1
 75 702 l 1,3,4
 137 739 137 739 179.5 757 c 128,-1,5
 222 775 222 775 264.5 775 c 128,-1,6
 307 775 307 775 327 758 c 128,-1,7
 347 741 347 741 347 704 c 0,8,9
 347 640 347 640 308 453 c 1,10,-1
 318 448 l 1,11,12
 390 591 390 591 528 591 c 0,13,14
 606 591 606 591 650 524.5 c 128,-1,15
 694 458 694 458 694 363.5 c 128,-1,16
 694 269 694 269 656.5 193.5 c 128,-1,17
 619 118 619 118 559.5 71.5 c 128,-1,18
 500 25 500 25 430 0 c 128,-1,19
 360 -25 360 -25 291 -25 c 0,20,21
 178 -25 178 -25 122 27 c 128,-1,22
 66 79 66 79 66 190 c 0,0,1
264 91 m 1,23,24
 375 91 375 91 444.5 167 c 128,-1,25
 514 243 514 243 514 337 c 0,26,27
 514 380 514 380 490.5 415 c 128,-1,28
 467 450 467 450 429 450 c 128,-1,29
 391 450 391 450 358.5 419 c 128,-1,30
 326 388 326 388 308.5 345 c 128,-1,31
 291 302 291 302 280 248 c 0,32,33
 264 163 264 163 264 91 c 1,23,24
EndSplineSet
EndChar

StartChar: c
Encoding: 99 99 70
Width: 638
GlyphClass: 2
Flags: W
LayerCount: 2
Fore
SplineSet
45 238 m 0,0,1
 45 398 45 398 155 499 c 128,-1,2
 265 600 265 600 432 600 c 0,3,4
 518 600 518 600 568 567.5 c 128,-1,5
 618 535 618 535 618 486 c 128,-1,6
 618 437 618 437 584.5 411 c 128,-1,7
 551 385 551 385 511.5 385 c 128,-1,8
 472 385 472 385 439.5 406 c 128,-1,9
 407 427 407 427 389 467 c 1,10,11
 326 441 326 441 289.5 375 c 128,-1,12
 253 309 253 309 253 243 c 128,-1,13
 253 177 253 177 279 136 c 128,-1,14
 305 95 305 95 347 95 c 128,-1,15
 389 95 389 95 415.5 123 c 128,-1,16
 442 151 442 151 442 206 c 1,17,18
 588 206 588 206 588 137 c 0,19,20
 588 78 588 78 514 26.5 c 128,-1,21
 440 -25 440 -25 319 -25 c 128,-1,22
 198 -25 198 -25 121.5 47.5 c 128,-1,23
 45 120 45 120 45 238 c 0,0,1
EndSplineSet
EndChar

StartChar: d
Encoding: 100 100 71
Width: 748
GlyphClass: 2
Flags: W
LayerCount: 2
Fore
SplineSet
432 73 m 1,0,-1
 422 78 l 1,1,2
 344 -25 344 -25 236 -25 c 0,3,4
 156 -25 156 -25 100.5 38.5 c 128,-1,5
 45 102 45 102 45 210 c 0,6,7
 45 344 45 344 139 454 c 0,8,9
 185 508 185 508 262 541.5 c 128,-1,10
 339 575 339 575 434 575 c 0,11,12
 452 575 452 575 498 571 c 1,13,14
 500 592 500 592 507 622 c 1,15,-1
 451 702 l 1,16,17
 576 775 576 775 648 775 c 0,18,19
 689 775 689 775 706 758.5 c 128,-1,20
 723 742 723 742 723 696.5 c 128,-1,21
 723 651 723 651 678.5 440 c 128,-1,22
 634 229 634 229 634 140.5 c 128,-1,23
 634 52 634 52 665 24 c 1,24,25
 609 -25 609 -25 548.5 -25 c 128,-1,26
 488 -25 488 -25 460 5.5 c 128,-1,27
 432 36 432 36 432 73 c 1,0,-1
233 248 m 0,28,29
 233 191 233 191 262.5 158 c 128,-1,30
 292 125 292 125 336 125 c 0,31,32
 393 125 393 125 440 179 c 1,33,34
 456 357 456 357 485 487 c 1,35,36
 370 487 370 487 301.5 413 c 128,-1,37
 233 339 233 339 233 248 c 0,28,29
EndSplineSet
EndChar

StartChar: e
Encoding: 101 101 72
Width: 657
GlyphClass: 2
Flags: W
LayerCount: 2
Fore
SplineSet
331 -25 m 0,0,1
 194 -25 194 -25 119.5 46 c 128,-1,2
 45 117 45 117 45 238 c 0,3,4
 45 399 45 399 155.5 499.5 c 128,-1,5
 266 600 266 600 433 600 c 0,6,7
 526 600 526 600 574 558.5 c 128,-1,8
 622 517 622 517 622 449 c 0,9,10
 622 356 622 356 531.5 294.5 c 128,-1,11
 441 233 441 233 252 232 c 1,12,13
 255 168 255 168 281 131.5 c 128,-1,14
 307 95 307 95 346 95 c 128,-1,15
 385 95 385 95 413.5 121 c 128,-1,16
 442 147 442 147 442 206 c 1,17,18
 588 206 588 206 588 137 c 0,19,20
 588 78 588 78 516 26.5 c 128,-1,21
 444 -25 444 -25 331 -25 c 0,0,1
416 483 m 0,22,23
 365 483 365 483 322.5 432 c 128,-1,24
 280 381 280 381 261 312 c 1,25,26
 361 320 361 320 411.5 357.5 c 128,-1,27
 462 395 462 395 462 437 c 0,28,29
 462 457 462 457 449.5 470 c 128,-1,30
 437 483 437 483 416 483 c 0,22,23
EndSplineSet
EndChar

StartChar: f
Encoding: 102 102 73
Width: 432
GlyphClass: 2
Flags: W
LayerCount: 2
Fore
SplineSet
55 317 m 1,0,1
 48 339 48 339 48 362 c 0,2,3
 48 410 48 410 75 435 c 128,-1,4
 102 460 102 460 144 461 c 1,5,6
 137 492 137 492 137 529 c 0,7,8
 137 639 137 639 194 718.5 c 128,-1,9
 251 798 251 798 355 798 c 0,10,11
 412 798 412 798 444.5 764 c 128,-1,12
 477 730 477 730 477 685 c 128,-1,13
 477 640 477 640 446 608.5 c 128,-1,14
 415 577 415 577 365 577 c 128,-1,15
 315 577 315 577 276 601 c 1,16,-1
 262 590 l 1,17,-1
 297 471 l 1,18,19
 349 478 349 478 403 498 c 1,20,21
 410 476 410 476 410 444.5 c 128,-1,22
 410 413 410 413 391.5 385.5 c 128,-1,23
 373 358 373 358 338 350 c 1,24,25
 274 55 274 55 274 -70 c 0,26,27
 274 -134 274 -134 305 -161 c 1,28,29
 232 -210 232 -210 175 -210 c 0,30,31
 63 -210 63 -210 63 -72 c 0,32,33
 63 14 63 14 125 334 c 1,34,35
 80 325 80 325 55 317 c 1,0,1
EndSplineSet
EndChar

StartChar: g
Encoding: 103 103 74
Width: 729
GlyphClass: 2
Flags: W
LayerCount: 2
Fore
SplineSet
239 280 m 0,0,1
 239 229 239 229 267.5 197.5 c 128,-1,2
 296 166 296 166 338 166 c 0,3,4
 395 166 395 166 440 220 c 1,5,6
 457 309 457 309 484 501 c 1,7,8
 372 501 372 501 305.5 436 c 128,-1,9
 239 371 239 371 239 280 c 0,0,1
386 -198.5 m 128,-1,11
 315 -235 315 -235 236.5 -235 c 128,-1,12
 158 -235 158 -235 110.5 -205.5 c 128,-1,13
 63 -176 63 -176 63 -126 c 128,-1,14
 63 -76 63 -76 104 -21 c 1,15,16
 150 -89 150 -89 242 -89 c 0,17,18
 302 -89 302 -89 353.5 -37.5 c 128,-1,19
 405 14 405 14 422 113 c 1,20,-1
 412 118 l 1,21,22
 341 14 341 14 230 14 c 0,23,24
 146 14 146 14 98 79 c 128,-1,25
 50 144 50 144 50 252 c 0,26,27
 50 356 50 356 107 442 c 0,28,29
 172 541 172 541 288 579 c 0,30,31
 352 600 352 600 410 600 c 128,-1,32
 468 600 468 600 508 592 c 1,33,34
 514 565 514 565 515 543 c 1,35,36
 562 575 562 575 610 575 c 0,37,38
 679 575 679 575 679 504 c 128,-1,39
 679 433 679 433 670 358.5 c 128,-1,40
 661 284 661 284 642 199 c 128,-1,41
 623 114 623 114 587.5 38.5 c 128,-1,42
 552 -37 552 -37 504.5 -99.5 c 128,-1,10
 457 -162 457 -162 386 -198.5 c 128,-1,11
EndSplineSet
EndChar

StartChar: h
Encoding: 104 104 75
Width: 773
GlyphClass: 2
Flags: W
LayerCount: 2
Fore
SplineSet
607 600 m 0,0,1
 728 600 728 600 728 479 c 0,2,3
 728 427 728 427 698.5 303 c 128,-1,4
 669 179 669 179 669 116 c 128,-1,5
 669 53 669 53 690 24 c 1,6,7
 637 -25 637 -25 578 -25 c 0,8,9
 463 -25 463 -25 463 99 c 0,10,11
 463 145 463 145 493 255 c 128,-1,12
 523 365 523 365 523 398 c 0,13,14
 523 443 523 443 489 443 c 0,15,16
 461 443 461 443 425 418.5 c 128,-1,17
 389 394 389 394 355.5 352.5 c 128,-1,18
 322 311 322 311 299 247.5 c 128,-1,19
 276 184 276 184 276 118.5 c 128,-1,20
 276 53 276 53 297 24 c 1,21,22
 244 -25 244 -25 185 -25 c 0,23,24
 70 -25 70 -25 70 99 c 0,25,26
 70 173 70 173 110 399 c 1,27,28
 144 598 144 598 149 622 c 1,29,-1
 93 702 l 1,30,31
 218 775 218 775 290 775 c 0,32,33
 331 775 331 775 348 758.5 c 128,-1,34
 365 742 365 742 365 704 c 0,35,36
 365 632 365 632 351 547 c 128,-1,37
 337 462 337 462 325 422 c 1,38,-1
 335 417 l 1,39,40
 442 600 442 600 607 600 c 0,0,1
EndSplineSet
EndChar

StartChar: i
Encoding: 105 105 76
Width: 388
GlyphClass: 2
Flags: W
LayerCount: 2
Fore
SplineSet
338 692.5 m 128,-1,1
 298 665 298 665 247 665 c 128,-1,2
 196 665 196 665 166.5 685 c 128,-1,3
 137 705 137 705 137 739 c 0,4,5
 137 785 137 785 180 811 c 128,-1,6
 223 837 223 837 271 837 c 128,-1,7
 319 837 319 837 348.5 817 c 128,-1,8
 378 797 378 797 378 758.5 c 128,-1,0
 378 720 378 720 338 692.5 c 128,-1,1
93 6 m 128,-1,10
 65 37 65 37 65 100.5 c 128,-1,11
 65 164 65 164 129 441 c 1,12,-1
 73 525 l 1,13,14
 198 600 198 600 270 600 c 0,15,16
 311 600 311 600 328 582.5 c 128,-1,17
 345 565 345 565 345 526 c 0,18,19
 345 511 345 511 308 350 c 128,-1,20
 271 189 271 189 271 120 c 128,-1,21
 271 51 271 51 302 24 c 1,22,23
 246 -25 246 -25 183.5 -25 c 128,-1,9
 121 -25 121 -25 93 6 c 128,-1,10
EndSplineSet
EndChar

StartChar: j
Encoding: 106 106 77
Width: 392
GlyphClass: 2
Flags: W
LayerCount: 2
Fore
SplineSet
335 692.5 m 128,-1,1
 295 665 295 665 244 665 c 128,-1,2
 193 665 193 665 163.5 685 c 128,-1,3
 134 705 134 705 134 739 c 0,4,5
 134 785 134 785 177 811 c 128,-1,6
 220 837 220 837 268 837 c 128,-1,7
 316 837 316 837 345.5 817 c 128,-1,8
 375 797 375 797 375 758.5 c 128,-1,0
 375 720 375 720 335 692.5 c 128,-1,1
342 526 m 0,9,10
 342 442 342 442 260 37 c 0,11,12
 239 -68 239 -68 186.5 -139 c 128,-1,13
 134 -210 134 -210 51 -210 c 0,14,15
 -8 -210 -8 -210 -38 -182.5 c 128,-1,16
 -68 -155 -68 -155 -68 -111.5 c 128,-1,17
 -68 -68 -68 -68 -38 -41.5 c 128,-1,18
 -8 -15 -8 -15 36.5 -15 c 128,-1,19
 81 -15 81 -15 129 -48 c 1,20,-1
 139 -34 l 1,21,22
 96 10 96 10 83 37 c 128,-1,23
 70 64 70 64 70 100.5 c 128,-1,24
 70 137 70 137 126 441 c 1,25,-1
 70 525 l 1,26,27
 195 600 195 600 267 600 c 0,28,29
 308 600 308 600 325 582.5 c 128,-1,30
 342 565 342 565 342 526 c 0,9,10
EndSplineSet
EndChar

StartChar: k
Encoding: 107 107 78
Width: 724
GlyphClass: 2
Flags: W
LayerCount: 2
Fore
SplineSet
144 622 m 1,0,-1
 88 702 l 1,1,2
 213 775 213 775 285 775 c 0,3,4
 326 775 326 775 343 758.5 c 128,-1,5
 360 742 360 742 360 703.5 c 128,-1,6
 360 665 360 665 347.5 596 c 128,-1,7
 335 527 335 527 314.5 433 c 128,-1,8
 294 339 294 339 285 282 c 1,9,-1
 348 338 l 2,10,11
 357 346 357 346 377.5 363.5 c 128,-1,12
 398 381 398 381 406.5 389 c 128,-1,13
 415 397 415 397 430 411.5 c 128,-1,14
 445 426 445 426 452 436 c 128,-1,15
 459 446 459 446 468 459 c 0,16,17
 482 481 482 481 482 508.5 c 128,-1,18
 482 536 482 536 474 557 c 1,19,20
 545 600 545 600 608 600 c 0,21,22
 650 600 650 600 675 573.5 c 128,-1,23
 700 547 700 547 700 497 c 128,-1,24
 700 447 700 447 654.5 396.5 c 128,-1,25
 609 346 609 346 542 308 c 1,26,27
 573 205 573 205 622 119 c 128,-1,28
 671 33 671 33 704 16 c 1,29,30
 664 -25 664 -25 580 -25 c 0,31,32
 518 -25 518 -25 475.5 17 c 128,-1,33
 433 59 433 59 400 155 c 2,34,-1
 375 226 l 1,35,-1
 272 175 l 1,36,37
 271 164 271 164 271 142 c 0,38,39
 271 59 271 59 302 24 c 1,40,41
 232 -25 232 -25 175 -25 c 128,-1,42
 118 -25 118 -25 91.5 12.5 c 128,-1,43
 65 50 65 50 65 116 c 128,-1,44
 65 182 65 182 102 386 c 128,-1,45
 139 590 139 590 144 622 c 1,0,-1
EndSplineSet
EndChar

StartChar: l
Encoding: 108 108 79
Width: 385
GlyphClass: 2
Flags: W
LayerCount: 2
Fore
SplineSet
149 622 m 1,0,-1
 93 702 l 1,1,2
 218 775 218 775 290 775 c 0,3,4
 331 775 331 775 348 758.5 c 128,-1,5
 365 742 365 742 365 696.5 c 128,-1,6
 365 651 365 651 320.5 440 c 128,-1,7
 276 229 276 229 276 144 c 128,-1,8
 276 59 276 59 307 24 c 1,9,10
 237 -25 237 -25 180 -25 c 128,-1,11
 123 -25 123 -25 96.5 12.5 c 128,-1,12
 70 50 70 50 70 116 c 128,-1,13
 70 182 70 182 107 386 c 128,-1,14
 144 590 144 590 149 622 c 1,0,-1
EndSplineSet
EndChar

StartChar: m
Encoding: 109 109 80
Width: 1131
GlyphClass: 2
Flags: W
LayerCount: 2
Fore
SplineSet
693 422 m 1,0,-1
 703 417 l 1,1,2
 810 600 810 600 965 600 c 0,3,4
 1086 600 1086 600 1086 479 c 0,5,6
 1086 427 1086 427 1056.5 303 c 128,-1,7
 1027 179 1027 179 1027 116 c 128,-1,8
 1027 53 1027 53 1048 24 c 1,9,10
 995 -25 995 -25 936 -25 c 0,11,12
 821 -25 821 -25 821 99 c 0,13,14
 821 145 821 145 851 255 c 128,-1,15
 881 365 881 365 881 398 c 0,16,17
 881 443 881 443 847 443 c 0,18,19
 819 443 819 443 784.5 418.5 c 128,-1,20
 750 394 750 394 718.5 352.5 c 128,-1,21
 687 311 687 311 665.5 247.5 c 128,-1,22
 644 184 644 184 644 118.5 c 128,-1,23
 644 53 644 53 665 24 c 1,24,25
 612 -25 612 -25 553 -25 c 0,26,27
 438 -25 438 -25 438 99 c 0,28,29
 438 145 438 145 468 255 c 128,-1,30
 498 365 498 365 498 398 c 0,31,32
 498 443 498 443 464 443 c 0,33,34
 436 443 436 443 401.5 418.5 c 128,-1,35
 367 394 367 394 335.5 352.5 c 128,-1,36
 304 311 304 311 282.5 247.5 c 128,-1,37
 261 184 261 184 261 118.5 c 128,-1,38
 261 53 261 53 282 24 c 1,39,40
 229 -25 229 -25 170 -25 c 0,41,42
 55 -25 55 -25 55 99 c 0,43,44
 55 139 55 139 75.5 254 c 128,-1,45
 96 369 96 369 118 464 c 1,46,-1
 66 544 l 1,47,48
 165 600 165 600 249 600 c 128,-1,49
 333 600 333 600 333 524 c 0,50,51
 333 474 333 474 310 422 c 1,52,-1
 320 417 l 1,53,54
 427 600 427 600 582 600 c 0,55,56
 638 600 638 600 670.5 572 c 128,-1,57
 703 544 703 544 703 488 c 0,58,59
 703 458 703 458 693 422 c 1,0,-1
EndSplineSet
EndChar

StartChar: n
Encoding: 110 110 81
Width: 758
GlyphClass: 2
Flags: W
LayerCount: 2
Fore
SplineSet
83 6 m 128,-1,1
 55 37 55 37 55 88 c 128,-1,2
 55 139 55 139 75.5 254 c 128,-1,3
 96 369 96 369 118 464 c 1,4,-1
 66 544 l 1,5,6
 165 600 165 600 249 600 c 128,-1,7
 333 600 333 600 333 524 c 0,8,9
 333 474 333 474 310 422 c 1,10,-1
 320 417 l 1,11,12
 427 600 427 600 592 600 c 0,13,14
 713 600 713 600 713 479 c 0,15,16
 713 427 713 427 683.5 303 c 128,-1,17
 654 179 654 179 654 116 c 128,-1,18
 654 53 654 53 675 24 c 1,19,20
 622 -25 622 -25 563 -25 c 0,21,22
 448 -25 448 -25 448 99 c 0,23,24
 448 145 448 145 478 255 c 128,-1,25
 508 365 508 365 508 398 c 0,26,27
 508 443 508 443 474 443 c 0,28,29
 446 443 446 443 410 418.5 c 128,-1,30
 374 394 374 394 340.5 352.5 c 128,-1,31
 307 311 307 311 284 247.5 c 128,-1,32
 261 184 261 184 261 118.5 c 128,-1,33
 261 53 261 53 282 24 c 1,34,35
 229 -25 229 -25 170 -25 c 128,-1,0
 111 -25 111 -25 83 6 c 128,-1,1
EndSplineSet
EndChar

StartChar: o
Encoding: 111 111 82
Width: 715
GlyphClass: 2
Flags: W
LayerCount: 2
Fore
SplineSet
538 524 m 0,0,1
 594 524 594 524 634.5 479 c 128,-1,2
 675 434 675 434 675 348.5 c 128,-1,3
 675 263 675 263 645 190.5 c 128,-1,4
 615 118 615 118 566 72 c 128,-1,5
 517 26 517 26 455 0.5 c 128,-1,6
 393 -25 393 -25 328 -25 c 0,7,8
 197 -25 197 -25 121 47 c 128,-1,9
 45 119 45 119 45 238 c 0,10,11
 45 399 45 399 148.5 499.5 c 128,-1,12
 252 600 252 600 412 600 c 0,13,14
 448 600 448 600 484 592 c 1,15,16
 495 559 495 559 496 517 c 1,17,18
 517 524 517 524 538 524 c 0,0,1
415 385 m 0,19,20
 415 413 415 413 428.5 448 c 128,-1,21
 442 483 442 483 472 504 c 1,22,23
 340 476 340 476 290 397 c 0,24,25
 247 329 247 329 247 257 c 128,-1,26
 247 185 247 185 276.5 141.5 c 128,-1,27
 306 98 306 98 352 98 c 0,28,29
 454 98 454 98 496 231 c 1,30,31
 415 281 415 281 415 385 c 0,19,20
EndSplineSet
EndChar

StartChar: p
Encoding: 112 112 83
Width: 766
GlyphClass: 2
Flags: W
LayerCount: 2
Fore
SplineSet
79.5 -168.5 m 128,-1,1
 55 -138 55 -138 55 -80.5 c 128,-1,2
 55 -23 55 -23 79.5 151 c 128,-1,3
 104 325 104 325 127 448 c 1,4,-1
 71 528 l 1,5,6
 133 564 133 564 178 582.5 c 128,-1,7
 223 601 223 601 267 601 c 0,8,9
 339 601 339 601 339 506 c 0,10,11
 339 493 339 493 335 453 c 1,12,-1
 345 448 l 1,13,14
 374 520 374 520 429 560.5 c 128,-1,15
 484 601 484 601 558.5 601 c 128,-1,16
 633 601 633 601 677 533.5 c 128,-1,17
 721 466 721 466 721 366 c 0,18,19
 721 232 721 232 627 122 c 0,20,21
 581 68 581 68 504 34.5 c 128,-1,22
 427 1 427 1 332 1 c 0,23,24
 303 1 303 1 256 6 c 1,25,26
 253 -29 253 -29 253 -59 c 0,27,28
 253 -123 253 -123 284 -150 c 1,29,30
 228 -199 228 -199 166 -199 c 128,-1,0
 104 -199 104 -199 79.5 -168.5 c 128,-1,1
297 215 m 2,31,-1
 274 99 l 1,32,33
 395 102 395 102 467.5 178.5 c 128,-1,34
 540 255 540 255 540 346 c 0,35,36
 540 393 540 393 521.5 421.5 c 128,-1,37
 503 450 503 450 468 450 c 0,38,39
 344 450 344 450 297 215 c 2,31,-1
EndSplineSet
EndChar

StartChar: q
Encoding: 113 113 84
Width: 737
GlyphClass: 2
Flags: W
LayerCount: 2
Fore
SplineSet
400.5 -30 m 128,-1,1
 414 45 414 45 418 72 c 1,2,-1
 408 77 l 1,3,4
 371 28 371 28 321 1.5 c 128,-1,5
 271 -25 271 -25 221 -25 c 0,6,7
 144 -25 144 -25 92 35.5 c 128,-1,8
 40 96 40 96 40 210 c 0,9,10
 40 361 40 361 126 476 c 0,11,12
 168 532 168 532 237.5 566 c 128,-1,13
 307 600 307 600 384.5 600 c 128,-1,14
 462 600 462 600 525 566 c 1,15,16
 562 575 562 575 601 575 c 0,17,18
 691 575 691 575 691 477 c 0,19,20
 691 461 691 461 670 373 c 0,21,22
 609 109 609 109 609 -46 c 1,23,-1
 659 -126 l 1,24,25
 561 -199 561 -199 474 -199 c 0,26,27
 428 -199 428 -199 407.5 -182 c 128,-1,28
 387 -165 387 -165 387 -135 c 128,-1,0
 387 -105 387 -105 400.5 -30 c 128,-1,1
323 125 m 0,29,30
 388 125 388 125 434 191 c 1,31,32
 457 343 457 343 484 500 c 1,33,34
 457 506 457 506 435 506 c 0,35,36
 368 506 368 506 320 468 c 1,37,38
 229 399 229 399 229 270 c 0,39,40
 229 209 229 209 254 167 c 128,-1,41
 279 125 279 125 323 125 c 0,29,30
EndSplineSet
EndChar

StartChar: r
Encoding: 114 114 85
Width: 529
GlyphClass: 2
Flags: W
LayerCount: 2
Fore
SplineSet
55 99 m 0,0,1
 55 139 55 139 75.5 254 c 128,-1,2
 96 369 96 369 118 464 c 1,3,-1
 66 544 l 1,4,5
 191 600 191 600 241.5 600 c 128,-1,6
 292 600 292 600 292 536 c 0,7,8
 292 501 292 501 259 390 c 1,9,-1
 269 385 l 1,10,11
 341 600 341 600 448 600 c 0,12,13
 497 600 497 600 523 570 c 128,-1,14
 549 540 549 540 549 503 c 0,15,16
 549 448 549 448 508 409 c 128,-1,17
 467 370 467 370 385 370 c 0,18,19
 261 370 261 370 261 115 c 0,20,21
 261 53 261 53 282 24 c 1,22,23
 220 -25 220 -25 168 -25 c 0,24,25
 55 -25 55 -25 55 99 c 0,0,1
EndSplineSet
EndChar

StartChar: s
Encoding: 115 115 86
Width: 643
GlyphClass: 2
Flags: W
LayerCount: 2
Fore
SplineSet
374 467 m 1,0,1
 337 456 337 456 315 435.5 c 128,-1,2
 293 415 293 415 276 377 c 1,3,4
 445 352 445 352 514 305 c 128,-1,5
 583 258 583 258 583 171 c 0,6,7
 583 116 583 116 552 75.5 c 128,-1,8
 521 35 521 35 474 14 c 0,9,10
 382 -25 382 -25 293 -25 c 0,11,12
 40 -25 40 -25 40 84 c 0,13,14
 40 139 40 139 89 194 c 1,15,16
 114 159 114 159 164.5 134 c 128,-1,17
 215 109 215 109 263 109 c 0,18,19
 346 109 346 109 363 182 c 1,20,21
 211 200 211 200 143 250 c 128,-1,22
 75 300 75 300 75 391 c 0,23,24
 75 463 75 463 122.5 512 c 128,-1,25
 170 561 170 561 240.5 580.5 c 128,-1,26
 311 600 311 600 399.5 600 c 128,-1,27
 488 600 488 600 545.5 566.5 c 128,-1,28
 603 533 603 533 603 485 c 128,-1,29
 603 437 603 437 569.5 411 c 128,-1,30
 536 385 536 385 496.5 385 c 128,-1,31
 457 385 457 385 424.5 406 c 128,-1,32
 392 427 392 427 374 467 c 1,0,1
EndSplineSet
EndChar

StartChar: t
Encoding: 116 116 87
Width: 476
GlyphClass: 2
Flags: W
LayerCount: 2
Fore
SplineSet
67 361 m 1,0,1
 60 389 60 389 60 413 c 0,2,3
 60 462 60 462 89 487 c 128,-1,4
 118 512 118 512 164 512 c 1,5,6
 164 564 164 564 137 625 c 1,7,8
 186 661 186 661 226.5 679.5 c 128,-1,9
 267 698 267 698 312 698 c 128,-1,10
 357 698 357 698 374.5 681.5 c 128,-1,11
 392 665 392 665 392 631 c 128,-1,12
 392 597 392 597 378 525 c 1,13,14
 418 531 418 531 459 542 c 1,15,16
 466 521 466 521 466 488 c 128,-1,17
 466 455 466 455 440.5 426.5 c 128,-1,18
 415 398 415 398 366 398 c 2,19,-1
 351 398 l 1,20,21
 315 235 315 235 315 147 c 128,-1,22
 315 59 315 59 346 24 c 1,23,24
 290 -25 290 -25 227 -25 c 128,-1,25
 164 -25 164 -25 136.5 12.5 c 128,-1,26
 109 50 109 50 109 129 c 0,27,28
 109 177 109 177 144 381 c 1,29,30
 104 374 104 374 67 361 c 1,0,1
EndSplineSet
EndChar

StartChar: u
Encoding: 117 117 88
Width: 764
GlyphClass: 2
Flags: W
LayerCount: 2
Fore
SplineSet
223 -25 m 0,0,1
 135 -25 135 -25 100 18 c 128,-1,2
 65 61 65 61 65 126.5 c 128,-1,3
 65 192 65 192 87 306 c 128,-1,4
 109 420 109 420 109 471 c 128,-1,5
 109 522 109 522 88 551 c 1,6,7
 181 600 181 600 245 600 c 0,8,9
 286 600 286 600 304.5 583.5 c 128,-1,10
 323 567 323 567 323 530 c 128,-1,11
 323 493 323 493 292.5 348.5 c 128,-1,12
 262 204 262 204 262 170 c 128,-1,13
 262 136 262 136 281 116.5 c 128,-1,14
 300 97 300 97 331 97 c 128,-1,15
 362 97 362 97 397 121.5 c 128,-1,16
 432 146 432 146 454 191 c 1,17,18
 468 272 468 272 509 447 c 1,19,-1
 449 527 l 1,20,21
 550 600 550 600 641 600 c 0,22,23
 686 600 686 600 705.5 583.5 c 128,-1,24
 725 567 725 567 725 533.5 c 128,-1,25
 725 500 725 500 688.5 342 c 128,-1,26
 652 184 652 184 652 117.5 c 128,-1,27
 652 51 652 51 683 24 c 1,28,29
 627 -25 627 -25 565.5 -25 c 128,-1,30
 504 -25 504 -25 477 2 c 128,-1,31
 450 29 450 29 450 73 c 1,32,-1
 440 78 l 1,33,34
 407 30 407 30 348.5 2.5 c 128,-1,35
 290 -25 290 -25 223 -25 c 0,0,1
EndSplineSet
EndChar

StartChar: v
Encoding: 118 118 89
Width: 703
GlyphClass: 2
Flags: W
LayerCount: 2
Fore
SplineSet
95 110 m 1,0,1
 95 110 95 110 99 385 c 1,2,3
 99 501 99 501 45 557 c 1,4,5
 97 600 97 600 159 600 c 0,6,7
 240 600 240 600 269 528 c 0,8,9
 294 466 294 466 294 340.5 c 128,-1,10
 294 215 294 215 289 97 c 1,11,-1
 323 97 l 1,12,13
 475 416 475 416 475 512 c 0,14,15
 475 535 475 535 466 557 c 1,16,17
 540 600 540 600 600 600 c 0,18,19
 678 600 678 600 678 506 c 0,20,21
 678 463 678 463 656 398.5 c 128,-1,22
 634 334 634 334 588.5 232.5 c 128,-1,23
 543 131 543 131 541 127 c 1,24,-1
 554 69 l 1,25,26
 512 31 512 31 434 3 c 128,-1,27
 356 -25 356 -25 269 -25 c 128,-1,28
 182 -25 182 -25 138.5 6.5 c 128,-1,29
 95 38 95 38 95 110 c 1,0,1
EndSplineSet
EndChar

StartChar: w
Encoding: 119 119 90
Width: 966
GlyphClass: 2
Flags: W
LayerCount: 2
Fore
SplineSet
96 89 m 0,0,1
 99 307 99 307 99 385 c 0,2,3
 99 501 99 501 45 557 c 1,4,5
 97 600 97 600 159 600 c 0,6,7
 236 600 236 600 265 535.5 c 128,-1,8
 294 471 294 471 294 343 c 128,-1,9
 294 215 294 215 289 97 c 1,10,-1
 323 97 l 1,11,12
 406 240 406 240 423 321 c 1,13,14
 422 372 422 372 408.5 438.5 c 128,-1,15
 395 505 395 505 379 532 c 1,16,17
 394 551 394 551 425 563.5 c 128,-1,18
 456 576 456 576 494 576 c 128,-1,19
 532 576 532 576 564.5 553 c 128,-1,20
 597 530 597 530 597 485 c 0,21,22
 597 457 597 457 588 432 c 128,-1,23
 579 407 579 407 570 380.5 c 128,-1,24
 561 354 561 354 555 337 c 1,25,-1
 551 97 l 1,26,-1
 585 97 l 1,27,28
 642 207 642 207 689.5 328 c 128,-1,29
 737 449 737 449 737 512 c 0,30,31
 737 535 737 535 728 557 c 1,32,33
 796 600 796 600 859 600 c 0,34,35
 941 600 941 600 941 506 c 0,36,37
 941 463 941 463 919 398.5 c 128,-1,38
 897 334 897 334 851.5 232.5 c 128,-1,39
 806 131 806 131 804 127 c 1,40,-1
 818 69 l 1,41,42
 779 39 779 39 700.5 7 c 128,-1,43
 622 -25 622 -25 557 -25 c 0,44,45
 453 -25 453 -25 432 66 c 1,46,47
 338 -25 338 -25 233 -25 c 0,48,49
 175 -25 175 -25 135.5 1.5 c 128,-1,50
 96 28 96 28 96 89 c 0,0,1
EndSplineSet
EndChar

StartChar: x
Encoding: 120 120 91
Width: 689
GlyphClass: 2
Flags: W
LayerCount: 2
Fore
SplineSet
337 89 m 2,0,-1
 289 177 l 1,1,2
 223 116 223 116 223 64 c 0,3,4
 223 39 223 39 231 18 c 1,5,6
 160 -25 160 -25 97 -25 c 0,7,8
 55 -25 55 -25 30 1.5 c 128,-1,9
 5 28 5 28 5 71 c 0,10,11
 5 135 5 135 61.5 190.5 c 128,-1,12
 118 246 118 246 194 283 c 2,13,-1
 223 297 l 1,14,-1
 163 407 l 2,15,16
 124 479 124 479 47 505 c 1,17,18
 109 600 109 600 209 600 c 0,19,20
 254 600 254 600 285 575.5 c 128,-1,21
 316 551 316 551 352 485 c 2,22,-1
 396 404 l 1,23,24
 456 461 456 461 456 511 c 0,25,26
 456 536 456 536 448 557 c 1,27,28
 519 600 519 600 582 600 c 0,29,30
 624 600 624 600 649 573.5 c 128,-1,31
 674 547 674 547 674 504 c 0,32,33
 674 440 674 440 617.5 384.5 c 128,-1,34
 561 329 561 329 485 292 c 2,35,-1
 463 281 l 1,36,-1
 526 167 l 1,37,38
 565 93 565 93 642 69 c 1,39,40
 579 -25 579 -25 479 -25 c 0,41,42
 433 -25 433 -25 403 -1 c 128,-1,43
 373 23 373 23 337 89 c 2,0,-1
EndSplineSet
EndChar

StartChar: y
Encoding: 121 121 92
Width: 695
GlyphClass: 2
Flags: W
LayerCount: 2
Fore
SplineSet
332 20 m 1,0,1
 285 3 285 3 238 3 c 128,-1,2
 191 3 191 3 159 31 c 128,-1,3
 127 59 127 59 122 107 c 128,-1,4
 117 155 117 155 113 246.5 c 128,-1,5
 109 338 109 338 105 376 c 0,6,7
 92 503 92 503 25 557 c 1,8,9
 72 600 72 600 143 600 c 0,10,11
 182 600 182 600 211 579.5 c 128,-1,12
 240 559 240 559 257.5 525.5 c 128,-1,13
 275 492 275 492 286 439 c 0,14,15
 303 351 303 351 303 201 c 0,16,17
 303 164 303 164 300 114 c 1,18,-1
 358 114 l 1,19,20
 461 392 461 392 461 493 c 0,21,22
 461 527 461 527 446 557 c 1,23,24
 516 600 516 600 568 600 c 0,25,26
 665 600 665 600 665 488 c 0,27,28
 665 399 665 399 583 175 c 0,29,30
 568 134 568 134 566 127 c 0,31,32
 439 -235 439 -235 205 -235 c 0,33,34
 134 -235 134 -235 88 -204.5 c 128,-1,35
 42 -174 42 -174 42 -124.5 c 128,-1,36
 42 -75 42 -75 79 -21 c 1,37,38
 127 -89 127 -89 199 -89 c 0,39,40
 240 -89 240 -89 275.5 -62 c 128,-1,41
 311 -35 311 -35 332 20 c 1,0,1
EndSplineSet
EndChar

StartChar: z
Encoding: 122 122 93
Width: 624
GlyphClass: 2
Flags: W
LayerCount: 2
Fore
SplineSet
220 25 m 1,0,1
 165 -18 165 -18 115 -18 c 128,-1,2
 65 -18 65 -18 40 10 c 128,-1,3
 15 38 15 38 15 80.5 c 128,-1,4
 15 123 15 123 46 159 c 128,-1,5
 77 195 77 195 134 202 c 1,6,-1
 298 376 l 1,7,8
 174 380 174 380 127 413 c 128,-1,9
 80 446 80 446 80 514 c 0,10,11
 80 541 80 541 91 605 c 1,12,13
 158 577 158 577 246 554.5 c 128,-1,14
 334 532 334 532 384 530 c 1,15,16
 400 561 400 561 431.5 580.5 c 128,-1,17
 463 600 463 600 506.5 600 c 128,-1,18
 550 600 550 600 577 574 c 128,-1,19
 604 548 604 548 604 506 c 0,20,21
 604 433 604 433 531 401 c 1,22,-1
 324 164 l 1,23,24
 389 144 389 144 427 143 c 1,25,-1
 563 196 l 1,26,27
 584 142 584 142 584 93.5 c 128,-1,28
 584 45 584 45 538 10 c 128,-1,29
 492 -25 492 -25 427 -25 c 128,-1,30
 362 -25 362 -25 290 0 c 0,31,32
 265 8 265 8 220 25 c 1,0,1
EndSplineSet
EndChar

StartChar: braceleft
Encoding: 123 123 94
Width: 486
GlyphClass: 2
Flags: W
LayerCount: 2
Fore
SplineSet
175 301 m 1,0,1
 160 295 160 295 137 295 c 128,-1,2
 114 295 114 295 93.5 313 c 128,-1,3
 73 331 73 331 73 357 c 128,-1,4
 73 383 73 383 93.5 401.5 c 128,-1,5
 114 420 114 420 143.5 420 c 128,-1,6
 173 420 173 420 194 401 c 1,7,8
 173 476 173 476 173 581 c 0,9,10
 173 708 173 708 234 755 c 0,11,12
 271 784 271 784 310 791 c 0,13,14
 360 800 360 800 424 800 c 0,15,16
 516 800 516 800 516 701 c 0,17,18
 516 666 516 666 511 649 c 1,19,20
 496 656 496 656 452 662 c 128,-1,21
 408 668 408 668 381 668 c 1,22,23
 350 516 350 516 317 452.5 c 128,-1,24
 284 389 284 389 227 351 c 1,25,26
 293 277 293 277 293 163 c 0,27,28
 293 143 293 143 276 -25 c 1,29,30
 303 -25 303 -25 345 -19 c 128,-1,31
 387 -13 387 -13 402 -6 c 1,32,33
 409 -30 409 -30 409 -58 c 0,34,35
 409 -157 409 -157 332 -157 c 0,36,37
 205 -157 205 -157 147.5 -118.5 c 128,-1,38
 90 -80 90 -80 90 15 c 0,39,40
 90 69 90 69 112 148 c 128,-1,41
 134 227 134 227 175 301 c 1,0,1
EndSplineSet
EndChar

StartChar: bar
Encoding: 124 124 95
Width: 479
GlyphClass: 2
Flags: W
LayerCount: 2
Fore
SplineSet
110 -168 m 1,0,1
 140 -97 140 -97 145.5 29.5 c 128,-1,2
 151 156 151 156 156 396 c 128,-1,3
 161 636 161 636 166 758 c 0,4,5
 168 816 168 816 192 845 c 128,-1,6
 216 874 216 874 272.5 874 c 128,-1,7
 329 874 329 874 364 840 c 1,8,9
 319 758 319 758 319 379 c 0,10,11
 319 270 319 270 325 103 c 128,-1,12
 331 -64 331 -64 331 -150 c 0,13,14
 331 -219 331 -219 250 -219 c 0,15,16
 156 -219 156 -219 110 -168 c 1,0,1
EndSplineSet
EndChar

StartChar: braceright
Encoding: 125 125 96
Width: 486
GlyphClass: 2
Flags: W
LayerCount: 2
Fore
SplineSet
310 341 m 1,0,1
 324 348 324 348 348 348 c 128,-1,2
 372 348 372 348 392.5 330 c 128,-1,3
 413 312 413 312 413 286 c 128,-1,4
 413 260 413 260 392.5 241.5 c 128,-1,5
 372 223 372 223 342 223 c 128,-1,6
 312 223 312 223 291 242 c 1,7,8
 313 167 313 167 313 62 c 0,9,10
 313 -65 313 -65 252 -112 c 0,11,12
 215 -141 215 -141 176 -148 c 0,13,14
 126 -157 126 -157 62 -157 c 0,15,16
 -30 -157 -30 -157 -30 -58 c 0,17,18
 -30 -23 -30 -23 -25 -6 c 1,19,20
 -10 -13 -10 -13 34 -19 c 128,-1,21
 78 -25 78 -25 105 -25 c 1,22,23
 136 127 136 127 169 190.5 c 128,-1,24
 202 254 202 254 259 292 c 1,25,26
 193 366 193 366 193 480 c 0,27,28
 193 500 193 500 210 668 c 1,29,30
 183 668 183 668 141 662 c 128,-1,31
 99 656 99 656 84 649 c 1,32,33
 77 673 77 673 77 701 c 0,34,35
 77 800 77 800 154 800 c 0,36,37
 281 800 281 800 338.5 761.5 c 128,-1,38
 396 723 396 723 396 628 c 0,39,40
 396 574 396 574 373.5 494.5 c 128,-1,41
 351 415 351 415 310 341 c 1,0,1
EndSplineSet
EndChar

StartChar: asciitilde
Encoding: 126 126 97
Width: 733
GlyphClass: 2
Flags: W
LayerCount: 2
Fore
SplineSet
598 328 m 1,0,1
 547 354 547 354 487 354 c 128,-1,2
 427 354 427 354 320 312 c 128,-1,3
 213 270 213 270 157 270 c 0,4,5
 97 270 97 270 97 340 c 0,6,7
 97 393 97 393 136 450 c 1,8,9
 185 431 185 431 243 431 c 128,-1,10
 301 431 301 431 397 469.5 c 128,-1,11
 493 508 493 508 544 508 c 0,12,13
 636 508 636 508 636 429 c 0,14,15
 636 378 636 378 598 328 c 1,0,1
EndSplineSet
EndChar

StartChar: exclamdown
Encoding: 161 161 98
Width: 458
GlyphClass: 2
Flags: W
LayerCount: 2
Fore
SplineSet
251 287 m 0,0,1
 321 287 321 287 321 202 c 0,2,3
 321 181 321 181 311.5 75.5 c 128,-1,4
 302 -30 302 -30 302 -74 c 128,-1,5
 302 -118 302 -118 327 -142 c 1,6,7
 261 -209 261 -209 153 -209 c 128,-1,8
 45 -209 45 -209 45 -106 c 0,9,10
 45 -59 45 -59 59 -9 c 128,-1,11
 73 41 73 41 86.5 81 c 128,-1,12
 100 121 100 121 108.5 143.5 c 128,-1,13
 117 166 117 166 131.5 203.5 c 128,-1,14
 146 241 146 241 149 249 c 1,15,16
 169 267 169 267 198.5 277 c 128,-1,17
 228 287 228 287 251 287 c 0,0,1
195.5 398.5 m 128,-1,19
 165 429 165 429 165 476.5 c 128,-1,20
 165 524 165 524 202 562 c 128,-1,21
 239 600 239 600 288 600 c 128,-1,22
 337 600 337 600 367.5 569.5 c 128,-1,23
 398 539 398 539 398 491.5 c 128,-1,24
 398 444 398 444 361 406 c 128,-1,25
 324 368 324 368 275 368 c 128,-1,18
 226 368 226 368 195.5 398.5 c 128,-1,19
EndSplineSet
EndChar

StartChar: cent
Encoding: 162 162 99
Width: 663
GlyphClass: 2
Flags: W
LayerCount: 2
Fore
SplineSet
278 -135 m 0,0,1
 246 -135 246 -135 246 -79.5 c 128,-1,2
 246 -24 246 -24 273 62 c 1,3,4
 175 77 175 77 119.5 139 c 128,-1,5
 64 201 64 201 64 293 c 0,6,7
 64 419 64 419 144.5 506.5 c 128,-1,8
 225 594 225 594 354 615 c 1,9,10
 366 670 366 670 366 697 c 128,-1,11
 366 724 366 724 364 740 c 1,12,13
 418 794 418 794 450 794 c 0,14,15
 479 794 479 794 479 746 c 128,-1,16
 479 698 479 698 454 620 c 1,17,18
 594 611 594 611 594 515 c 0,19,20
 594 470 594 470 569 416 c 1,21,22
 507 455 507 455 409 455 c 0,23,24
 370 455 370 455 339 450 c 1,25,26
 313 427 313 427 297 383.5 c 128,-1,27
 281 340 281 340 281 294 c 128,-1,28
 281 248 281 248 301.5 216 c 128,-1,29
 322 184 322 184 358 184 c 128,-1,30
 394 184 394 184 420 214 c 128,-1,31
 446 244 446 244 448 299 c 1,32,33
 599 296 599 296 599 246 c 0,34,35
 599 184 599 184 535 127.5 c 128,-1,36
 471 71 471 71 371 60 c 1,37,38
 358 0 358 0 358 -34 c 128,-1,39
 358 -68 358 -68 362 -83 c 1,40,41
 313 -135 313 -135 278 -135 c 0,0,1
EndSplineSet
EndChar

StartChar: sterling
Encoding: 163 163 100
Width: 664
GlyphClass: 2
Flags: W
LayerCount: 2
Fore
SplineSet
291 208 m 1,0,1
 419 176 419 176 491 176 c 1,2,-1
 606 222 l 1,3,4
 618 179 618 179 618 132 c 0,5,6
 618 54 618 54 575 14.5 c 128,-1,7
 532 -25 532 -25 471 -25 c 128,-1,8
 410 -25 410 -25 360 -12.5 c 128,-1,9
 310 0 310 0 235 27 c 1,10,11
 176 -19 176 -19 122.5 -19 c 128,-1,12
 69 -19 69 -19 43 11 c 128,-1,13
 17 41 17 41 17 84.5 c 128,-1,14
 17 128 17 128 41 162 c 128,-1,15
 65 196 65 196 110 211 c 1,16,-1
 112 272 l 1,17,18
 84 267 84 267 64 267 c 0,19,20
 25 267 25 267 25 291 c 0,21,22
 25 320 25 320 73 367 c 1,23,24
 81 365 81 365 118 365 c 1,25,26
 123 437 123 437 134 496 c 0,27,28
 151 596 151 596 223.5 650.5 c 128,-1,29
 296 705 296 705 397 705 c 0,30,31
 609 705 609 705 609 574 c 0,32,33
 609 507 609 507 582 462 c 1,34,35
 505 509 505 509 364 509 c 1,36,37
 364 476 364 476 345 390 c 1,38,39
 414 409 414 409 458.5 409 c 128,-1,40
 503 409 503 409 503 382 c 0,41,42
 503 350 503 350 456 307 c 1,43,44
 443 311 443 311 413.5 311 c 128,-1,45
 384 311 384 311 321 297 c 1,46,47
 305 244 305 244 291 208 c 1,0,1
EndSplineSet
EndChar

StartChar: yen
Encoding: 165 165 101
Width: 728
GlyphClass: 2
Flags: W
LayerCount: 2
Fore
SplineSet
140 288 m 0,0,1
 101 288 101 288 101 309 c 0,2,3
 101 335 101 335 145 376 c 1,4,5
 152 374 152 374 165 374 c 1,6,7
 110 595 110 595 45 656 c 1,8,9
 122 700 122 700 209 700 c 0,10,11
 348 700 348 700 348 528 c 0,12,13
 348 460 348 460 326 350 c 1,14,-1
 366 350 l 1,15,16
 397 401 397 401 427 481 c 128,-1,17
 457 561 457 561 457 625 c 0,18,19
 457 651 457 651 452 666 c 1,20,21
 521 700 521 700 604 700 c 0,22,23
 707 700 707 700 707 636 c 0,24,25
 707 587 707 587 603 429 c 1,26,27
 608 430 608 430 619 430 c 0,28,29
 665 430 665 430 665 406 c 128,-1,30
 665 382 665 382 622 340 c 1,31,32
 609 344 609 344 591.5 344 c 128,-1,33
 574 344 574 344 542 340 c 1,34,-1
 493 271 l 1,35,36
 536 280 536 280 563 280 c 0,37,38
 609 280 609 280 609 256 c 128,-1,39
 609 232 609 232 566 190 c 1,40,41
 553 194 553 194 524 194 c 128,-1,42
 495 194 495 194 437 179 c 1,43,44
 432 150 432 150 432 101.5 c 128,-1,45
 432 53 432 53 455 12 c 1,46,47
 385 -25 385 -25 321 -25 c 0,48,49
 199 -25 199 -25 199 125 c 0,50,51
 199 145 199 145 200 155 c 1,52,53
 140 138 140 138 102.5 138 c 128,-1,54
 65 138 65 138 65 159 c 0,55,56
 65 185 65 185 109 226 c 1,57,58
 118 224 118 224 139.5 224 c 128,-1,59
 161 224 161 224 196 232 c 1,60,-1
 184 292 l 1,61,62
 163 288 163 288 140 288 c 0,0,1
EndSplineSet
EndChar

StartChar: brokenbar
Encoding: 166 166 102
Width: 435
GlyphClass: 2
Flags: W
LayerCount: 2
Fore
SplineSet
110 443 m 1,0,1
 125 495 125 495 129.5 556.5 c 128,-1,2
 134 618 134 618 134 747 c 0,3,4
 134 814 134 814 154 844 c 128,-1,5
 174 874 174 874 228.5 874 c 128,-1,6
 283 874 283 874 320 840 c 1,7,8
 297 790 297 790 297 667 c 0,9,10
 297 598 297 598 302 541.5 c 128,-1,11
 307 485 307 485 307 460 c 0,12,13
 307 400 307 400 232 400 c 128,-1,14
 157 400 157 400 110 443 c 1,0,1
110 -176 m 1,15,16
 125 -124 125 -124 129.5 -62.5 c 128,-1,17
 134 -1 134 -1 134 128 c 0,18,19
 134 195 134 195 154 225 c 128,-1,20
 174 255 174 255 228.5 255 c 128,-1,21
 283 255 283 255 320 221 c 1,22,23
 297 171 297 171 297 48 c 0,24,25
 297 -21 297 -21 302 -77.5 c 128,-1,26
 307 -134 307 -134 307 -159 c 0,27,28
 307 -219 307 -219 232 -219 c 128,-1,29
 157 -219 157 -219 110 -176 c 1,15,16
EndSplineSet
EndChar

StartChar: section
Encoding: 167 167 103
Width: 743
GlyphClass: 2
Flags: W
LayerCount: 2
Fore
SplineSet
90 534 m 0,0,1
 90 650 90 650 185.5 712 c 128,-1,2
 281 774 281 774 420 774 c 0,3,4
 713 774 713 774 713 624 c 0,5,6
 713 553 713 553 677 483 c 1,7,8
 635 534 635 534 567 566.5 c 128,-1,9
 499 599 499 599 427 599 c 0,10,11
 330 599 330 599 300 508 c 1,12,13
 489 460 489 460 562 399 c 128,-1,14
 635 338 635 338 640 247 c 1,15,16
 578 309 578 309 384 331 c 0,17,18
 312 339 312 339 243.5 354 c 128,-1,19
 175 369 175 369 132.5 413 c 128,-1,20
 90 457 90 457 90 534 c 0,0,1
17 -37 m 0,21,22
 17 35 17 35 54 104 c 1,23,24
 96 53 96 53 164 20.5 c 128,-1,25
 232 -12 232 -12 304 -12 c 0,26,27
 401 -12 401 -12 430 78 c 1,28,29
 178 142 178 142 120 232 c 0,30,31
 92 276 92 276 89 341 c 1,32,33
 150 277 150 277 342 256 c 0,34,35
 415 248 415 248 484 233 c 128,-1,36
 553 218 553 218 596.5 174 c 128,-1,37
 640 130 640 130 640 53 c 0,38,39
 640 -63 640 -63 544.5 -125 c 128,-1,40
 449 -187 449 -187 311 -187 c 0,41,42
 17 -187 17 -187 17 -37 c 0,21,22
EndSplineSet
EndChar

StartChar: dieresis
Encoding: 168 168 104
Width: 632
GlyphClass: 2
Flags: W
LayerCount: 2
Fore
SplineSet
569 696 m 128,-1,1
 532 666 532 666 486 666 c 128,-1,2
 440 666 440 666 413.5 686 c 128,-1,3
 387 706 387 706 387 741 c 0,4,5
 387 792 387 792 426.5 820.5 c 128,-1,6
 466 849 466 849 509.5 849 c 128,-1,7
 553 849 553 849 579.5 828.5 c 128,-1,8
 606 808 606 808 606 767 c 128,-1,0
 606 726 606 726 569 696 c 128,-1,1
268 696 m 128,-1,10
 231 666 231 666 185 666 c 128,-1,11
 139 666 139 666 112.5 686 c 128,-1,12
 86 706 86 706 86 741 c 0,13,14
 86 792 86 792 125.5 820.5 c 128,-1,15
 165 849 165 849 208.5 849 c 128,-1,16
 252 849 252 849 278.5 828.5 c 128,-1,17
 305 808 305 808 305 767 c 128,-1,9
 305 726 305 726 268 696 c 128,-1,10
EndSplineSet
EndChar

StartChar: copyright
Encoding: 169 169 105
Width: 896
GlyphClass: 2
Flags: W
LayerCount: 2
Fore
SplineSet
231 285 m 128,-1,1
 308 213 308 213 415.5 213 c 128,-1,2
 523 213 523 213 600.5 261.5 c 128,-1,3
 678 310 678 310 717 384.5 c 128,-1,4
 756 459 756 459 756 543 c 0,5,6
 756 648 756 648 683 731.5 c 128,-1,7
 610 815 610 815 473.5 815 c 128,-1,8
 337 815 337 815 245.5 731 c 128,-1,9
 154 647 154 647 154 502 c 128,-1,0
 154 357 154 357 231 285 c 128,-1,1
536.5 166 m 128,-1,11
 481 150 481 150 419.5 150 c 128,-1,12
 358 150 358 150 298 171.5 c 128,-1,13
 238 193 238 193 190 234.5 c 128,-1,14
 142 276 142 276 113.5 343 c 128,-1,15
 85 410 85 410 85 493 c 0,16,17
 85 675 85 675 209 785.5 c 128,-1,18
 333 896 333 896 537 896 c 0,19,20
 602 896 602 896 624 878.5 c 128,-1,21
 646 861 646 861 650 818 c 1,22,23
 730 775 730 775 770.5 702.5 c 128,-1,24
 811 630 811 630 811 550 c 128,-1,25
 811 470 811 470 789 405 c 128,-1,26
 767 340 767 340 729.5 293.5 c 128,-1,27
 692 247 692 247 642 214.5 c 128,-1,10
 592 182 592 182 536.5 166 c 128,-1,11
319 365.5 m 128,-1,29
 275 410 275 410 275 494 c 128,-1,30
 275 578 275 578 340.5 648 c 128,-1,31
 406 718 406 718 514 718 c 0,32,33
 559 718 559 718 587.5 699.5 c 128,-1,34
 616 681 616 681 616 648 c 128,-1,35
 616 615 616 615 594.5 597 c 128,-1,36
 573 579 573 579 542 579 c 0,37,38
 488 579 488 579 460 625 c 1,39,40
 432 611 432 611 411 570.5 c 128,-1,41
 390 530 390 530 390 490 c 128,-1,42
 390 450 390 450 403.5 426 c 128,-1,43
 417 402 417 402 441.5 402 c 128,-1,44
 466 402 466 402 484.5 427 c 128,-1,45
 503 452 503 452 503 487 c 1,46,47
 557 487 557 487 580 478.5 c 128,-1,48
 603 470 603 470 603 442 c 0,49,50
 603 398 603 398 555.5 359.5 c 128,-1,51
 508 321 508 321 435.5 321 c 128,-1,28
 363 321 363 321 319 365.5 c 128,-1,29
EndSplineSet
EndChar

StartChar: ordfeminine
Encoding: 170 170 106
Width: 552
GlyphClass: 2
Flags: W
LayerCount: 2
Fore
SplineSet
390 289 m 0,0,1
 320 289 320 289 315 372 c 1,2,-1
 307 372 l 1,3,4
 285 336 285 336 249.5 312.5 c 128,-1,5
 214 289 214 289 179 289 c 0,6,7
 117 289 117 289 79.5 335 c 128,-1,8
 42 381 42 381 42 458 c 0,9,10
 42 574 42 574 120.5 652.5 c 128,-1,11
 199 731 199 731 315 731 c 0,12,13
 351 731 351 731 377 724 c 1,14,15
 381 712 381 712 381 694 c 1,16,17
 416 714 416 714 443 714 c 0,18,19
 502 714 502 714 502 651 c 0,20,21
 502 629 502 629 481 533.5 c 128,-1,22
 460 438 460 438 460 397 c 128,-1,23
 460 356 460 356 486 333 c 1,24,25
 436 289 436 289 390 289 c 0,0,1
189 491 m 128,-1,27
 189 432 189 432 232 432 c 0,28,29
 282 432 282 432 316 495 c 1,30,31
 323 571 323 571 339 645 c 1,32,33
 278 641 278 641 233.5 595.5 c 128,-1,26
 189 550 189 550 189 491 c 128,-1,27
EndSplineSet
EndChar

StartChar: guillemotleft
Encoding: 171 171 107
Width: 694
GlyphClass: 2
Flags: W
LayerCount: 2
Fore
SplineSet
595 243 m 1,0,1
 586 18 586 18 536 18 c 0,2,3
 501 18 501 18 450.5 63.5 c 128,-1,4
 400 109 400 109 374 154 c 1,5,6
 370 174 370 174 370 212 c 0,7,8
 370 313 370 313 398 420.5 c 128,-1,9
 426 528 426 528 466 533 c 1,10,11
 555 540 555 540 590 549.5 c 128,-1,12
 625 559 625 559 648 567 c 1,13,14
 648 422 648 422 601 375 c 0,15,16
 578 352 578 352 554 344 c 128,-1,17
 530 336 530 336 507.5 336 c 128,-1,18
 485 336 485 336 445 343 c 1,19,-1
 438 299 l 1,20,21
 507 243 507 243 595 243 c 1,0,1
283 243 m 1,22,23
 274 18 274 18 224 18 c 0,24,25
 189 18 189 18 138.5 63.5 c 128,-1,26
 88 109 88 109 62 154 c 1,27,28
 58 174 58 174 58 212 c 0,29,30
 58 313 58 313 86 420.5 c 128,-1,31
 114 528 114 528 154 533 c 1,32,33
 243 540 243 540 278 549.5 c 128,-1,34
 313 559 313 559 336 567 c 1,35,36
 336 422 336 422 289 375 c 0,37,38
 266 352 266 352 242 344 c 128,-1,39
 218 336 218 336 195.5 336 c 128,-1,40
 173 336 173 336 133 343 c 1,41,-1
 126 299 l 1,42,43
 195 243 195 243 283 243 c 1,22,23
EndSplineSet
EndChar

StartChar: logicalnot
Encoding: 172 172 108
Width: 733
GlyphClass: 2
Flags: W
LayerCount: 2
Fore
SplineSet
259 440 m 1,0,-1
 554 446 l 1,1,2
 638 446 638 446 638 370 c 0,3,4
 638 336 638 336 612 262.5 c 128,-1,5
 586 189 586 189 586 160 c 128,-1,6
 586 131 586 131 594 105 c 1,7,8
 548 81 548 81 496 81 c 0,9,10
 432 81 432 81 432 136 c 0,11,12
 432 172 432 172 454 236 c 128,-1,13
 476 300 476 300 478 307 c 1,14,15
 434 305 434 305 317.5 294 c 128,-1,16
 201 283 201 283 139 283 c 0,17,18
 95 283 95 283 95 344 c 128,-1,19
 95 405 95 405 129 458 c 1,20,21
 178 440 178 440 259 440 c 1,0,-1
EndSplineSet
EndChar

StartChar: registered
Encoding: 174 174 109
Width: 896
GlyphClass: 2
Flags: W
LayerCount: 2
Fore
SplineSet
231 285 m 128,-1,1
 308 213 308 213 415.5 213 c 128,-1,2
 523 213 523 213 600.5 261.5 c 128,-1,3
 678 310 678 310 717 384.5 c 128,-1,4
 756 459 756 459 756 543 c 0,5,6
 756 648 756 648 683 731.5 c 128,-1,7
 610 815 610 815 473.5 815 c 128,-1,8
 337 815 337 815 245.5 731 c 128,-1,9
 154 647 154 647 154 502 c 128,-1,0
 154 357 154 357 231 285 c 128,-1,1
536.5 166 m 128,-1,11
 481 150 481 150 419.5 150 c 128,-1,12
 358 150 358 150 298 171.5 c 128,-1,13
 238 193 238 193 190 234.5 c 128,-1,14
 142 276 142 276 113.5 343 c 128,-1,15
 85 410 85 410 85 493 c 0,16,17
 85 675 85 675 209 785.5 c 128,-1,18
 333 896 333 896 537 896 c 0,19,20
 602 896 602 896 624 878.5 c 128,-1,21
 646 861 646 861 650 818 c 1,22,23
 730 775 730 775 770.5 702.5 c 128,-1,24
 811 630 811 630 811 550 c 128,-1,25
 811 470 811 470 789 405 c 128,-1,26
 767 340 767 340 729.5 293.5 c 128,-1,27
 692 247 692 247 642 214.5 c 128,-1,10
 592 182 592 182 536.5 166 c 128,-1,11
471 408 m 2,28,-1
 453 461 l 1,29,30
 424 461 424 461 397 470 c 1,31,32
 391 437 391 437 391 421 c 0,33,34
 391 371 391 371 407 344 c 1,35,36
 374 320 374 320 340.5 320 c 128,-1,37
 307 320 307 320 292 340 c 128,-1,38
 277 360 277 360 277 399.5 c 128,-1,39
 277 439 277 439 310 623 c 1,40,-1
 282 680 l 1,41,42
 342 718 342 718 385.5 718 c 128,-1,43
 429 718 429 718 450 702 c 1,44,45
 489 718 489 718 530 718 c 128,-1,46
 571 718 571 718 599.5 685 c 128,-1,47
 628 652 628 652 628 606 c 0,48,49
 628 530 628 530 559 488 c 1,50,51
 598 375 598 375 644 350 c 1,52,53
 633 339 633 339 610 330 c 128,-1,54
 587 321 587 321 559.5 321 c 128,-1,55
 532 321 532 321 510 339 c 128,-1,56
 488 357 488 357 471 408 c 2,28,-1
420 527 m 0,57,58
 463 527 463 527 486.5 549 c 128,-1,59
 510 571 510 571 510 596 c 128,-1,60
 510 621 510 621 496.5 635.5 c 128,-1,61
 483 650 483 650 462 650 c 128,-1,62
 441 650 441 650 429 647 c 1,63,64
 419 571 419 571 408 528 c 1,65,66
 412 527 412 527 420 527 c 0,57,58
EndSplineSet
EndChar

StartChar: macron
Encoding: 175 175 110
Width: 555
GlyphClass: 2
Flags: W
LayerCount: 2
Fore
SplineSet
167 832 m 2,0,-1
 406 838 l 1,1,2
 485 838 485 838 485 767 c 0,3,4
 485 725 485 725 470 695 c 1,5,6
 445 709 445 709 397 709 c 128,-1,7
 349 709 349 709 248.5 697 c 128,-1,8
 148 685 148 685 109 685 c 128,-1,9
 70 685 70 685 70 735 c 128,-1,10
 70 785 70 785 102 844 c 1,11,12
 131 832 131 832 167 832 c 2,0,-1
EndSplineSet
EndChar

StartChar: degree
Encoding: 176 176 111
Width: 520
GlyphClass: 2
Flags: W
LayerCount: 2
Fore
SplineSet
403.5 528 m 128,-1,1
 337 467 337 467 243 467 c 128,-1,2
 149 467 149 467 99.5 510.5 c 128,-1,3
 50 554 50 554 50 625 c 0,4,5
 50 722 50 722 116.5 783 c 128,-1,6
 183 844 183 844 277 844 c 128,-1,7
 371 844 371 844 420.5 800.5 c 128,-1,8
 470 757 470 757 470 686 c 0,9,0
 470 589 470 589 403.5 528 c 128,-1,1
241 553 m 0,10,11
 275 553 275 553 302 595 c 128,-1,12
 329 637 329 637 329 690 c 0,13,14
 329 756 329 756 264 756 c 0,15,16
 256 756 256 756 234 754 c 1,17,18
 189 697 189 697 189 631 c 0,19,20
 189 598 189 598 203 575.5 c 128,-1,21
 217 553 217 553 241 553 c 0,10,11
EndSplineSet
EndChar

StartChar: plusminus
Encoding: 177 177 112
Width: 733
GlyphClass: 2
Flags: W
LayerCount: 2
Fore
SplineSet
259 29 m 1,0,-1
 554 35 l 1,1,2
 633 35 633 35 633 -41 c 0,3,4
 633 -85 633 -85 615 -120 c 1,5,6
 576 -104 576 -104 508.5 -104 c 128,-1,7
 441 -104 441 -104 320 -116 c 128,-1,8
 199 -128 199 -128 139 -128 c 0,9,10
 100 -128 100 -128 100 -64 c 128,-1,11
 100 0 100 0 131 46 c 1,12,13
 185 29 185 29 259 29 c 1,0,-1
139 283 m 0,14,15
 100 283 100 283 100 347 c 128,-1,16
 100 411 100 411 131 457 c 1,17,18
 185 440 185 440 292 440 c 1,19,20
 290 518 290 518 290 557 c 0,21,22
 290 636 290 636 366 636 c 0,23,24
 410 636 410 636 445 618 c 1,25,26
 429 579 429 579 429 522 c 128,-1,27
 429 465 429 465 431 443 c 1,28,29
 492 446 492 446 554 446 c 0,30,31
 633 446 633 446 633 370 c 0,32,33
 633 326 633 326 615 291 c 1,34,35
 576 307 576 307 505 307 c 0,36,37
 483 307 483 307 443 305 c 1,38,39
 453 195 453 195 453 142 c 0,40,41
 453 103 453 103 389 103 c 128,-1,42
 325 103 325 103 279 134 c 1,43,44
 296 188 296 188 296 292 c 1,45,46
 201 283 201 283 139 283 c 0,14,15
EndSplineSet
EndChar

StartChar: twosuperior
Encoding: 178 178 113
Width: 500
GlyphClass: 2
Flags: W
LayerCount: 2
Fore
SplineSet
133 395 m 1,0,-1
 150 394 l 1,1,2
 248 477 248 477 248 529 c 0,3,4
 248 563 248 563 218 563 c 0,5,6
 179 563 179 563 154 487 c 1,7,8
 106 487 106 487 81.5 508 c 128,-1,9
 57 529 57 529 57 564 c 0,10,11
 57 618 57 618 109.5 659 c 128,-1,12
 162 700 162 700 260.5 700 c 128,-1,13
 359 700 359 700 403 658.5 c 128,-1,14
 447 617 447 617 447 562 c 0,15,16
 447 467 447 467 308 357 c 1,17,18
 336 352 336 352 359 352 c 1,19,-1
 454 389 l 1,20,21
 469 354 469 354 469 313 c 0,22,23
 469 253 469 253 434 223 c 128,-1,24
 399 193 399 193 340.5 193 c 128,-1,25
 282 193 282 193 179 228 c 1,26,27
 141 198 141 198 95 198 c 128,-1,28
 49 198 49 198 25.5 223.5 c 128,-1,29
 2 249 2 249 2 289 c 128,-1,30
 2 329 2 329 36 362 c 128,-1,31
 70 395 70 395 133 395 c 1,0,-1
EndSplineSet
EndChar

StartChar: threesuperior
Encoding: 179 179 114
Width: 471
GlyphClass: 2
Flags: W
LayerCount: 2
Fore
SplineSet
358 458 m 1,0,1
 417 418 417 418 417 352.5 c 128,-1,2
 417 287 417 287 347 240 c 128,-1,3
 277 193 277 193 167 193 c 0,4,5
 29 193 29 193 29 282 c 0,6,7
 29 318 29 318 56 339 c 128,-1,8
 83 360 83 360 114.5 360 c 128,-1,9
 146 360 146 360 173.5 345 c 128,-1,10
 201 330 201 330 214 301 c 1,11,12
 227 306 227 306 235.5 324 c 128,-1,13
 244 342 244 342 244 363 c 128,-1,14
 244 384 244 384 235 396 c 1,15,16
 208 378 208 378 180 378 c 128,-1,17
 152 378 152 378 138 392.5 c 128,-1,18
 124 407 124 407 124 427 c 0,19,20
 124 486 124 486 244 486 c 1,21,22
 251 499 251 499 251 519.5 c 128,-1,23
 251 540 251 540 236.5 554 c 128,-1,24
 222 568 222 568 203 568 c 128,-1,25
 184 568 184 568 168 554.5 c 128,-1,26
 152 541 152 541 148 512 c 1,27,28
 105 512 105 512 81.5 534 c 128,-1,29
 58 556 58 556 58 586 c 0,30,31
 58 631 58 631 105 665 c 128,-1,32
 152 699 152 699 242 699 c 128,-1,33
 332 699 332 699 376 658.5 c 128,-1,34
 420 618 420 618 420 569 c 0,35,36
 420 502 420 502 358 458 c 1,0,1
EndSplineSet
EndChar

StartChar: acute
Encoding: 180 180 115
Width: 476
GlyphClass: 2
Flags: W
LayerCount: 2
Fore
SplineSet
126 653 m 0,0,1
 104 653 104 653 88.5 671.5 c 128,-1,2
 73 690 73 690 70 729 c 1,3,4
 113 739 113 739 165.5 779 c 128,-1,5
 218 819 218 819 265.5 852.5 c 128,-1,6
 313 886 313 886 350 886 c 0,7,8
 406 886 406 886 406 791 c 0,9,10
 406 752 406 752 396 718 c 1,11,12
 382 720 382 720 373 720 c 0,13,14
 327 720 327 720 247.5 686.5 c 128,-1,15
 168 653 168 653 126 653 c 0,0,1
EndSplineSet
EndChar

StartChar: mu
Encoding: 181 181 116
Width: 771
GlyphClass: 2
Flags: W
LayerCount: 2
Fore
SplineSet
211 -4 m 1,0,1
 211 -108 211 -108 292 -194 c 1,2,3
 256 -217 256 -217 232 -226 c 128,-1,4
 208 -235 208 -235 176 -235 c 0,5,6
 105 -235 105 -235 71 -190 c 128,-1,7
 37 -145 37 -145 37 -76.5 c 128,-1,8
 37 -8 37 -8 76.5 188 c 128,-1,9
 116 384 116 384 116 453 c 128,-1,10
 116 522 116 522 95 551 c 1,11,12
 188 600 188 600 252 600 c 0,13,14
 293 600 293 600 311.5 583.5 c 128,-1,15
 330 567 330 567 330 530 c 128,-1,16
 330 493 330 493 299.5 348.5 c 128,-1,17
 269 204 269 204 269 170 c 128,-1,18
 269 136 269 136 288 116.5 c 128,-1,19
 307 97 307 97 343.5 97 c 128,-1,20
 380 97 380 97 410 121.5 c 128,-1,21
 440 146 440 146 455.5 189 c 128,-1,22
 471 232 471 232 479.5 275 c 128,-1,23
 488 318 488 318 497 369 c 128,-1,24
 506 420 506 420 516 447 c 1,25,-1
 456 527 l 1,26,27
 557 600 557 600 648 600 c 0,28,29
 693 600 693 600 712.5 583.5 c 128,-1,30
 732 567 732 567 732 533.5 c 128,-1,31
 732 500 732 500 695.5 342 c 128,-1,32
 659 184 659 184 659 117.5 c 128,-1,33
 659 51 659 51 690 24 c 1,34,35
 634 -25 634 -25 572.5 -25 c 128,-1,36
 511 -25 511 -25 484 2 c 128,-1,37
 457 29 457 29 457 73 c 1,38,-1
 447 78 l 1,39,40
 378 -24 378 -24 288 -24 c 0,41,42
 244 -24 244 -24 211 -4 c 1,0,1
EndSplineSet
EndChar

StartChar: paragraph
Encoding: 182 182 117
Width: 732
GlyphClass: 2
Flags: W
LayerCount: 2
Fore
SplineSet
447 -199 m 0,0,1
 316 -199 316 -199 316 -44 c 0,2,3
 316 56 316 56 367 184.5 c 128,-1,4
 418 313 418 313 483 392 c 1,5,-1
 462 404 l 1,6,7
 377 264 377 264 245 264 c 0,8,9
 156 264 156 264 107.5 322 c 128,-1,10
 59 380 59 380 59 465 c 0,11,12
 59 579 59 579 140 674 c 0,13,14
 179 719 179 719 242.5 747 c 128,-1,15
 306 775 306 775 384 775 c 0,16,17
 524 775 524 775 604 701 c 0,18,19
 634 674 634 674 653 628 c 128,-1,20
 672 582 672 582 672 526.5 c 128,-1,21
 672 471 672 471 645 369.5 c 128,-1,22
 618 268 618 268 591 150.5 c 128,-1,23
 564 33 564 33 564 -59 c 0,24,25
 564 -123 564 -123 595 -150 c 1,26,27
 522 -199 522 -199 447 -199 c 0,0,1
EndSplineSet
EndChar

StartChar: periodcentered
Encoding: 183 183 118
Width: 333
GlyphClass: 2
Flags: W
LayerCount: 2
Fore
SplineSet
80.5 210.5 m 128,-1,1
 50 241 50 241 50 288.5 c 128,-1,2
 50 336 50 336 87 374 c 128,-1,3
 124 412 124 412 173 412 c 128,-1,4
 222 412 222 412 252.5 381.5 c 128,-1,5
 283 351 283 351 283 303.5 c 128,-1,6
 283 256 283 256 246 218 c 128,-1,7
 209 180 209 180 160 180 c 128,-1,0
 111 180 111 180 80.5 210.5 c 128,-1,1
EndSplineSet
EndChar

StartChar: cedilla
Encoding: 184 184 119
Width: 663
GlyphClass: 2
Flags: W
LayerCount: 2
Fore
SplineSet
183 28 m 1,0,-1
 257 28 l 2,1,2
 341 28 341 28 386 -12.5 c 128,-1,3
 431 -53 431 -53 431 -116.5 c 128,-1,4
 431 -180 431 -180 374 -233.5 c 128,-1,5
 317 -287 317 -287 230.5 -287 c 128,-1,6
 144 -287 144 -287 107.5 -254.5 c 128,-1,7
 71 -222 71 -222 71 -176 c 128,-1,8
 71 -130 71 -130 109 -95 c 128,-1,9
 147 -60 147 -60 205 -60 c 1,10,11
 177 -85 177 -85 177 -130 c 0,12,13
 177 -158 177 -158 191.5 -173 c 128,-1,14
 206 -188 206 -188 232 -188 c 128,-1,15
 258 -188 258 -188 283 -163 c 128,-1,16
 308 -138 308 -138 308 -97.5 c 128,-1,17
 308 -57 308 -57 276 -21 c 128,-1,18
 244 15 244 15 183 28 c 1,0,-1
EndSplineSet
EndChar

StartChar: onesuperior
Encoding: 185 185 120
Width: 377
GlyphClass: 2
Flags: W
LayerCount: 2
Fore
SplineSet
88 317 m 0,0,1
 88 360 88 360 115 492 c 1,2,3
 68 492 68 492 34.5 521.5 c 128,-1,4
 1 551 1 551 -2 613 c 1,5,6
 52 620 52 620 102.5 642 c 128,-1,7
 153 664 153 664 191 682 c 128,-1,8
 229 700 229 700 258 700 c 0,9,10
 330 700 330 700 330 632 c 0,11,12
 330 604 330 604 304.5 488 c 128,-1,13
 279 372 279 372 279 312 c 128,-1,14
 279 252 279 252 300 227 c 1,15,16
 247 193 247 193 192 193 c 0,17,18
 88 193 88 193 88 317 c 0,0,1
EndSplineSet
EndChar

StartChar: ordmasculine
Encoding: 186 186 121
Width: 504
GlyphClass: 2
Flags: W
LayerCount: 2
Fore
SplineSet
31 477 m 0,0,1
 31 590 31 590 101.5 660.5 c 128,-1,2
 172 731 172 731 282 731 c 0,3,4
 313 731 313 731 336 724 c 1,5,6
 344 702 344 702 346 678 c 1,7,8
 358 680 358 680 364 680 c 0,9,10
 405 680 405 680 434 646.5 c 128,-1,11
 463 613 463 613 463 551 c 0,12,13
 463 432 463 432 391.5 360.5 c 128,-1,14
 320 289 320 289 228.5 289 c 128,-1,15
 137 289 137 289 84 340.5 c 128,-1,16
 31 392 31 392 31 477 c 0,0,1
241 390 m 0,17,18
 291 390 291 390 321 437.5 c 128,-1,19
 351 485 351 485 351 533 c 0,20,21
 351 631 351 631 287 631 c 0,22,23
 236 631 236 631 205 583.5 c 128,-1,24
 174 536 174 536 174 488 c 0,25,26
 174 390 174 390 241 390 c 0,17,18
EndSplineSet
EndChar

StartChar: guillemotright
Encoding: 187 187 122
Width: 694
GlyphClass: 2
Flags: W
LayerCount: 2
Fore
SplineSet
99 335 m 1,0,1
 108 560 108 560 158 560 c 0,2,3
 193 560 193 560 243.5 514.5 c 128,-1,4
 294 469 294 469 320 424 c 1,5,6
 324 404 324 404 324 366 c 0,7,8
 324 265 324 265 296 157.5 c 128,-1,9
 268 50 268 50 228 45 c 1,10,11
 139 38 139 38 104 28.5 c 128,-1,12
 69 19 69 19 46 11 c 1,13,14
 46 156 46 156 93 203 c 0,15,16
 116 226 116 226 140 234 c 128,-1,17
 164 242 164 242 186.5 242 c 128,-1,18
 209 242 209 242 249 235 c 1,19,-1
 256 279 l 1,20,21
 187 335 187 335 99 335 c 1,0,1
411 335 m 1,22,23
 420 560 420 560 470 560 c 0,24,25
 505 560 505 560 555.5 514.5 c 128,-1,26
 606 469 606 469 632 424 c 1,27,28
 636 404 636 404 636 366 c 0,29,30
 636 265 636 265 608 157.5 c 128,-1,31
 580 50 580 50 540 45 c 1,32,33
 451 38 451 38 416 28.5 c 128,-1,34
 381 19 381 19 358 11 c 1,35,36
 358 156 358 156 405 203 c 0,37,38
 428 226 428 226 452 234 c 128,-1,39
 476 242 476 242 498.5 242 c 128,-1,40
 521 242 521 242 561 235 c 1,41,-1
 568 279 l 1,42,43
 499 335 499 335 411 335 c 1,22,23
EndSplineSet
EndChar

StartChar: onequarter
Encoding: 188 188 123
Width: 1150
GlyphClass: 2
Flags: W
LayerCount: 2
Fore
SplineSet
297 13 m 1,0,1
 343 64 343 64 401 177 c 1,2,3
 445 267 445 267 514.5 411.5 c 128,-1,4
 584 556 584 556 625.5 640.5 c 128,-1,5
 667 725 667 725 732 725 c 0,6,7
 770 725 770 725 799 699 c 1,8,9
 753 654 753 654 699 545.5 c 128,-1,10
 645 437 645 437 565.5 258.5 c 128,-1,11
 486 80 486 80 460.5 27.5 c 128,-1,12
 435 -25 435 -25 383.5 -25 c 128,-1,13
 332 -25 332 -25 297 13 c 1,0,1
156 317 m 0,14,15
 156 360 156 360 183 492 c 1,16,17
 136 492 136 492 102.5 521.5 c 128,-1,18
 69 551 69 551 66 613 c 1,19,20
 120 620 120 620 170.5 642 c 128,-1,21
 221 664 221 664 259 682 c 128,-1,22
 297 700 297 700 326 700 c 0,23,24
 398 700 398 700 398 632 c 0,25,26
 398 604 398 604 372.5 488 c 128,-1,27
 347 372 347 372 347 312 c 128,-1,28
 347 252 347 252 368 227 c 1,29,30
 315 193 315 193 260 193 c 0,31,32
 156 193 156 193 156 317 c 0,14,15
644 139 m 0,33,34
 644 171 644 171 690.5 280.5 c 128,-1,35
 737 390 737 390 737 438 c 0,36,37
 737 457 737 457 728 469 c 1,38,39
 783 488 783 488 822 488 c 0,40,41
 931 488 931 488 931 412 c 0,42,43
 931 360 931 360 898.5 297 c 128,-1,44
 866 234 866 234 813 180 c 1,45,-1
 872 180 l 1,46,47
 890 230 890 230 915 273 c 1,48,49
 936 291 936 291 978 305.5 c 128,-1,50
 1020 320 1020 320 1049 320 c 128,-1,51
 1078 320 1078 320 1086 314.5 c 128,-1,52
 1094 309 1094 309 1094 297 c 128,-1,53
 1094 285 1094 285 1078 203.5 c 128,-1,54
 1062 122 1062 122 1062 78 c 128,-1,55
 1062 34 1062 34 1084 15 c 1,56,57
 1026 -19 1026 -19 967.5 -19 c 128,-1,58
 909 -19 909 -19 881.5 6 c 128,-1,59
 854 31 854 31 851 72 c 1,60,61
 813 67 813 67 779 67 c 0,62,63
 644 67 644 67 644 139 c 0,33,34
EndSplineSet
EndChar

StartChar: onehalf
Encoding: 189 189 124
Width: 1150
GlyphClass: 2
Flags: W
LayerCount: 2
Fore
SplineSet
283 13 m 1,0,1
 329 64 329 64 387 177 c 1,2,3
 431 267 431 267 500.5 411.5 c 128,-1,4
 570 556 570 556 611.5 640.5 c 128,-1,5
 653 725 653 725 718 725 c 0,6,7
 756 725 756 725 785 699 c 1,8,9
 739 654 739 654 685 545.5 c 128,-1,10
 631 437 631 437 551.5 258.5 c 128,-1,11
 472 80 472 80 446.5 27.5 c 128,-1,12
 421 -25 421 -25 369.5 -25 c 128,-1,13
 318 -25 318 -25 283 13 c 1,0,1
142 317 m 0,14,15
 142 360 142 360 169 492 c 1,16,17
 122 492 122 492 88.5 521.5 c 128,-1,18
 55 551 55 551 52 613 c 1,19,20
 106 620 106 620 156.5 642 c 128,-1,21
 207 664 207 664 245 682 c 128,-1,22
 283 700 283 700 312 700 c 0,23,24
 384 700 384 700 384 632 c 0,25,26
 384 604 384 604 358.5 488 c 128,-1,27
 333 372 333 372 333 312 c 128,-1,28
 333 252 333 252 354 227 c 1,29,30
 301 193 301 193 246 193 c 0,31,32
 142 193 142 193 142 317 c 0,14,15
749 183 m 1,33,-1
 766 182 l 1,34,35
 864 265 864 265 864 317 c 0,36,37
 864 351 864 351 834 351 c 0,38,39
 795 351 795 351 770 275 c 1,40,41
 722 275 722 275 697.5 296 c 128,-1,42
 673 317 673 317 673 352 c 0,43,44
 673 406 673 406 725.5 447 c 128,-1,45
 778 488 778 488 876.5 488 c 128,-1,46
 975 488 975 488 1019 446.5 c 128,-1,47
 1063 405 1063 405 1063 350 c 0,48,49
 1063 255 1063 255 924 145 c 1,50,51
 952 140 952 140 975 140 c 1,52,-1
 1070 177 l 1,53,54
 1085 142 1085 142 1085 101 c 0,55,56
 1085 41 1085 41 1050 11 c 128,-1,57
 1015 -19 1015 -19 956.5 -19 c 128,-1,58
 898 -19 898 -19 795 16 c 1,59,60
 757 -14 757 -14 711 -14 c 128,-1,61
 665 -14 665 -14 641.5 11.5 c 128,-1,62
 618 37 618 37 618 77 c 128,-1,63
 618 117 618 117 652 150 c 128,-1,64
 686 183 686 183 749 183 c 1,33,-1
EndSplineSet
EndChar

StartChar: threequarters
Encoding: 190 190 125
Width: 1150
GlyphClass: 2
Flags: W
LayerCount: 2
Fore
SplineSet
318 13 m 1,0,1
 364 64 364 64 422 177 c 1,2,3
 466 267 466 267 535.5 411.5 c 128,-1,4
 605 556 605 556 646.5 640.5 c 128,-1,5
 688 725 688 725 753 725 c 0,6,7
 791 725 791 725 820 699 c 1,8,9
 774 654 774 654 720 545.5 c 128,-1,10
 666 437 666 437 586.5 258.5 c 128,-1,11
 507 80 507 80 481.5 27.5 c 128,-1,12
 456 -25 456 -25 404.5 -25 c 128,-1,13
 353 -25 353 -25 318 13 c 1,0,1
365 458 m 1,14,15
 424 418 424 418 424 352.5 c 128,-1,16
 424 287 424 287 354 240 c 128,-1,17
 284 193 284 193 174 193 c 0,18,19
 36 193 36 193 36 282 c 0,20,21
 36 318 36 318 63 339 c 128,-1,22
 90 360 90 360 121.5 360 c 128,-1,23
 153 360 153 360 180.5 345 c 128,-1,24
 208 330 208 330 221 301 c 1,25,26
 234 306 234 306 242.5 324 c 128,-1,27
 251 342 251 342 251 363 c 128,-1,28
 251 384 251 384 242 396 c 1,29,30
 215 378 215 378 187 378 c 128,-1,31
 159 378 159 378 145 392.5 c 128,-1,32
 131 407 131 407 131 427 c 0,33,34
 131 486 131 486 251 486 c 1,35,36
 258 499 258 499 258 519.5 c 128,-1,37
 258 540 258 540 243.5 554 c 128,-1,38
 229 568 229 568 210 568 c 128,-1,39
 191 568 191 568 175 554.5 c 128,-1,40
 159 541 159 541 155 512 c 1,41,42
 112 512 112 512 88.5 534 c 128,-1,43
 65 556 65 556 65 586 c 0,44,45
 65 631 65 631 112 665 c 128,-1,46
 159 699 159 699 249 699 c 128,-1,47
 339 699 339 699 383 658.5 c 128,-1,48
 427 618 427 618 427 569 c 0,49,50
 427 502 427 502 365 458 c 1,14,15
665 139 m 0,51,52
 665 171 665 171 711.5 280.5 c 128,-1,53
 758 390 758 390 758 438 c 0,54,55
 758 457 758 457 749 469 c 1,56,57
 804 488 804 488 843 488 c 0,58,59
 952 488 952 488 952 412 c 0,60,61
 952 360 952 360 919.5 297 c 128,-1,62
 887 234 887 234 834 180 c 1,63,-1
 893 180 l 1,64,65
 911 230 911 230 936 273 c 1,66,67
 957 291 957 291 999 305.5 c 128,-1,68
 1041 320 1041 320 1070 320 c 128,-1,69
 1099 320 1099 320 1107 314.5 c 128,-1,70
 1115 309 1115 309 1115 297 c 128,-1,71
 1115 285 1115 285 1099 203.5 c 128,-1,72
 1083 122 1083 122 1083 78 c 128,-1,73
 1083 34 1083 34 1105 15 c 1,74,75
 1047 -19 1047 -19 988.5 -19 c 128,-1,76
 930 -19 930 -19 902.5 6 c 128,-1,77
 875 31 875 31 872 72 c 1,78,79
 834 67 834 67 800 67 c 0,80,81
 665 67 665 67 665 139 c 0,51,52
EndSplineSet
EndChar

StartChar: questiondown
Encoding: 191 191 126
Width: 602
GlyphClass: 2
Flags: W
LayerCount: 2
Fore
SplineSet
388 194 m 1,0,1
 329 179 329 179 293 140 c 128,-1,2
 257 101 257 101 257 61 c 0,3,4
 257 -25 257 -25 334 -25 c 0,5,6
 420 -25 420 -25 458 93 c 1,7,8
 505 88 505 88 530 58 c 128,-1,9
 555 28 555 28 555 -14 c 0,10,11
 555 -86 555 -86 490.5 -143 c 128,-1,12
 426 -200 426 -200 300.5 -200 c 128,-1,13
 175 -200 175 -200 109 -134 c 128,-1,14
 43 -68 43 -68 43 26 c 0,15,16
 43 148 43 148 113.5 230 c 128,-1,17
 184 312 184 312 274 312 c 0,18,19
 324 312 324 312 356 279 c 128,-1,20
 388 246 388 246 388 194 c 1,0,1
446.5 569.5 m 128,-1,22
 477 539 477 539 477 491.5 c 128,-1,23
 477 444 477 444 440 406 c 128,-1,24
 403 368 403 368 354 368 c 128,-1,25
 305 368 305 368 274.5 398.5 c 128,-1,26
 244 429 244 429 244 476.5 c 128,-1,27
 244 524 244 524 281 562 c 128,-1,28
 318 600 318 600 367 600 c 128,-1,21
 416 600 416 600 446.5 569.5 c 128,-1,22
EndSplineSet
EndChar

StartChar: Agrave
Encoding: 192 192 127
Width: 729
GlyphClass: 2
Flags: W
LayerCount: 2
Fore
SplineSet
635 578 m 1,0,-1
 627 340 l 1,1,2
 627 217 627 217 647.5 133 c 128,-1,3
 668 49 668 49 724 17 c 1,4,5
 655 -26 655 -26 584 -26 c 0,6,7
 459 -26 459 -26 430 176 c 1,8,-1
 226 176 l 1,9,10
 207 111 207 111 207 76.5 c 128,-1,11
 207 42 207 42 215 21 c 1,12,13
 141 -26 141 -26 83 -26 c 0,14,15
 -6 -26 -6 -26 -6 82 c 0,16,17
 -6 136 -6 136 27.5 218 c 128,-1,18
 61 300 61 300 116.5 406 c 128,-1,19
 172 512 172 512 187 546 c 1,20,21
 176 600 176 600 162 652 c 1,22,23
 214 688 214 688 262.5 706.5 c 128,-1,24
 311 725 311 725 367.5 725 c 128,-1,25
 424 725 424 725 446 700 c 1,26,27
 503 725 503 725 540 725 c 128,-1,28
 577 725 577 725 595 713 c 128,-1,29
 613 701 613 701 621 678 c 0,30,31
 635 638 635 638 635 578 c 1,0,-1
434 555 m 1,32,-1
 402 555 l 1,33,34
 312 381 312 381 268 281 c 1,35,-1
 423 281 l 1,36,37
 423 390 423 390 434 555 c 1,32,-1
559 753 m 0,38,39
 517 753 517 753 437.5 786.5 c 128,-1,40
 358 820 358 820 312 820 c 0,41,42
 303 820 303 820 289 818 c 1,43,44
 279 852 279 852 279 891 c 0,45,46
 279 986 279 986 335 986 c 0,47,48
 372 986 372 986 419.5 952.5 c 128,-1,49
 467 919 467 919 519.5 879 c 128,-1,50
 572 839 572 839 615 829 c 1,51,52
 612 790 612 790 596.5 771.5 c 128,-1,53
 581 753 581 753 559 753 c 0,38,39
EndSplineSet
EndChar

StartChar: Aacute
Encoding: 193 193 128
Width: 729
GlyphClass: 2
Flags: W
LayerCount: 2
Fore
SplineSet
635 578 m 1,0,-1
 627 340 l 1,1,2
 627 217 627 217 647.5 133 c 128,-1,3
 668 49 668 49 724 17 c 1,4,5
 655 -26 655 -26 584 -26 c 0,6,7
 459 -26 459 -26 430 176 c 1,8,-1
 226 176 l 1,9,10
 207 111 207 111 207 76.5 c 128,-1,11
 207 42 207 42 215 21 c 1,12,13
 141 -26 141 -26 83 -26 c 0,14,15
 -6 -26 -6 -26 -6 82 c 0,16,17
 -6 136 -6 136 27.5 218 c 128,-1,18
 61 300 61 300 116.5 406 c 128,-1,19
 172 512 172 512 187 546 c 1,20,21
 176 600 176 600 162 652 c 1,22,23
 214 688 214 688 262.5 706.5 c 128,-1,24
 311 725 311 725 367.5 725 c 128,-1,25
 424 725 424 725 446 700 c 1,26,27
 503 725 503 725 540 725 c 128,-1,28
 577 725 577 725 595 713 c 128,-1,29
 613 701 613 701 621 678 c 0,30,31
 635 638 635 638 635 578 c 1,0,-1
434 555 m 1,32,-1
 402 555 l 1,33,34
 312 381 312 381 268 281 c 1,35,-1
 423 281 l 1,36,37
 423 390 423 390 434 555 c 1,32,-1
335 753 m 0,38,39
 313 753 313 753 297.5 771.5 c 128,-1,40
 282 790 282 790 279 829 c 1,41,42
 322 839 322 839 374.5 879 c 128,-1,43
 427 919 427 919 474.5 952.5 c 128,-1,44
 522 986 522 986 559 986 c 0,45,46
 615 986 615 986 615 891 c 0,47,48
 615 852 615 852 605 818 c 1,49,50
 591 820 591 820 582 820 c 0,51,52
 536 820 536 820 456.5 786.5 c 128,-1,53
 377 753 377 753 335 753 c 0,38,39
EndSplineSet
EndChar

StartChar: Acircumflex
Encoding: 194 194 129
Width: 729
GlyphClass: 2
Flags: W
LayerCount: 2
Fore
SplineSet
635 578 m 1,0,-1
 627 340 l 1,1,2
 627 217 627 217 647.5 133 c 128,-1,3
 668 49 668 49 724 17 c 1,4,5
 655 -26 655 -26 584 -26 c 0,6,7
 459 -26 459 -26 430 176 c 1,8,-1
 226 176 l 1,9,10
 207 111 207 111 207 76.5 c 128,-1,11
 207 42 207 42 215 21 c 1,12,13
 141 -26 141 -26 83 -26 c 0,14,15
 -6 -26 -6 -26 -6 82 c 0,16,17
 -6 136 -6 136 27.5 218 c 128,-1,18
 61 300 61 300 116.5 406 c 128,-1,19
 172 512 172 512 187 546 c 1,20,21
 176 600 176 600 162 652 c 1,22,23
 214 688 214 688 262.5 706.5 c 128,-1,24
 311 725 311 725 367.5 725 c 128,-1,25
 424 725 424 725 446 700 c 1,26,27
 503 725 503 725 540 725 c 128,-1,28
 577 725 577 725 595 713 c 128,-1,29
 613 701 613 701 621 678 c 0,30,31
 635 638 635 638 635 578 c 1,0,-1
434 555 m 1,32,-1
 402 555 l 1,33,34
 312 381 312 381 268 281 c 1,35,-1
 423 281 l 1,36,37
 423 390 423 390 434 555 c 1,32,-1
650 946 m 1,38,-1
 640 823 l 1,39,40
 640 792 640 792 654 767 c 1,41,42
 623 759 623 759 575.5 759 c 128,-1,43
 528 759 528 759 507.5 780 c 128,-1,44
 487 801 487 801 487 841 c 0,45,46
 487 856 487 856 494 921 c 1,47,-1
 468 921 l 1,48,49
 408 847 408 847 408 771 c 1,50,51
 353 759 353 759 296 759 c 128,-1,52
 239 759 239 759 239 778 c 0,53,54
 239 820 239 820 363 958 c 1,55,56
 380 968 380 968 431 975.5 c 128,-1,57
 482 983 482 983 533 983 c 0,58,59
 650 983 650 983 650 946 c 1,38,-1
EndSplineSet
EndChar

StartChar: Atilde
Encoding: 195 195 130
Width: 729
GlyphClass: 2
Flags: W
LayerCount: 2
Fore
SplineSet
635 578 m 1,0,-1
 627 340 l 1,1,2
 627 217 627 217 647.5 133 c 128,-1,3
 668 49 668 49 724 17 c 1,4,5
 655 -26 655 -26 584 -26 c 0,6,7
 459 -26 459 -26 430 176 c 1,8,-1
 226 176 l 1,9,10
 207 111 207 111 207 76.5 c 128,-1,11
 207 42 207 42 215 21 c 1,12,13
 141 -26 141 -26 83 -26 c 0,14,15
 -6 -26 -6 -26 -6 82 c 0,16,17
 -6 136 -6 136 27.5 218 c 128,-1,18
 61 300 61 300 116.5 406 c 128,-1,19
 172 512 172 512 187 546 c 1,20,21
 176 600 176 600 162 652 c 1,22,23
 214 688 214 688 262.5 706.5 c 128,-1,24
 311 725 311 725 367.5 725 c 128,-1,25
 424 725 424 725 446 700 c 1,26,27
 503 725 503 725 540 725 c 128,-1,28
 577 725 577 725 595 713 c 128,-1,29
 613 701 613 701 621 678 c 0,30,31
 635 638 635 638 635 578 c 1,0,-1
434 555 m 1,32,-1
 402 555 l 1,33,34
 312 381 312 381 268 281 c 1,35,-1
 423 281 l 1,36,37
 423 390 423 390 434 555 c 1,32,-1
622 805 m 1,38,39
 582 825 582 825 539 825 c 128,-1,40
 496 825 496 825 419.5 795.5 c 128,-1,41
 343 766 343 766 305 766 c 0,42,43
 241 766 241 766 241 829 c 0,44,45
 241 875 241 875 268 934 c 1,46,47
 308 914 308 914 351 914 c 128,-1,48
 394 914 394 914 470.5 943.5 c 128,-1,49
 547 973 547 973 585 973 c 0,50,51
 649 973 649 973 649 910 c 0,52,53
 649 864 649 864 622 805 c 1,38,39
EndSplineSet
EndChar

StartChar: Adieresis
Encoding: 196 196 131
Width: 729
GlyphClass: 2
Flags: W
LayerCount: 2
Fore
SplineSet
635 578 m 1,0,-1
 627 340 l 1,1,2
 627 217 627 217 647.5 133 c 128,-1,3
 668 49 668 49 724 17 c 1,4,5
 655 -26 655 -26 584 -26 c 0,6,7
 459 -26 459 -26 430 176 c 1,8,-1
 226 176 l 1,9,10
 207 111 207 111 207 76.5 c 128,-1,11
 207 42 207 42 215 21 c 1,12,13
 141 -26 141 -26 83 -26 c 0,14,15
 -6 -26 -6 -26 -6 82 c 0,16,17
 -6 136 -6 136 27.5 218 c 128,-1,18
 61 300 61 300 116.5 406 c 128,-1,19
 172 512 172 512 187 546 c 1,20,21
 176 600 176 600 162 652 c 1,22,23
 214 688 214 688 262.5 706.5 c 128,-1,24
 311 725 311 725 367.5 725 c 128,-1,25
 424 725 424 725 446 700 c 1,26,27
 503 725 503 725 540 725 c 128,-1,28
 577 725 577 725 595 713 c 128,-1,29
 613 701 613 701 621 678 c 0,30,31
 635 638 635 638 635 578 c 1,0,-1
434 555 m 1,32,-1
 402 555 l 1,33,34
 312 381 312 381 268 281 c 1,35,-1
 423 281 l 1,36,37
 423 390 423 390 434 555 c 1,32,-1
670 801 m 128,-1,39
 633 771 633 771 587 771 c 128,-1,40
 541 771 541 771 514.5 791 c 128,-1,41
 488 811 488 811 488 846 c 0,42,43
 488 897 488 897 527.5 925.5 c 128,-1,44
 567 954 567 954 610.5 954 c 128,-1,45
 654 954 654 954 680.5 933.5 c 128,-1,46
 707 913 707 913 707 872 c 128,-1,38
 707 831 707 831 670 801 c 128,-1,39
369 801 m 128,-1,48
 332 771 332 771 286 771 c 128,-1,49
 240 771 240 771 213.5 791 c 128,-1,50
 187 811 187 811 187 846 c 0,51,52
 187 897 187 897 226.5 925.5 c 128,-1,53
 266 954 266 954 309.5 954 c 128,-1,54
 353 954 353 954 379.5 933.5 c 128,-1,55
 406 913 406 913 406 872 c 128,-1,47
 406 831 406 831 369 801 c 128,-1,48
EndSplineSet
EndChar

StartChar: Aring
Encoding: 197 197 132
Width: 729
GlyphClass: 2
Flags: W
LayerCount: 2
Fore
SplineSet
635 578 m 1,0,-1
 627 340 l 1,1,2
 627 217 627 217 647.5 133 c 128,-1,3
 668 49 668 49 724 17 c 1,4,5
 655 -26 655 -26 584 -26 c 0,6,7
 459 -26 459 -26 430 176 c 1,8,-1
 226 176 l 1,9,10
 207 111 207 111 207 76.5 c 128,-1,11
 207 42 207 42 215 21 c 1,12,13
 141 -26 141 -26 83 -26 c 0,14,15
 -6 -26 -6 -26 -6 82 c 0,16,17
 -6 136 -6 136 27.5 218 c 128,-1,18
 61 300 61 300 116.5 406 c 128,-1,19
 172 512 172 512 187 546 c 1,20,21
 176 600 176 600 162 652 c 1,22,23
 214 688 214 688 262.5 706.5 c 128,-1,24
 311 725 311 725 367.5 725 c 128,-1,25
 424 725 424 725 446 700 c 1,26,27
 503 725 503 725 540 725 c 128,-1,28
 577 725 577 725 595 713 c 128,-1,29
 613 701 613 701 621 678 c 0,30,31
 635 638 635 638 635 578 c 1,0,-1
434 555 m 1,32,-1
 402 555 l 1,33,34
 312 381 312 381 268 281 c 1,35,-1
 423 281 l 1,36,37
 423 390 423 390 434 555 c 1,32,-1
394.5 815.5 m 128,-1,39
 408 797 408 797 433.5 797 c 128,-1,40
 459 797 459 797 480.5 827 c 128,-1,41
 502 857 502 857 502 895 c 0,42,43
 502 952 502 952 442 952 c 0,44,45
 436 952 436 952 416 950 c 1,46,47
 381 911 381 911 381 861 c 0,48,38
 381 834 381 834 394.5 815.5 c 128,-1,39
564.5 776.5 m 128,-1,50
 513 732 513 732 436 732 c 128,-1,51
 359 732 359 732 319 766 c 128,-1,52
 279 800 279 800 279 857 c 0,53,54
 279 930 279 930 330.5 974.5 c 128,-1,55
 382 1019 382 1019 459 1019 c 128,-1,56
 536 1019 536 1019 576 985 c 128,-1,57
 616 951 616 951 616 894 c 0,58,49
 616 821 616 821 564.5 776.5 c 128,-1,50
EndSplineSet
EndChar

StartChar: AE
Encoding: 198 198 133
Width: 967
GlyphClass: 2
Flags: W
LayerCount: 2
Fore
SplineSet
705 246 m 2,0,-1
 634 246 l 1,1,2
 624 186 624 186 624 136 c 1,3,-1
 786 136 l 1,4,5
 862 147 862 147 939 175 c 1,6,7
 945 157 945 157 945 126 c 0,8,9
 945 67 945 67 910.5 21 c 128,-1,10
 876 -25 876 -25 815 -25 c 0,11,12
 783 -25 783 -25 721.5 -12.5 c 128,-1,13
 660 0 660 0 630 3 c 1,14,15
 582 -26 582 -26 523 -26 c 128,-1,16
 464 -26 464 -26 436 11.5 c 128,-1,17
 408 49 408 49 408 129 c 0,18,19
 408 166 408 166 419 246 c 1,20,-1
 246 246 l 1,21,22
 207 144 207 144 207 74 c 0,23,24
 207 42 207 42 215 21 c 1,25,26
 141 -26 141 -26 83 -26 c 0,27,28
 -6 -26 -6 -26 -6 82 c 0,29,30
 -6 136 -6 136 27.5 218 c 128,-1,31
 61 300 61 300 116.5 406 c 128,-1,32
 172 512 172 512 187 546 c 1,33,-1
 162 652 l 1,34,35
 392 726 392 726 584 726 c 0,36,37
 680 726 680 726 696 670 c 1,38,39
 810 673 810 673 979 721 c 1,40,41
 987 688 987 688 987 656 c 0,42,43
 987 575 987 575 933.5 534 c 128,-1,44
 880 493 880 493 796 493 c 0,45,46
 740 493 740 493 684 517 c 1,47,48
 679 489 679 489 655 363 c 1,49,-1
 719 363 l 2,50,51
 734 363 734 363 809 386 c 1,52,53
 814 369 814 369 814 330.5 c 128,-1,54
 814 292 814 292 783 269 c 128,-1,55
 752 246 752 246 705 246 c 2,0,-1
473 555 m 1,56,-1
 402 555 l 1,57,58
 339 449 339 449 297 363 c 1,59,-1
 438 363 l 1,60,-1
 473 555 l 1,56,-1
EndSplineSet
EndChar

StartChar: Ccedilla
Encoding: 199 199 134
Width: 683
GlyphClass: 2
Flags: W
LayerCount: 2
Fore
SplineSet
30 307 m 0,0,1
 30 377 30 377 60 449.5 c 128,-1,2
 90 522 90 522 145 584 c 128,-1,3
 200 646 200 646 288.5 685.5 c 128,-1,4
 377 725 377 725 471.5 725 c 128,-1,5
 566 725 566 725 619.5 690 c 128,-1,6
 673 655 673 655 673 593 c 128,-1,7
 673 531 673 531 632.5 496.5 c 128,-1,8
 592 462 592 462 540 462 c 128,-1,9
 488 462 488 462 446.5 484.5 c 128,-1,10
 405 507 405 507 380 549 c 1,11,12
 326 523 326 523 287 447 c 128,-1,13
 248 371 248 371 248 294.5 c 128,-1,14
 248 218 248 218 273 173.5 c 128,-1,15
 298 129 298 129 344 129 c 128,-1,16
 390 129 390 129 425.5 176 c 128,-1,17
 461 223 461 223 461 289 c 1,18,19
 562 289 562 289 605.5 273 c 128,-1,20
 649 257 649 257 649 204 c 0,21,22
 649 128 649 128 571 58 c 128,-1,23
 493 -12 493 -12 372 -23 c 1,24,25
 406 -58 406 -58 406 -111 c 0,26,27
 406 -180 406 -180 349 -233.5 c 128,-1,28
 292 -287 292 -287 205.5 -287 c 128,-1,29
 119 -287 119 -287 82.5 -254.5 c 128,-1,30
 46 -222 46 -222 46 -176 c 128,-1,31
 46 -130 46 -130 84 -95 c 128,-1,32
 122 -60 122 -60 180 -60 c 1,33,34
 152 -85 152 -85 152 -130 c 0,35,36
 152 -158 152 -158 166.5 -173 c 128,-1,37
 181 -188 181 -188 207 -188 c 128,-1,38
 233 -188 233 -188 258 -163 c 128,-1,39
 283 -138 283 -138 283 -94 c 128,-1,40
 283 -50 283 -50 245 -15 c 1,41,42
 146 9 146 9 88 90.5 c 128,-1,43
 30 172 30 172 30 307 c 0,0,1
EndSplineSet
EndChar

StartChar: Egrave
Encoding: 200 200 135
Width: 619
GlyphClass: 2
Flags: W
LayerCount: 2
Fore
SplineSet
88 11.5 m 128,-1,1
 60 49 60 49 60 123.5 c 128,-1,2
 60 198 60 198 123 546 c 1,3,-1
 70 653 l 1,4,5
 183 726 183 726 276 726 c 0,6,7
 335 726 335 726 349 670 c 1,8,9
 462 673 462 673 631 721 c 1,10,11
 639 688 639 688 639 656 c 0,12,13
 639 575 639 575 585.5 534 c 128,-1,14
 532 493 532 493 448 493 c 0,15,16
 391 493 391 493 336 517 c 1,17,18
 328 472 328 472 308 370 c 1,19,20
 345 363 345 363 371 363 c 1,21,22
 412 371 412 371 461 386 c 1,23,24
 466 369 466 369 466 330.5 c 128,-1,25
 466 292 466 292 435 269 c 128,-1,26
 404 246 404 246 365.5 246 c 128,-1,27
 327 246 327 246 287 255 c 1,28,29
 276 192 276 192 276 136 c 1,30,-1
 438 136 l 1,31,32
 514 147 514 147 591 175 c 1,33,34
 597 157 597 157 597 126 c 0,35,36
 597 67 597 67 562.5 21 c 128,-1,37
 528 -25 528 -25 467 -25 c 0,38,39
 435 -25 435 -25 373.5 -12.5 c 128,-1,40
 312 0 312 0 282 3 c 1,41,42
 234 -26 234 -26 175 -26 c 128,-1,0
 116 -26 116 -26 88 11.5 c 128,-1,1
520 753 m 0,43,44
 478 753 478 753 398.5 786.5 c 128,-1,45
 319 820 319 820 273 820 c 0,46,47
 264 820 264 820 250 818 c 1,48,49
 240 852 240 852 240 891 c 0,50,51
 240 986 240 986 296 986 c 0,52,53
 333 986 333 986 380.5 952.5 c 128,-1,54
 428 919 428 919 480.5 879 c 128,-1,55
 533 839 533 839 576 829 c 1,56,57
 573 790 573 790 557.5 771.5 c 128,-1,58
 542 753 542 753 520 753 c 0,43,44
EndSplineSet
EndChar

StartChar: Eacute
Encoding: 201 201 136
Width: 619
GlyphClass: 2
Flags: W
LayerCount: 2
Fore
SplineSet
88 11.5 m 128,-1,1
 60 49 60 49 60 123.5 c 128,-1,2
 60 198 60 198 123 546 c 1,3,-1
 70 653 l 1,4,5
 183 726 183 726 276 726 c 0,6,7
 335 726 335 726 349 670 c 1,8,9
 462 673 462 673 631 721 c 1,10,11
 639 688 639 688 639 656 c 0,12,13
 639 575 639 575 585.5 534 c 128,-1,14
 532 493 532 493 448 493 c 0,15,16
 391 493 391 493 336 517 c 1,17,18
 328 472 328 472 308 370 c 1,19,20
 345 363 345 363 371 363 c 1,21,22
 412 371 412 371 461 386 c 1,23,24
 466 369 466 369 466 330.5 c 128,-1,25
 466 292 466 292 435 269 c 128,-1,26
 404 246 404 246 365.5 246 c 128,-1,27
 327 246 327 246 287 255 c 1,28,29
 276 192 276 192 276 136 c 1,30,-1
 438 136 l 1,31,32
 514 147 514 147 591 175 c 1,33,34
 597 157 597 157 597 126 c 0,35,36
 597 67 597 67 562.5 21 c 128,-1,37
 528 -25 528 -25 467 -25 c 0,38,39
 435 -25 435 -25 373.5 -12.5 c 128,-1,40
 312 0 312 0 282 3 c 1,41,42
 234 -26 234 -26 175 -26 c 128,-1,0
 116 -26 116 -26 88 11.5 c 128,-1,1
311 753 m 0,43,44
 289 753 289 753 273.5 771.5 c 128,-1,45
 258 790 258 790 255 829 c 1,46,47
 298 839 298 839 350.5 879 c 128,-1,48
 403 919 403 919 450.5 952.5 c 128,-1,49
 498 986 498 986 535 986 c 0,50,51
 591 986 591 986 591 891 c 0,52,53
 591 852 591 852 581 818 c 1,54,55
 567 820 567 820 558 820 c 0,56,57
 512 820 512 820 432.5 786.5 c 128,-1,58
 353 753 353 753 311 753 c 0,43,44
EndSplineSet
EndChar

StartChar: Ecircumflex
Encoding: 202 202 137
Width: 619
GlyphClass: 2
Flags: W
LayerCount: 2
Fore
SplineSet
88 11.5 m 128,-1,1
 60 49 60 49 60 123.5 c 128,-1,2
 60 198 60 198 123 546 c 1,3,-1
 70 653 l 1,4,5
 183 726 183 726 276 726 c 0,6,7
 335 726 335 726 349 670 c 1,8,9
 462 673 462 673 631 721 c 1,10,11
 639 688 639 688 639 656 c 0,12,13
 639 575 639 575 585.5 534 c 128,-1,14
 532 493 532 493 448 493 c 0,15,16
 391 493 391 493 336 517 c 1,17,18
 328 472 328 472 308 370 c 1,19,20
 345 363 345 363 371 363 c 1,21,22
 412 371 412 371 461 386 c 1,23,24
 466 369 466 369 466 330.5 c 128,-1,25
 466 292 466 292 435 269 c 128,-1,26
 404 246 404 246 365.5 246 c 128,-1,27
 327 246 327 246 287 255 c 1,28,29
 276 192 276 192 276 136 c 1,30,-1
 438 136 l 1,31,32
 514 147 514 147 591 175 c 1,33,34
 597 157 597 157 597 126 c 0,35,36
 597 67 597 67 562.5 21 c 128,-1,37
 528 -25 528 -25 467 -25 c 0,38,39
 435 -25 435 -25 373.5 -12.5 c 128,-1,40
 312 0 312 0 282 3 c 1,41,42
 234 -26 234 -26 175 -26 c 128,-1,0
 116 -26 116 -26 88 11.5 c 128,-1,1
584 946 m 1,43,-1
 574 823 l 1,44,45
 574 792 574 792 588 767 c 1,46,47
 557 759 557 759 509.5 759 c 128,-1,48
 462 759 462 759 441.5 780 c 128,-1,49
 421 801 421 801 421 841 c 0,50,51
 421 856 421 856 428 921 c 1,52,-1
 402 921 l 1,53,54
 342 847 342 847 342 771 c 1,55,56
 287 759 287 759 230 759 c 128,-1,57
 173 759 173 759 173 778 c 0,58,59
 173 820 173 820 297 958 c 1,60,61
 314 968 314 968 365 975.5 c 128,-1,62
 416 983 416 983 467 983 c 0,63,64
 584 983 584 983 584 946 c 1,43,-1
EndSplineSet
EndChar

StartChar: Edieresis
Encoding: 203 203 138
Width: 619
GlyphClass: 2
Flags: W
LayerCount: 2
Fore
SplineSet
88 11.5 m 128,-1,1
 60 49 60 49 60 123.5 c 128,-1,2
 60 198 60 198 123 546 c 1,3,-1
 70 653 l 1,4,5
 183 726 183 726 276 726 c 0,6,7
 335 726 335 726 349 670 c 1,8,9
 462 673 462 673 631 721 c 1,10,11
 639 688 639 688 639 656 c 0,12,13
 639 575 639 575 585.5 534 c 128,-1,14
 532 493 532 493 448 493 c 0,15,16
 391 493 391 493 336 517 c 1,17,18
 328 472 328 472 308 370 c 1,19,20
 345 363 345 363 371 363 c 1,21,22
 412 371 412 371 461 386 c 1,23,24
 466 369 466 369 466 330.5 c 128,-1,25
 466 292 466 292 435 269 c 128,-1,26
 404 246 404 246 365.5 246 c 128,-1,27
 327 246 327 246 287 255 c 1,28,29
 276 192 276 192 276 136 c 1,30,-1
 438 136 l 1,31,32
 514 147 514 147 591 175 c 1,33,34
 597 157 597 157 597 126 c 0,35,36
 597 67 597 67 562.5 21 c 128,-1,37
 528 -25 528 -25 467 -25 c 0,38,39
 435 -25 435 -25 373.5 -12.5 c 128,-1,40
 312 0 312 0 282 3 c 1,41,42
 234 -26 234 -26 175 -26 c 128,-1,0
 116 -26 116 -26 88 11.5 c 128,-1,1
631 801 m 128,-1,44
 594 771 594 771 548 771 c 128,-1,45
 502 771 502 771 475.5 791 c 128,-1,46
 449 811 449 811 449 846 c 0,47,48
 449 897 449 897 488.5 925.5 c 128,-1,49
 528 954 528 954 571.5 954 c 128,-1,50
 615 954 615 954 641.5 933.5 c 128,-1,51
 668 913 668 913 668 872 c 128,-1,43
 668 831 668 831 631 801 c 128,-1,44
330 801 m 128,-1,53
 293 771 293 771 247 771 c 128,-1,54
 201 771 201 771 174.5 791 c 128,-1,55
 148 811 148 811 148 846 c 0,56,57
 148 897 148 897 187.5 925.5 c 128,-1,58
 227 954 227 954 270.5 954 c 128,-1,59
 314 954 314 954 340.5 933.5 c 128,-1,60
 367 913 367 913 367 872 c 128,-1,52
 367 831 367 831 330 801 c 128,-1,53
EndSplineSet
EndChar

StartChar: Igrave
Encoding: 204 204 139
Width: 388
GlyphClass: 2
Flags: W
LayerCount: 2
Fore
SplineSet
93 11.5 m 128,-1,1
 65 49 65 49 65 123.5 c 128,-1,2
 65 198 65 198 128 546 c 1,3,-1
 75 653 l 1,4,5
 188 726 188 726 281 726 c 0,6,7
 358 726 358 726 358 632 c 0,8,9
 358 601 358 601 319.5 401.5 c 128,-1,10
 281 202 281 202 281 164 c 0,11,12
 281 67 281 67 311 19 c 1,13,14
 251 -26 251 -26 186 -26 c 128,-1,0
 121 -26 121 -26 93 11.5 c 128,-1,1
367 753 m 0,15,16
 325 753 325 753 245.5 786.5 c 128,-1,17
 166 820 166 820 120 820 c 0,18,19
 111 820 111 820 97 818 c 1,20,21
 87 852 87 852 87 891 c 0,22,23
 87 986 87 986 143 986 c 0,24,25
 180 986 180 986 227.5 952.5 c 128,-1,26
 275 919 275 919 327.5 879 c 128,-1,27
 380 839 380 839 423 829 c 1,28,29
 420 790 420 790 404.5 771.5 c 128,-1,30
 389 753 389 753 367 753 c 0,15,16
EndSplineSet
EndChar

StartChar: Iacute
Encoding: 205 205 140
Width: 388
GlyphClass: 2
Flags: W
LayerCount: 2
Fore
SplineSet
93 11.5 m 128,-1,1
 65 49 65 49 65 123.5 c 128,-1,2
 65 198 65 198 128 546 c 1,3,-1
 75 653 l 1,4,5
 188 726 188 726 281 726 c 0,6,7
 358 726 358 726 358 632 c 0,8,9
 358 601 358 601 319.5 401.5 c 128,-1,10
 281 202 281 202 281 164 c 0,11,12
 281 67 281 67 311 19 c 1,13,14
 251 -26 251 -26 186 -26 c 128,-1,0
 121 -26 121 -26 93 11.5 c 128,-1,1
131 753 m 0,15,16
 109 753 109 753 93.5 771.5 c 128,-1,17
 78 790 78 790 75 829 c 1,18,19
 118 839 118 839 170.5 879 c 128,-1,20
 223 919 223 919 270.5 952.5 c 128,-1,21
 318 986 318 986 355 986 c 0,22,23
 411 986 411 986 411 891 c 0,24,25
 411 852 411 852 401 818 c 1,26,27
 387 820 387 820 378 820 c 0,28,29
 332 820 332 820 252.5 786.5 c 128,-1,30
 173 753 173 753 131 753 c 0,15,16
EndSplineSet
EndChar

StartChar: Icircumflex
Encoding: 206 206 141
Width: 388
GlyphClass: 2
Flags: W
LayerCount: 2
Fore
SplineSet
93 11.5 m 128,-1,1
 65 49 65 49 65 123.5 c 128,-1,2
 65 198 65 198 128 546 c 1,3,-1
 75 653 l 1,4,5
 188 726 188 726 281 726 c 0,6,7
 358 726 358 726 358 632 c 0,8,9
 358 601 358 601 319.5 401.5 c 128,-1,10
 281 202 281 202 281 164 c 0,11,12
 281 67 281 67 311 19 c 1,13,14
 251 -26 251 -26 186 -26 c 128,-1,0
 121 -26 121 -26 93 11.5 c 128,-1,1
459 946 m 1,15,-1
 449 823 l 1,16,17
 449 792 449 792 463 767 c 1,18,19
 432 759 432 759 384.5 759 c 128,-1,20
 337 759 337 759 316.5 780 c 128,-1,21
 296 801 296 801 296 841 c 0,22,23
 296 856 296 856 303 921 c 1,24,-1
 277 921 l 1,25,26
 217 847 217 847 217 771 c 1,27,28
 162 759 162 759 105 759 c 128,-1,29
 48 759 48 759 48 778 c 0,30,31
 48 820 48 820 172 958 c 1,32,33
 189 968 189 968 240 975.5 c 128,-1,34
 291 983 291 983 342 983 c 0,35,36
 459 983 459 983 459 946 c 1,15,-1
EndSplineSet
EndChar

StartChar: Idieresis
Encoding: 207 207 142
Width: 388
GlyphClass: 2
Flags: W
LayerCount: 2
Fore
SplineSet
93 11.5 m 128,-1,1
 65 49 65 49 65 123.5 c 128,-1,2
 65 198 65 198 128 546 c 1,3,-1
 75 653 l 1,4,5
 188 726 188 726 281 726 c 0,6,7
 358 726 358 726 358 632 c 0,8,9
 358 601 358 601 319.5 401.5 c 128,-1,10
 281 202 281 202 281 164 c 0,11,12
 281 67 281 67 311 19 c 1,13,14
 251 -26 251 -26 186 -26 c 128,-1,0
 121 -26 121 -26 93 11.5 c 128,-1,1
497 801 m 128,-1,16
 460 771 460 771 414 771 c 128,-1,17
 368 771 368 771 341.5 791 c 128,-1,18
 315 811 315 811 315 846 c 0,19,20
 315 897 315 897 354.5 925.5 c 128,-1,21
 394 954 394 954 437.5 954 c 128,-1,22
 481 954 481 954 507.5 933.5 c 128,-1,23
 534 913 534 913 534 872 c 128,-1,15
 534 831 534 831 497 801 c 128,-1,16
196 801 m 128,-1,25
 159 771 159 771 113 771 c 128,-1,26
 67 771 67 771 40.5 791 c 128,-1,27
 14 811 14 811 14 846 c 0,28,29
 14 897 14 897 53.5 925.5 c 128,-1,30
 93 954 93 954 136.5 954 c 128,-1,31
 180 954 180 954 206.5 933.5 c 128,-1,32
 233 913 233 913 233 872 c 128,-1,24
 233 831 233 831 196 801 c 128,-1,25
EndSplineSet
EndChar

StartChar: Eth
Encoding: 208 208 143
Width: 776
GlyphClass: 2
Flags: W
LayerCount: 2
Fore
SplineSet
60 163 m 0,0,1
 60 187 60 187 65 234 c 1,2,3
 -22 234 -22 234 -22 298 c 0,4,5
 -22 346 -22 346 19 393 c 1,6,7
 44 383 44 383 90 383 c 1,8,-1
 120 546 l 1,9,-1
 67 653 l 1,10,11
 194 725 194 725 283 725 c 0,12,13
 327 725 327 725 349 695 c 1,14,15
 432 724 432 724 502 724 c 0,16,17
 632 724 632 724 704 639.5 c 128,-1,18
 776 555 776 555 776 429 c 0,19,20
 776 263 776 263 654 124 c 0,21,22
 595 57 595 57 498.5 16 c 128,-1,23
 402 -25 402 -25 292 -25 c 128,-1,24
 182 -25 182 -25 121 23.5 c 128,-1,25
 60 72 60 72 60 163 c 0,0,1
272 125 m 1,26,27
 293 121 293 121 319 121 c 0,28,29
 428 121 428 121 489 199.5 c 128,-1,30
 550 278 550 278 550 393 c 0,31,32
 550 486 550 486 508 541 c 128,-1,33
 466 596 466 596 387 596 c 0,34,35
 375 596 375 596 347 592 c 1,36,37
 345 581 345 581 340.5 552 c 128,-1,38
 336 523 336 523 331.5 495 c 128,-1,39
 327 467 327 467 323 440 c 1,40,41
 362 453 362 453 393 453 c 0,42,43
 474 453 474 453 474 389 c 0,44,45
 474 341 474 341 433 294 c 1,46,47
 408 304 408 304 373 304 c 128,-1,48
 338 304 338 304 299 297 c 1,49,50
 280 184 280 184 272 125 c 1,26,27
EndSplineSet
EndChar

StartChar: Ntilde
Encoding: 209 209 144
Width: 870
GlyphClass: 2
Flags: W
LayerCount: 2
Fore
SplineSet
578 157 m 1,0,-1
 602 173 l 1,1,2
 537 298 537 298 537 447 c 0,3,4
 537 563 537 563 594.5 644 c 128,-1,5
 652 725 652 725 757 725 c 0,6,7
 812 725 812 725 850 706 c 1,8,9
 840 650 840 650 814 511 c 0,10,11
 758 212 758 212 758 168 c 0,12,13
 758 73 758 73 790 26 c 1,14,15
 746 -3 746 -3 709 -14 c 128,-1,16
 672 -25 672 -25 613.5 -25 c 128,-1,17
 555 -25 555 -25 507.5 0 c 128,-1,18
 460 25 460 25 429.5 66.5 c 128,-1,19
 399 108 399 108 378 169 c 0,20,21
 341 276 341 276 333 441 c 1,22,-1
 317 441 l 1,23,24
 271 233 271 233 271 150 c 128,-1,25
 271 67 271 67 301 19 c 1,26,27
 241 -26 241 -26 176 -26 c 128,-1,28
 111 -26 111 -26 83 11.5 c 128,-1,29
 55 49 55 49 55 123.5 c 128,-1,30
 55 198 55 198 118 546 c 1,31,-1
 65 653 l 1,32,33
 177 725 177 725 265 725 c 128,-1,34
 353 725 353 725 398 694.5 c 128,-1,35
 443 664 443 664 461 605 c 128,-1,36
 479 546 479 546 487.5 480.5 c 128,-1,37
 496 415 496 415 517.5 323 c 128,-1,38
 539 231 539 231 578 157 c 1,0,-1
707 805 m 1,39,40
 667 825 667 825 624 825 c 128,-1,41
 581 825 581 825 504.5 795.5 c 128,-1,42
 428 766 428 766 390 766 c 0,43,44
 326 766 326 766 326 829 c 0,45,46
 326 875 326 875 353 934 c 1,47,48
 393 914 393 914 436 914 c 128,-1,49
 479 914 479 914 555.5 943.5 c 128,-1,50
 632 973 632 973 670 973 c 0,51,52
 734 973 734 973 734 910 c 0,53,54
 734 864 734 864 707 805 c 1,39,40
EndSplineSet
EndChar

StartChar: Ograve
Encoding: 210 210 145
Width: 774
GlyphClass: 2
Flags: W
LayerCount: 2
Fore
SplineSet
25 306 m 0,0,1
 25 496 25 496 131 610.5 c 128,-1,2
 237 725 237 725 421 725 c 0,3,4
 480 725 480 725 505.5 701.5 c 128,-1,5
 531 678 531 678 531 629 c 0,6,7
 531 622 531 622 529 602 c 1,8,9
 566 632 566 632 611 632 c 0,10,11
 672 632 672 632 715.5 577.5 c 128,-1,12
 759 523 759 523 759 420 c 128,-1,13
 759 317 759 317 726 231 c 128,-1,14
 693 145 693 145 638.5 90 c 128,-1,15
 584 35 584 35 514.5 5 c 128,-1,16
 445 -25 445 -25 371 -25 c 0,17,18
 211 -25 211 -25 118 66.5 c 128,-1,19
 25 158 25 158 25 306 c 0,0,1
524 259 m 1,20,21
 460 337 460 337 460 427 c 128,-1,22
 460 517 460 517 500 572 c 1,23,24
 482 575 482 575 464 575 c 0,25,26
 393 575 393 575 341 532 c 0,27,28
 243 452 243 452 243 310 c 0,29,30
 243 229 243 229 279 175 c 128,-1,31
 315 121 315 121 379 121 c 0,32,33
 428 121 428 121 468.5 159.5 c 128,-1,34
 509 198 509 198 524 259 c 1,20,21
581 753 m 0,35,36
 539 753 539 753 459.5 786.5 c 128,-1,37
 380 820 380 820 334 820 c 0,38,39
 325 820 325 820 311 818 c 1,40,41
 301 852 301 852 301 891 c 0,42,43
 301 986 301 986 357 986 c 0,44,45
 394 986 394 986 441.5 952.5 c 128,-1,46
 489 919 489 919 541.5 879 c 128,-1,47
 594 839 594 839 637 829 c 1,48,49
 634 790 634 790 618.5 771.5 c 128,-1,50
 603 753 603 753 581 753 c 0,35,36
EndSplineSet
EndChar

StartChar: Oacute
Encoding: 211 211 146
Width: 774
GlyphClass: 2
Flags: W
LayerCount: 2
Fore
SplineSet
25 306 m 0,0,1
 25 496 25 496 131 610.5 c 128,-1,2
 237 725 237 725 421 725 c 0,3,4
 480 725 480 725 505.5 701.5 c 128,-1,5
 531 678 531 678 531 629 c 0,6,7
 531 622 531 622 529 602 c 1,8,9
 566 632 566 632 611 632 c 0,10,11
 672 632 672 632 715.5 577.5 c 128,-1,12
 759 523 759 523 759 420 c 128,-1,13
 759 317 759 317 726 231 c 128,-1,14
 693 145 693 145 638.5 90 c 128,-1,15
 584 35 584 35 514.5 5 c 128,-1,16
 445 -25 445 -25 371 -25 c 0,17,18
 211 -25 211 -25 118 66.5 c 128,-1,19
 25 158 25 158 25 306 c 0,0,1
524 259 m 1,20,21
 460 337 460 337 460 427 c 128,-1,22
 460 517 460 517 500 572 c 1,23,24
 482 575 482 575 464 575 c 0,25,26
 393 575 393 575 341 532 c 0,27,28
 243 452 243 452 243 310 c 0,29,30
 243 229 243 229 279 175 c 128,-1,31
 315 121 315 121 379 121 c 0,32,33
 428 121 428 121 468.5 159.5 c 128,-1,34
 509 198 509 198 524 259 c 1,20,21
366 753 m 0,35,36
 344 753 344 753 328.5 771.5 c 128,-1,37
 313 790 313 790 310 829 c 1,38,39
 353 839 353 839 405.5 879 c 128,-1,40
 458 919 458 919 505.5 952.5 c 128,-1,41
 553 986 553 986 590 986 c 0,42,43
 646 986 646 986 646 891 c 0,44,45
 646 852 646 852 636 818 c 1,46,47
 622 820 622 820 613 820 c 0,48,49
 567 820 567 820 487.5 786.5 c 128,-1,50
 408 753 408 753 366 753 c 0,35,36
EndSplineSet
EndChar

StartChar: Ocircumflex
Encoding: 212 212 147
Width: 774
GlyphClass: 2
Flags: W
LayerCount: 2
Fore
SplineSet
25 306 m 0,0,1
 25 496 25 496 131 610.5 c 128,-1,2
 237 725 237 725 421 725 c 0,3,4
 480 725 480 725 505.5 701.5 c 128,-1,5
 531 678 531 678 531 629 c 0,6,7
 531 622 531 622 529 602 c 1,8,9
 566 632 566 632 611 632 c 0,10,11
 672 632 672 632 715.5 577.5 c 128,-1,12
 759 523 759 523 759 420 c 128,-1,13
 759 317 759 317 726 231 c 128,-1,14
 693 145 693 145 638.5 90 c 128,-1,15
 584 35 584 35 514.5 5 c 128,-1,16
 445 -25 445 -25 371 -25 c 0,17,18
 211 -25 211 -25 118 66.5 c 128,-1,19
 25 158 25 158 25 306 c 0,0,1
524 259 m 1,20,21
 460 337 460 337 460 427 c 128,-1,22
 460 517 460 517 500 572 c 1,23,24
 482 575 482 575 464 575 c 0,25,26
 393 575 393 575 341 532 c 0,27,28
 243 452 243 452 243 310 c 0,29,30
 243 229 243 229 279 175 c 128,-1,31
 315 121 315 121 379 121 c 0,32,33
 428 121 428 121 468.5 159.5 c 128,-1,34
 509 198 509 198 524 259 c 1,20,21
642 946 m 1,35,-1
 632 823 l 1,36,37
 632 792 632 792 646 767 c 1,38,39
 615 759 615 759 567.5 759 c 128,-1,40
 520 759 520 759 499.5 780 c 128,-1,41
 479 801 479 801 479 841 c 0,42,43
 479 856 479 856 486 921 c 1,44,-1
 460 921 l 1,45,46
 400 847 400 847 400 771 c 1,47,48
 345 759 345 759 288 759 c 128,-1,49
 231 759 231 759 231 778 c 0,50,51
 231 820 231 820 355 958 c 1,52,53
 372 968 372 968 423 975.5 c 128,-1,54
 474 983 474 983 525 983 c 0,55,56
 642 983 642 983 642 946 c 1,35,-1
EndSplineSet
EndChar

StartChar: Otilde
Encoding: 213 213 148
Width: 774
GlyphClass: 2
Flags: W
LayerCount: 2
Fore
SplineSet
25 306 m 0,0,1
 25 496 25 496 131 610.5 c 128,-1,2
 237 725 237 725 421 725 c 0,3,4
 480 725 480 725 505.5 701.5 c 128,-1,5
 531 678 531 678 531 629 c 0,6,7
 531 622 531 622 529 602 c 1,8,9
 566 632 566 632 611 632 c 0,10,11
 672 632 672 632 715.5 577.5 c 128,-1,12
 759 523 759 523 759 420 c 128,-1,13
 759 317 759 317 726 231 c 128,-1,14
 693 145 693 145 638.5 90 c 128,-1,15
 584 35 584 35 514.5 5 c 128,-1,16
 445 -25 445 -25 371 -25 c 0,17,18
 211 -25 211 -25 118 66.5 c 128,-1,19
 25 158 25 158 25 306 c 0,0,1
524 259 m 1,20,21
 460 337 460 337 460 427 c 128,-1,22
 460 517 460 517 500 572 c 1,23,24
 482 575 482 575 464 575 c 0,25,26
 393 575 393 575 341 532 c 0,27,28
 243 452 243 452 243 310 c 0,29,30
 243 229 243 229 279 175 c 128,-1,31
 315 121 315 121 379 121 c 0,32,33
 428 121 428 121 468.5 159.5 c 128,-1,34
 509 198 509 198 524 259 c 1,20,21
653 805 m 1,35,36
 613 825 613 825 570 825 c 128,-1,37
 527 825 527 825 450.5 795.5 c 128,-1,38
 374 766 374 766 336 766 c 0,39,40
 272 766 272 766 272 829 c 0,41,42
 272 875 272 875 299 934 c 1,43,44
 339 914 339 914 382 914 c 128,-1,45
 425 914 425 914 501.5 943.5 c 128,-1,46
 578 973 578 973 616 973 c 0,47,48
 680 973 680 973 680 910 c 0,49,50
 680 864 680 864 653 805 c 1,35,36
EndSplineSet
EndChar

StartChar: Odieresis
Encoding: 214 214 149
Width: 774
GlyphClass: 2
Flags: W
LayerCount: 2
Fore
SplineSet
25 306 m 0,0,1
 25 496 25 496 131 610.5 c 128,-1,2
 237 725 237 725 421 725 c 0,3,4
 480 725 480 725 505.5 701.5 c 128,-1,5
 531 678 531 678 531 629 c 0,6,7
 531 622 531 622 529 602 c 1,8,9
 566 632 566 632 611 632 c 0,10,11
 672 632 672 632 715.5 577.5 c 128,-1,12
 759 523 759 523 759 420 c 128,-1,13
 759 317 759 317 726 231 c 128,-1,14
 693 145 693 145 638.5 90 c 128,-1,15
 584 35 584 35 514.5 5 c 128,-1,16
 445 -25 445 -25 371 -25 c 0,17,18
 211 -25 211 -25 118 66.5 c 128,-1,19
 25 158 25 158 25 306 c 0,0,1
524 259 m 1,20,21
 460 337 460 337 460 427 c 128,-1,22
 460 517 460 517 500 572 c 1,23,24
 482 575 482 575 464 575 c 0,25,26
 393 575 393 575 341 532 c 0,27,28
 243 452 243 452 243 310 c 0,29,30
 243 229 243 229 279 175 c 128,-1,31
 315 121 315 121 379 121 c 0,32,33
 428 121 428 121 468.5 159.5 c 128,-1,34
 509 198 509 198 524 259 c 1,20,21
702 801 m 128,-1,36
 665 771 665 771 619 771 c 128,-1,37
 573 771 573 771 546.5 791 c 128,-1,38
 520 811 520 811 520 846 c 0,39,40
 520 897 520 897 559.5 925.5 c 128,-1,41
 599 954 599 954 642.5 954 c 128,-1,42
 686 954 686 954 712.5 933.5 c 128,-1,43
 739 913 739 913 739 872 c 128,-1,35
 739 831 739 831 702 801 c 128,-1,36
401 801 m 128,-1,45
 364 771 364 771 318 771 c 128,-1,46
 272 771 272 771 245.5 791 c 128,-1,47
 219 811 219 811 219 846 c 0,48,49
 219 897 219 897 258.5 925.5 c 128,-1,50
 298 954 298 954 341.5 954 c 128,-1,51
 385 954 385 954 411.5 933.5 c 128,-1,52
 438 913 438 913 438 872 c 128,-1,44
 438 831 438 831 401 801 c 128,-1,45
EndSplineSet
EndChar

StartChar: multiply
Encoding: 215 215 150
Width: 733
GlyphClass: 2
Flags: W
LayerCount: 2
Fore
SplineSet
189 106 m 0,0,1
 158 106 158 106 132 148 c 128,-1,2
 106 190 106 190 102 235 c 1,3,4
 166 250 166 250 269 364 c 1,5,6
 216 420 216 420 187.5 461 c 128,-1,7
 159 502 159 502 159 539 c 128,-1,8
 159 576 159 576 191.5 605.5 c 128,-1,9
 224 635 224 635 278 643 c 1,10,11
 286 566 286 566 368 478 c 1,12,13
 427 544 427 544 474.5 580.5 c 128,-1,14
 522 617 522 617 559.5 617 c 128,-1,15
 597 617 597 617 620 591 c 128,-1,16
 643 565 643 565 649 521 c 1,17,18
 579 509 579 509 470 380 c 1,19,20
 529 326 529 326 561.5 284.5 c 128,-1,21
 594 243 594 243 594 207.5 c 128,-1,22
 594 172 594 172 548 142.5 c 128,-1,23
 502 113 502 113 452 107 c 1,24,25
 443 168 443 168 372 253 c 1,26,27
 255 106 255 106 189 106 c 0,0,1
EndSplineSet
EndChar

StartChar: Oslash
Encoding: 216 216 151
Width: 774
GlyphClass: 2
Flags: W
LayerCount: 2
Fore
SplineSet
381 -40 m 1,0,1
 348 -159 348 -159 259 -159 c 0,2,3
 205 -159 205 -159 160 -123 c 1,4,5
 195 -89 195 -89 226 0 c 1,6,7
 130 35 130 35 77.5 115.5 c 128,-1,8
 25 196 25 196 25 306 c 0,9,10
 25 493 25 493 128 606.5 c 128,-1,11
 231 720 231 720 411 723 c 1,12,-1
 426 784 l 2,13,14
 443 855 443 855 513.5 855 c 128,-1,15
 584 855 584 855 641 803 c 1,16,17
 599 742 599 742 559 621 c 1,18,19
 586 632 586 632 611 632 c 0,20,21
 672 632 672 632 715.5 577.5 c 128,-1,22
 759 523 759 523 759 421.5 c 128,-1,23
 759 320 759 320 727.5 235.5 c 128,-1,24
 696 151 696 151 644 96 c 0,25,26
 535 -18 535 -18 385 -24 c 1,27,-1
 381 -40 l 1,0,1
272 448.5 m 128,-1,29
 235 371 235 371 235 287.5 c 128,-1,30
 235 204 235 204 273 159 c 1,31,32
 322 336 322 336 372 558 c 1,33,28
 309 526 309 526 272 448.5 c 128,-1,29
531.5 244.5 m 128,-1,35
 569 323 569 323 569 406 c 128,-1,36
 569 489 569 489 534 534 c 1,37,38
 504 430 504 430 473 307 c 128,-1,39
 442 184 442 184 429 136 c 1,40,34
 494 166 494 166 531.5 244.5 c 128,-1,35
EndSplineSet
EndChar

StartChar: Ugrave
Encoding: 217 217 152
Width: 827
GlyphClass: 2
Flags: W
LayerCount: 2
Fore
SplineSet
745 19 m 1,0,1
 685 -26 685 -26 627 -26 c 128,-1,2
 569 -26 569 -26 535 4 c 128,-1,3
 501 34 501 34 501 94 c 0,4,5
 501 111 501 111 502 120 c 1,6,-1
 492 123 l 1,7,8
 393 -25 393 -25 226 -25 c 0,9,10
 65 -25 65 -25 65 145 c 0,11,12
 65 202 65 202 81 296.5 c 128,-1,13
 97 391 97 391 108.5 456.5 c 128,-1,14
 120 522 120 522 124 546 c 1,15,-1
 71 653 l 1,16,17
 134 689 134 689 180.5 707 c 128,-1,18
 227 725 227 725 274 725 c 128,-1,19
 321 725 321 725 337.5 700.5 c 128,-1,20
 354 676 354 676 354 642 c 128,-1,21
 354 608 354 608 320.5 424 c 128,-1,22
 287 240 287 240 287 209 c 0,23,24
 287 130 287 130 341 130 c 0,25,26
 381 130 381 130 432 181 c 128,-1,27
 483 232 483 232 515 321 c 1,28,29
 494 382 494 382 494 447 c 0,30,31
 494 563 494 563 551.5 644 c 128,-1,32
 609 725 609 725 714 725 c 0,33,34
 772 725 772 725 807 706 c 1,35,36
 798 652 798 652 772 510 c 0,37,38
 715 209 715 209 715 164 c 0,39,40
 715 67 715 67 745 19 c 1,0,1
614 753 m 0,41,42
 572 753 572 753 492.5 786.5 c 128,-1,43
 413 820 413 820 367 820 c 0,44,45
 358 820 358 820 344 818 c 1,46,47
 334 852 334 852 334 891 c 0,48,49
 334 986 334 986 390 986 c 0,50,51
 427 986 427 986 474.5 952.5 c 128,-1,52
 522 919 522 919 574.5 879 c 128,-1,53
 627 839 627 839 670 829 c 1,54,55
 667 790 667 790 651.5 771.5 c 128,-1,56
 636 753 636 753 614 753 c 0,41,42
EndSplineSet
EndChar

StartChar: Uacute
Encoding: 218 218 153
Width: 827
GlyphClass: 2
Flags: W
LayerCount: 2
Fore
SplineSet
745 19 m 1,0,1
 685 -26 685 -26 627 -26 c 128,-1,2
 569 -26 569 -26 535 4 c 128,-1,3
 501 34 501 34 501 94 c 0,4,5
 501 111 501 111 502 120 c 1,6,-1
 492 123 l 1,7,8
 393 -25 393 -25 226 -25 c 0,9,10
 65 -25 65 -25 65 145 c 0,11,12
 65 202 65 202 81 296.5 c 128,-1,13
 97 391 97 391 108.5 456.5 c 128,-1,14
 120 522 120 522 124 546 c 1,15,-1
 71 653 l 1,16,17
 134 689 134 689 180.5 707 c 128,-1,18
 227 725 227 725 274 725 c 128,-1,19
 321 725 321 725 337.5 700.5 c 128,-1,20
 354 676 354 676 354 642 c 128,-1,21
 354 608 354 608 320.5 424 c 128,-1,22
 287 240 287 240 287 209 c 0,23,24
 287 130 287 130 341 130 c 0,25,26
 381 130 381 130 432 181 c 128,-1,27
 483 232 483 232 515 321 c 1,28,29
 494 382 494 382 494 447 c 0,30,31
 494 563 494 563 551.5 644 c 128,-1,32
 609 725 609 725 714 725 c 0,33,34
 772 725 772 725 807 706 c 1,35,36
 798 652 798 652 772 510 c 0,37,38
 715 209 715 209 715 164 c 0,39,40
 715 67 715 67 745 19 c 1,0,1
415 753 m 0,41,42
 393 753 393 753 377.5 771.5 c 128,-1,43
 362 790 362 790 359 829 c 1,44,45
 402 839 402 839 454.5 879 c 128,-1,46
 507 919 507 919 554.5 952.5 c 128,-1,47
 602 986 602 986 639 986 c 0,48,49
 695 986 695 986 695 891 c 0,50,51
 695 852 695 852 685 818 c 1,52,53
 671 820 671 820 662 820 c 0,54,55
 616 820 616 820 536.5 786.5 c 128,-1,56
 457 753 457 753 415 753 c 0,41,42
EndSplineSet
EndChar

StartChar: Ucircumflex
Encoding: 219 219 154
Width: 827
GlyphClass: 2
Flags: W
LayerCount: 2
Fore
SplineSet
745 19 m 1,0,1
 685 -26 685 -26 627 -26 c 128,-1,2
 569 -26 569 -26 535 4 c 128,-1,3
 501 34 501 34 501 94 c 0,4,5
 501 111 501 111 502 120 c 1,6,-1
 492 123 l 1,7,8
 393 -25 393 -25 226 -25 c 0,9,10
 65 -25 65 -25 65 145 c 0,11,12
 65 202 65 202 81 296.5 c 128,-1,13
 97 391 97 391 108.5 456.5 c 128,-1,14
 120 522 120 522 124 546 c 1,15,-1
 71 653 l 1,16,17
 134 689 134 689 180.5 707 c 128,-1,18
 227 725 227 725 274 725 c 128,-1,19
 321 725 321 725 337.5 700.5 c 128,-1,20
 354 676 354 676 354 642 c 128,-1,21
 354 608 354 608 320.5 424 c 128,-1,22
 287 240 287 240 287 209 c 0,23,24
 287 130 287 130 341 130 c 0,25,26
 381 130 381 130 432 181 c 128,-1,27
 483 232 483 232 515 321 c 1,28,29
 494 382 494 382 494 447 c 0,30,31
 494 563 494 563 551.5 644 c 128,-1,32
 609 725 609 725 714 725 c 0,33,34
 772 725 772 725 807 706 c 1,35,36
 798 652 798 652 772 510 c 0,37,38
 715 209 715 209 715 164 c 0,39,40
 715 67 715 67 745 19 c 1,0,1
693 946 m 1,41,-1
 683 823 l 1,42,43
 683 792 683 792 697 767 c 1,44,45
 666 759 666 759 618.5 759 c 128,-1,46
 571 759 571 759 550.5 780 c 128,-1,47
 530 801 530 801 530 841 c 0,48,49
 530 856 530 856 537 921 c 1,50,-1
 511 921 l 1,51,52
 451 847 451 847 451 771 c 1,53,54
 396 759 396 759 339 759 c 128,-1,55
 282 759 282 759 282 778 c 0,56,57
 282 820 282 820 406 958 c 1,58,59
 423 968 423 968 474 975.5 c 128,-1,60
 525 983 525 983 576 983 c 0,61,62
 693 983 693 983 693 946 c 1,41,-1
EndSplineSet
EndChar

StartChar: Udieresis
Encoding: 220 220 155
Width: 827
GlyphClass: 2
Flags: W
LayerCount: 2
Fore
SplineSet
745 19 m 1,0,1
 685 -26 685 -26 627 -26 c 128,-1,2
 569 -26 569 -26 535 4 c 128,-1,3
 501 34 501 34 501 94 c 0,4,5
 501 111 501 111 502 120 c 1,6,-1
 492 123 l 1,7,8
 393 -25 393 -25 226 -25 c 0,9,10
 65 -25 65 -25 65 145 c 0,11,12
 65 202 65 202 81 296.5 c 128,-1,13
 97 391 97 391 108.5 456.5 c 128,-1,14
 120 522 120 522 124 546 c 1,15,-1
 71 653 l 1,16,17
 134 689 134 689 180.5 707 c 128,-1,18
 227 725 227 725 274 725 c 128,-1,19
 321 725 321 725 337.5 700.5 c 128,-1,20
 354 676 354 676 354 642 c 128,-1,21
 354 608 354 608 320.5 424 c 128,-1,22
 287 240 287 240 287 209 c 0,23,24
 287 130 287 130 341 130 c 0,25,26
 381 130 381 130 432 181 c 128,-1,27
 483 232 483 232 515 321 c 1,28,29
 494 382 494 382 494 447 c 0,30,31
 494 563 494 563 551.5 644 c 128,-1,32
 609 725 609 725 714 725 c 0,33,34
 772 725 772 725 807 706 c 1,35,36
 798 652 798 652 772 510 c 0,37,38
 715 209 715 209 715 164 c 0,39,40
 715 67 715 67 745 19 c 1,0,1
742 801 m 128,-1,42
 705 771 705 771 659 771 c 128,-1,43
 613 771 613 771 586.5 791 c 128,-1,44
 560 811 560 811 560 846 c 0,45,46
 560 897 560 897 599.5 925.5 c 128,-1,47
 639 954 639 954 682.5 954 c 128,-1,48
 726 954 726 954 752.5 933.5 c 128,-1,49
 779 913 779 913 779 872 c 128,-1,41
 779 831 779 831 742 801 c 128,-1,42
441 801 m 128,-1,51
 404 771 404 771 358 771 c 128,-1,52
 312 771 312 771 285.5 791 c 128,-1,53
 259 811 259 811 259 846 c 0,54,55
 259 897 259 897 298.5 925.5 c 128,-1,56
 338 954 338 954 381.5 954 c 128,-1,57
 425 954 425 954 451.5 933.5 c 128,-1,58
 478 913 478 913 478 872 c 128,-1,50
 478 831 478 831 441 801 c 128,-1,51
EndSplineSet
EndChar

StartChar: Yacute
Encoding: 221 221 156
Width: 672
GlyphClass: 2
Flags: W
LayerCount: 2
Fore
SplineSet
122 180 m 0,0,1
 121 200 121 200 118 264 c 128,-1,2
 115 328 115 328 112.5 361.5 c 128,-1,3
 110 395 110 395 101.5 453 c 128,-1,4
 93 511 93 511 80 546 c 0,5,6
 48 638 48 638 -10 678 c 1,7,8
 68 725 68 725 116.5 725 c 128,-1,9
 165 725 165 725 197 709 c 128,-1,10
 229 693 229 693 249.5 670.5 c 128,-1,11
 270 648 270 648 286 608 c 128,-1,12
 302 568 302 568 310 535 c 128,-1,13
 318 502 318 502 323.5 450 c 128,-1,14
 329 398 329 398 330.5 366 c 128,-1,15
 332 334 332 334 333.5 281.5 c 128,-1,16
 335 229 335 229 336 209 c 1,17,-1
 350 209 l 1,18,19
 389 302 389 302 421.5 422 c 128,-1,20
 454 542 454 542 454 613 c 0,21,22
 454 648 454 648 439 678 c 1,23,24
 514 725 514 725 572 725 c 0,25,26
 682 725 682 725 682 609 c 0,27,28
 682 550 682 550 637 411 c 128,-1,29
 592 272 592 272 531 142 c 0,30,31
 452 -27 452 -27 368.5 -102 c 128,-1,32
 285 -177 285 -177 154 -177 c 0,33,34
 96 -177 96 -177 49 -154 c 0,35,36
 -8 -127 -8 -127 -8 -63 c 128,-1,37
 -8 1 -8 1 41 69 c 1,38,39
 63 37 63 37 100 19.5 c 128,-1,40
 137 2 137 2 181.5 2 c 128,-1,41
 226 2 226 2 265.5 26.5 c 128,-1,42
 305 51 305 51 322 97 c 1,43,44
 269 84 269 84 225 84 c 0,45,46
 130 84 130 84 122 180 c 0,0,1
286 753 m 0,47,48
 264 753 264 753 248.5 771.5 c 128,-1,49
 233 790 233 790 230 829 c 1,50,51
 273 839 273 839 325.5 879 c 128,-1,52
 378 919 378 919 425.5 952.5 c 128,-1,53
 473 986 473 986 510 986 c 0,54,55
 566 986 566 986 566 891 c 0,56,57
 566 852 566 852 556 818 c 1,58,59
 542 820 542 820 533 820 c 0,60,61
 487 820 487 820 407.5 786.5 c 128,-1,62
 328 753 328 753 286 753 c 0,47,48
EndSplineSet
EndChar

StartChar: Thorn
Encoding: 222 222 157
Width: 699
GlyphClass: 2
Flags: W
LayerCount: 2
Fore
SplineSet
306 235 m 0,0,1
 386 235 386 235 430.5 282.5 c 128,-1,2
 475 330 475 330 475 384 c 128,-1,3
 475 438 475 438 449 470 c 128,-1,4
 423 502 423 502 375 502 c 0,5,6
 355 502 355 502 329 495 c 1,7,8
 309 359 309 359 283 236 c 1,9,10
 290 235 290 235 306 235 c 0,0,1
88 11.5 m 128,-1,12
 60 49 60 49 60 123.5 c 128,-1,13
 60 198 60 198 123 546 c 1,14,-1
 70 653 l 1,15,16
 183 726 183 726 276 726 c 0,17,18
 353 726 353 726 353 632 c 0,19,20
 353 620 353 620 350 600 c 1,21,22
 424 629 424 629 496 629 c 0,23,24
 590 629 590 629 644.5 563.5 c 128,-1,25
 699 498 699 498 699 405 c 0,26,27
 699 293 699 293 618 205 c 0,28,29
 579 162 579 162 513 136 c 128,-1,30
 447 110 447 110 382.5 110 c 128,-1,31
 318 110 318 110 277 120 c 1,32,33
 283 53 283 53 306 19 c 1,34,35
 246 -26 246 -26 181 -26 c 128,-1,11
 116 -26 116 -26 88 11.5 c 128,-1,12
EndSplineSet
EndChar

StartChar: germandbls
Encoding: 223 223 158
Width: 725
GlyphClass: 2
Flags: W
LayerCount: 2
Fore
SplineSet
421 355.5 m 128,-1,1
 404 373 404 373 404 398.5 c 128,-1,2
 404 424 404 424 421 441.5 c 128,-1,3
 438 459 438 459 457.5 459 c 128,-1,4
 477 459 477 459 490 451 c 1,5,6
 522 495 522 495 522 538 c 0,7,8
 522 625 522 625 457 625 c 0,9,10
 408 625 408 625 380.5 577 c 128,-1,11
 353 529 353 529 337 442 c 0,12,13
 336 437 336 437 325 382.5 c 128,-1,14
 314 328 314 328 304 273.5 c 128,-1,15
 294 219 294 219 282 152 c 0,16,17
 257 3 257 3 257 -65.5 c 128,-1,18
 257 -134 257 -134 288 -161 c 1,19,20
 229 -210 229 -210 167 -210 c 128,-1,21
 105 -210 105 -210 77.5 -169 c 128,-1,22
 50 -128 50 -128 50 -70.5 c 128,-1,23
 50 -13 50 -13 112 321 c 1,24,25
 56 314 56 314 4 300 c 1,26,27
 0 319 0 319 0 338 c 0,28,29
 0 400 0 400 36 422 c 128,-1,30
 72 444 72 444 135 447 c 1,31,-1
 153 545 l 2,32,33
 195 775 195 775 451 775 c 0,34,35
 549 775 549 775 609.5 716.5 c 128,-1,36
 670 658 670 658 670 580 c 0,37,38
 670 481 670 481 579 421 c 1,39,40
 715 363 715 363 715 201 c 0,41,42
 715 112 715 112 644.5 38.5 c 128,-1,43
 574 -35 574 -35 473 -35 c 0,44,45
 401 -35 401 -35 363.5 2.5 c 128,-1,46
 326 40 326 40 326 100 c 128,-1,47
 326 160 326 160 375 201 c 1,48,49
 400 185 400 185 447 185 c 128,-1,50
 494 185 494 185 517.5 208.5 c 128,-1,51
 541 232 541 232 541 273 c 128,-1,52
 541 314 541 314 503 354 c 1,53,54
 485 338 485 338 461.5 338 c 128,-1,0
 438 338 438 338 421 355.5 c 128,-1,1
EndSplineSet
EndChar

StartChar: agrave
Encoding: 224 224 159
Width: 736
GlyphClass: 2
Flags: W
LayerCount: 2
Fore
SplineSet
427 123 m 1,0,-1
 417 128 l 1,1,2
 390 56 390 56 339.5 15.5 c 128,-1,3
 289 -25 289 -25 227 -25 c 0,4,5
 142 -25 142 -25 91 39 c 128,-1,6
 40 103 40 103 40 210 c 0,7,8
 40 376 40 376 151.5 488 c 128,-1,9
 263 600 263 600 429 600 c 0,10,11
 472 600 472 600 508 592 c 1,12,13
 514 564 514 564 515 543 c 1,14,15
 565 575 565 575 618 575 c 0,16,17
 691 575 691 575 691 496 c 0,18,19
 691 468 691 468 659.5 327 c 128,-1,20
 628 186 628 186 628 118 c 128,-1,21
 628 50 628 50 659 24 c 1,22,23
 603 -25 603 -25 542.5 -25 c 128,-1,24
 482 -25 482 -25 454.5 11 c 128,-1,25
 427 47 427 47 427 123 c 1,0,-1
228 259 m 0,26,27
 228 210 228 210 248.5 183.5 c 128,-1,28
 269 157 269 157 307 157 c 128,-1,29
 345 157 345 157 382 185 c 128,-1,30
 419 213 419 213 444 262 c 1,31,32
 453 363 453 363 483 501 c 1,33,34
 382 501 382 501 305 428 c 128,-1,35
 228 355 228 355 228 259 c 0,26,27
571 653 m 0,36,37
 529 653 529 653 449.5 686.5 c 128,-1,38
 370 720 370 720 324 720 c 0,39,40
 315 720 315 720 301 718 c 1,41,42
 291 752 291 752 291 791 c 0,43,44
 291 886 291 886 347 886 c 0,45,46
 384 886 384 886 431.5 852.5 c 128,-1,47
 479 819 479 819 531.5 779 c 128,-1,48
 584 739 584 739 627 729 c 1,49,50
 624 690 624 690 608.5 671.5 c 128,-1,51
 593 653 593 653 571 653 c 0,36,37
EndSplineSet
EndChar

StartChar: aacute
Encoding: 225 225 160
Width: 736
GlyphClass: 2
Flags: W
LayerCount: 2
Fore
SplineSet
427 123 m 1,0,-1
 417 128 l 1,1,2
 390 56 390 56 339.5 15.5 c 128,-1,3
 289 -25 289 -25 227 -25 c 0,4,5
 142 -25 142 -25 91 39 c 128,-1,6
 40 103 40 103 40 210 c 0,7,8
 40 376 40 376 151.5 488 c 128,-1,9
 263 600 263 600 429 600 c 0,10,11
 472 600 472 600 508 592 c 1,12,13
 514 564 514 564 515 543 c 1,14,15
 565 575 565 575 618 575 c 0,16,17
 691 575 691 575 691 496 c 0,18,19
 691 468 691 468 659.5 327 c 128,-1,20
 628 186 628 186 628 118 c 128,-1,21
 628 50 628 50 659 24 c 1,22,23
 603 -25 603 -25 542.5 -25 c 128,-1,24
 482 -25 482 -25 454.5 11 c 128,-1,25
 427 47 427 47 427 123 c 1,0,-1
228 259 m 0,26,27
 228 210 228 210 248.5 183.5 c 128,-1,28
 269 157 269 157 307 157 c 128,-1,29
 345 157 345 157 382 185 c 128,-1,30
 419 213 419 213 444 262 c 1,31,32
 453 363 453 363 483 501 c 1,33,34
 382 501 382 501 305 428 c 128,-1,35
 228 355 228 355 228 259 c 0,26,27
354 653 m 0,36,37
 332 653 332 653 316.5 671.5 c 128,-1,38
 301 690 301 690 298 729 c 1,39,40
 341 739 341 739 393.5 779 c 128,-1,41
 446 819 446 819 493.5 852.5 c 128,-1,42
 541 886 541 886 578 886 c 0,43,44
 634 886 634 886 634 791 c 0,45,46
 634 752 634 752 624 718 c 1,47,48
 610 720 610 720 601 720 c 0,49,50
 555 720 555 720 475.5 686.5 c 128,-1,51
 396 653 396 653 354 653 c 0,36,37
EndSplineSet
EndChar

StartChar: acircumflex
Encoding: 226 226 161
Width: 736
GlyphClass: 2
Flags: W
LayerCount: 2
Fore
SplineSet
427 123 m 1,0,-1
 417 128 l 1,1,2
 390 56 390 56 339.5 15.5 c 128,-1,3
 289 -25 289 -25 227 -25 c 0,4,5
 142 -25 142 -25 91 39 c 128,-1,6
 40 103 40 103 40 210 c 0,7,8
 40 376 40 376 151.5 488 c 128,-1,9
 263 600 263 600 429 600 c 0,10,11
 472 600 472 600 508 592 c 1,12,13
 514 564 514 564 515 543 c 1,14,15
 565 575 565 575 618 575 c 0,16,17
 691 575 691 575 691 496 c 0,18,19
 691 468 691 468 659.5 327 c 128,-1,20
 628 186 628 186 628 118 c 128,-1,21
 628 50 628 50 659 24 c 1,22,23
 603 -25 603 -25 542.5 -25 c 128,-1,24
 482 -25 482 -25 454.5 11 c 128,-1,25
 427 47 427 47 427 123 c 1,0,-1
228 259 m 0,26,27
 228 210 228 210 248.5 183.5 c 128,-1,28
 269 157 269 157 307 157 c 128,-1,29
 345 157 345 157 382 185 c 128,-1,30
 419 213 419 213 444 262 c 1,31,32
 453 363 453 363 483 501 c 1,33,34
 382 501 382 501 305 428 c 128,-1,35
 228 355 228 355 228 259 c 0,26,27
623 831 m 1,36,-1
 613 708 l 1,37,38
 613 676 613 676 627 652 c 1,39,40
 596 644 596 644 548.5 644 c 128,-1,41
 501 644 501 644 480.5 665 c 128,-1,42
 460 686 460 686 460 726 c 0,43,44
 460 741 460 741 467 806 c 1,45,-1
 441 806 l 1,46,47
 381 732 381 732 381 656 c 1,48,49
 326 644 326 644 269 644 c 128,-1,50
 212 644 212 644 212 663 c 0,51,52
 212 705 212 705 336 843 c 1,53,54
 353 853 353 853 404 860.5 c 128,-1,55
 455 868 455 868 506 868 c 0,56,57
 623 868 623 868 623 831 c 1,36,-1
EndSplineSet
EndChar

StartChar: atilde
Encoding: 227 227 162
Width: 736
GlyphClass: 2
Flags: W
LayerCount: 2
Fore
SplineSet
427 123 m 1,0,-1
 417 128 l 1,1,2
 390 56 390 56 339.5 15.5 c 128,-1,3
 289 -25 289 -25 227 -25 c 0,4,5
 142 -25 142 -25 91 39 c 128,-1,6
 40 103 40 103 40 210 c 0,7,8
 40 376 40 376 151.5 488 c 128,-1,9
 263 600 263 600 429 600 c 0,10,11
 472 600 472 600 508 592 c 1,12,13
 514 564 514 564 515 543 c 1,14,15
 565 575 565 575 618 575 c 0,16,17
 691 575 691 575 691 496 c 0,18,19
 691 468 691 468 659.5 327 c 128,-1,20
 628 186 628 186 628 118 c 128,-1,21
 628 50 628 50 659 24 c 1,22,23
 603 -25 603 -25 542.5 -25 c 128,-1,24
 482 -25 482 -25 454.5 11 c 128,-1,25
 427 47 427 47 427 123 c 1,0,-1
228 259 m 0,26,27
 228 210 228 210 248.5 183.5 c 128,-1,28
 269 157 269 157 307 157 c 128,-1,29
 345 157 345 157 382 185 c 128,-1,30
 419 213 419 213 444 262 c 1,31,32
 453 363 453 363 483 501 c 1,33,34
 382 501 382 501 305 428 c 128,-1,35
 228 355 228 355 228 259 c 0,26,27
644 705 m 1,36,37
 604 725 604 725 561 725 c 128,-1,38
 518 725 518 725 441.5 695.5 c 128,-1,39
 365 666 365 666 327 666 c 0,40,41
 263 666 263 666 263 729 c 0,42,43
 263 775 263 775 290 834 c 1,44,45
 330 814 330 814 373 814 c 128,-1,46
 416 814 416 814 492.5 843.5 c 128,-1,47
 569 873 569 873 607 873 c 0,48,49
 671 873 671 873 671 810 c 0,50,51
 671 764 671 764 644 705 c 1,36,37
EndSplineSet
EndChar

StartChar: adieresis
Encoding: 228 228 163
Width: 736
GlyphClass: 2
Flags: W
LayerCount: 2
Fore
SplineSet
427 123 m 1,0,-1
 417 128 l 1,1,2
 390 56 390 56 339.5 15.5 c 128,-1,3
 289 -25 289 -25 227 -25 c 0,4,5
 142 -25 142 -25 91 39 c 128,-1,6
 40 103 40 103 40 210 c 0,7,8
 40 376 40 376 151.5 488 c 128,-1,9
 263 600 263 600 429 600 c 0,10,11
 472 600 472 600 508 592 c 1,12,13
 514 564 514 564 515 543 c 1,14,15
 565 575 565 575 618 575 c 0,16,17
 691 575 691 575 691 496 c 0,18,19
 691 468 691 468 659.5 327 c 128,-1,20
 628 186 628 186 628 118 c 128,-1,21
 628 50 628 50 659 24 c 1,22,23
 603 -25 603 -25 542.5 -25 c 128,-1,24
 482 -25 482 -25 454.5 11 c 128,-1,25
 427 47 427 47 427 123 c 1,0,-1
228 259 m 0,26,27
 228 210 228 210 248.5 183.5 c 128,-1,28
 269 157 269 157 307 157 c 128,-1,29
 345 157 345 157 382 185 c 128,-1,30
 419 213 419 213 444 262 c 1,31,32
 453 363 453 363 483 501 c 1,33,34
 382 501 382 501 305 428 c 128,-1,35
 228 355 228 355 228 259 c 0,26,27
647 696 m 128,-1,37
 610 666 610 666 564 666 c 128,-1,38
 518 666 518 666 491.5 686 c 128,-1,39
 465 706 465 706 465 741 c 0,40,41
 465 792 465 792 504.5 820.5 c 128,-1,42
 544 849 544 849 587.5 849 c 128,-1,43
 631 849 631 849 657.5 828.5 c 128,-1,44
 684 808 684 808 684 767 c 128,-1,36
 684 726 684 726 647 696 c 128,-1,37
346 696 m 128,-1,46
 309 666 309 666 263 666 c 128,-1,47
 217 666 217 666 190.5 686 c 128,-1,48
 164 706 164 706 164 741 c 0,49,50
 164 792 164 792 203.5 820.5 c 128,-1,51
 243 849 243 849 286.5 849 c 128,-1,52
 330 849 330 849 356.5 828.5 c 128,-1,53
 383 808 383 808 383 767 c 128,-1,45
 383 726 383 726 346 696 c 128,-1,46
EndSplineSet
EndChar

StartChar: aring
Encoding: 229 229 164
Width: 788
GlyphClass: 2
Flags: W
LayerCount: 2
Fore
SplineSet
448.5 715.5 m 128,-1,1
 462 697 462 697 487.5 697 c 128,-1,2
 513 697 513 697 534.5 727 c 128,-1,3
 556 757 556 757 556 795 c 0,4,5
 556 852 556 852 496 852 c 0,6,7
 490 852 490 852 470 850 c 1,8,9
 435 811 435 811 435 761 c 0,10,0
 435 734 435 734 448.5 715.5 c 128,-1,1
457 123 m 1,11,-1
 447 128 l 1,12,13
 420 56 420 56 369.5 15.5 c 128,-1,14
 319 -25 319 -25 257 -25 c 0,15,16
 172 -25 172 -25 121 39 c 128,-1,17
 70 103 70 103 70 210 c 0,18,19
 70 376 70 376 181.5 488 c 128,-1,20
 293 600 293 600 459 600 c 0,21,22
 502 600 502 600 538 592 c 1,23,24
 544 564 544 564 545 543 c 1,25,26
 595 575 595 575 648 575 c 0,27,28
 721 575 721 575 721 496 c 0,29,30
 721 468 721 468 689.5 327 c 128,-1,31
 658 186 658 186 658 118 c 128,-1,32
 658 50 658 50 689 24 c 1,33,34
 633 -25 633 -25 572.5 -25 c 128,-1,35
 512 -25 512 -25 484.5 11 c 128,-1,36
 457 47 457 47 457 123 c 1,11,-1
258 259 m 0,37,38
 258 210 258 210 278.5 183.5 c 128,-1,39
 299 157 299 157 337 157 c 128,-1,40
 375 157 375 157 412 185 c 128,-1,41
 449 213 449 213 474 262 c 1,42,43
 483 363 483 363 513 501 c 1,44,45
 412 501 412 501 335 428 c 128,-1,46
 258 355 258 355 258 259 c 0,37,38
620.5 676.5 m 128,-1,48
 569 632 569 632 492 632 c 128,-1,49
 415 632 415 632 375 666 c 128,-1,50
 335 700 335 700 335 757 c 0,51,52
 335 830 335 830 386.5 874.5 c 128,-1,53
 438 919 438 919 515 919 c 128,-1,54
 592 919 592 919 632 885 c 128,-1,55
 672 851 672 851 672 794 c 0,56,47
 672 721 672 721 620.5 676.5 c 128,-1,48
EndSplineSet
EndChar

StartChar: ae
Encoding: 230 230 165
Width: 989
GlyphClass: 2
Flags: W
LayerCount: 2
Fore
SplineSet
517 520 m 1,0,1
 623 600 623 600 765 600 c 0,2,3
 858 600 858 600 906 558.5 c 128,-1,4
 954 517 954 517 954 449 c 0,5,6
 954 356 954 356 863.5 294.5 c 128,-1,7
 773 233 773 233 584 232 c 1,8,9
 587 168 587 168 613 131.5 c 128,-1,10
 639 95 639 95 678 95 c 128,-1,11
 717 95 717 95 745.5 121 c 128,-1,12
 774 147 774 147 774 206 c 1,13,14
 920 206 920 206 920 137 c 0,15,16
 920 78 920 78 848 26.5 c 128,-1,17
 776 -25 776 -25 663 -25 c 0,18,19
 478 -25 478 -25 422 113 c 1,20,-1
 411 113 l 1,21,22
 382 48 382 48 334 11.5 c 128,-1,23
 286 -25 286 -25 227 -25 c 0,24,25
 142 -25 142 -25 91 39 c 128,-1,26
 40 103 40 103 40 210 c 0,27,28
 40 376 40 376 151.5 488 c 128,-1,29
 263 600 263 600 429 600 c 0,30,31
 472 600 472 600 508 592 c 1,32,33
 514 560 514 560 517 520 c 1,0,1
228 259 m 0,34,35
 228 210 228 210 245 183.5 c 128,-1,36
 262 157 262 157 294.5 157 c 128,-1,37
 327 157 327 157 358 185 c 128,-1,38
 389 213 389 213 410 262 c 1,39,40
 421 352 421 352 449 480 c 1,41,42
 358 480 358 480 293 417 c 128,-1,43
 228 354 228 354 228 259 c 0,34,35
748 483 m 0,44,45
 697 483 697 483 654.5 432 c 128,-1,46
 612 381 612 381 593 312 c 1,47,48
 693 320 693 320 743.5 358 c 128,-1,49
 794 396 794 396 794 437 c 0,50,51
 794 457 794 457 781.5 470 c 128,-1,52
 769 483 769 483 748 483 c 0,44,45
EndSplineSet
EndChar

StartChar: ccedilla
Encoding: 231 231 166
Width: 638
GlyphClass: 2
Flags: W
LayerCount: 2
Fore
SplineSet
45 238 m 0,0,1
 45 398 45 398 155 499 c 128,-1,2
 265 600 265 600 432 600 c 0,3,4
 518 600 518 600 568 567.5 c 128,-1,5
 618 535 618 535 618 486 c 128,-1,6
 618 437 618 437 584.5 411 c 128,-1,7
 551 385 551 385 511.5 385 c 128,-1,8
 472 385 472 385 439.5 406 c 128,-1,9
 407 427 407 427 389 467 c 1,10,11
 326 441 326 441 289.5 375 c 128,-1,12
 253 309 253 309 253 243 c 128,-1,13
 253 177 253 177 279 136 c 128,-1,14
 305 95 305 95 347 95 c 128,-1,15
 389 95 389 95 415.5 123 c 128,-1,16
 442 151 442 151 442 206 c 1,17,18
 588 206 588 206 588 137 c 0,19,20
 588 84 588 84 525.5 35 c 128,-1,21
 463 -14 463 -14 365 -23 c 1,22,23
 399 -60 399 -60 399 -111 c 0,24,25
 399 -180 399 -180 342 -233.5 c 128,-1,26
 285 -287 285 -287 198.5 -287 c 128,-1,27
 112 -287 112 -287 75.5 -254.5 c 128,-1,28
 39 -222 39 -222 39 -176 c 128,-1,29
 39 -130 39 -130 77 -95 c 128,-1,30
 115 -60 115 -60 173 -60 c 1,31,32
 145 -85 145 -85 145 -130 c 0,33,34
 145 -158 145 -158 159.5 -173 c 128,-1,35
 174 -188 174 -188 200 -188 c 128,-1,36
 226 -188 226 -188 251 -163 c 128,-1,37
 276 -138 276 -138 276 -94 c 128,-1,38
 276 -50 276 -50 236 -14 c 1,39,40
 146 9 146 9 95.5 76 c 128,-1,41
 45 143 45 143 45 238 c 0,0,1
EndSplineSet
EndChar

StartChar: egrave
Encoding: 232 232 167
Width: 657
GlyphClass: 2
Flags: W
LayerCount: 2
Fore
SplineSet
331 -25 m 0,0,1
 194 -25 194 -25 119.5 46 c 128,-1,2
 45 117 45 117 45 238 c 0,3,4
 45 399 45 399 155.5 499.5 c 128,-1,5
 266 600 266 600 433 600 c 0,6,7
 526 600 526 600 574 558.5 c 128,-1,8
 622 517 622 517 622 449 c 0,9,10
 622 356 622 356 531.5 294.5 c 128,-1,11
 441 233 441 233 252 232 c 1,12,13
 255 168 255 168 281 131.5 c 128,-1,14
 307 95 307 95 346 95 c 128,-1,15
 385 95 385 95 413.5 121 c 128,-1,16
 442 147 442 147 442 206 c 1,17,18
 588 206 588 206 588 137 c 0,19,20
 588 78 588 78 516 26.5 c 128,-1,21
 444 -25 444 -25 331 -25 c 0,0,1
416 483 m 0,22,23
 365 483 365 483 322.5 432 c 128,-1,24
 280 381 280 381 261 312 c 1,25,26
 361 320 361 320 411.5 357.5 c 128,-1,27
 462 395 462 395 462 437 c 0,28,29
 462 457 462 457 449.5 470 c 128,-1,30
 437 483 437 483 416 483 c 0,22,23
518 653 m 0,31,32
 476 653 476 653 396.5 686.5 c 128,-1,33
 317 720 317 720 271 720 c 0,34,35
 262 720 262 720 248 718 c 1,36,37
 238 752 238 752 238 791 c 0,38,39
 238 886 238 886 294 886 c 0,40,41
 331 886 331 886 378.5 852.5 c 128,-1,42
 426 819 426 819 478.5 779 c 128,-1,43
 531 739 531 739 574 729 c 1,44,45
 571 690 571 690 555.5 671.5 c 128,-1,46
 540 653 540 653 518 653 c 0,31,32
EndSplineSet
EndChar

StartChar: eacute
Encoding: 233 233 168
Width: 657
GlyphClass: 2
Flags: W
LayerCount: 2
Fore
SplineSet
331 -25 m 0,0,1
 194 -25 194 -25 119.5 46 c 128,-1,2
 45 117 45 117 45 238 c 0,3,4
 45 399 45 399 155.5 499.5 c 128,-1,5
 266 600 266 600 433 600 c 0,6,7
 526 600 526 600 574 558.5 c 128,-1,8
 622 517 622 517 622 449 c 0,9,10
 622 356 622 356 531.5 294.5 c 128,-1,11
 441 233 441 233 252 232 c 1,12,13
 255 168 255 168 281 131.5 c 128,-1,14
 307 95 307 95 346 95 c 128,-1,15
 385 95 385 95 413.5 121 c 128,-1,16
 442 147 442 147 442 206 c 1,17,18
 588 206 588 206 588 137 c 0,19,20
 588 78 588 78 516 26.5 c 128,-1,21
 444 -25 444 -25 331 -25 c 0,0,1
416 483 m 0,22,23
 365 483 365 483 322.5 432 c 128,-1,24
 280 381 280 381 261 312 c 1,25,26
 361 320 361 320 411.5 357.5 c 128,-1,27
 462 395 462 395 462 437 c 0,28,29
 462 457 462 457 449.5 470 c 128,-1,30
 437 483 437 483 416 483 c 0,22,23
284 653 m 0,31,32
 262 653 262 653 246.5 671.5 c 128,-1,33
 231 690 231 690 228 729 c 1,34,35
 271 739 271 739 323.5 779 c 128,-1,36
 376 819 376 819 423.5 852.5 c 128,-1,37
 471 886 471 886 508 886 c 0,38,39
 564 886 564 886 564 791 c 0,40,41
 564 752 564 752 554 718 c 1,42,43
 540 720 540 720 531 720 c 0,44,45
 485 720 485 720 405.5 686.5 c 128,-1,46
 326 653 326 653 284 653 c 0,31,32
EndSplineSet
EndChar

StartChar: ecircumflex
Encoding: 234 234 169
Width: 657
GlyphClass: 2
Flags: W
LayerCount: 2
Fore
SplineSet
331 -25 m 0,0,1
 194 -25 194 -25 119.5 46 c 128,-1,2
 45 117 45 117 45 238 c 0,3,4
 45 399 45 399 155.5 499.5 c 128,-1,5
 266 600 266 600 433 600 c 0,6,7
 526 600 526 600 574 558.5 c 128,-1,8
 622 517 622 517 622 449 c 0,9,10
 622 356 622 356 531.5 294.5 c 128,-1,11
 441 233 441 233 252 232 c 1,12,13
 255 168 255 168 281 131.5 c 128,-1,14
 307 95 307 95 346 95 c 128,-1,15
 385 95 385 95 413.5 121 c 128,-1,16
 442 147 442 147 442 206 c 1,17,18
 588 206 588 206 588 137 c 0,19,20
 588 78 588 78 516 26.5 c 128,-1,21
 444 -25 444 -25 331 -25 c 0,0,1
416 483 m 0,22,23
 365 483 365 483 322.5 432 c 128,-1,24
 280 381 280 381 261 312 c 1,25,26
 361 320 361 320 411.5 357.5 c 128,-1,27
 462 395 462 395 462 437 c 0,28,29
 462 457 462 457 449.5 470 c 128,-1,30
 437 483 437 483 416 483 c 0,22,23
597 831 m 1,31,-1
 587 708 l 1,32,33
 587 676 587 676 601 652 c 1,34,35
 570 644 570 644 522.5 644 c 128,-1,36
 475 644 475 644 454.5 665 c 128,-1,37
 434 686 434 686 434 726 c 0,38,39
 434 741 434 741 441 806 c 1,40,-1
 415 806 l 1,41,42
 355 732 355 732 355 656 c 1,43,44
 300 644 300 644 243 644 c 128,-1,45
 186 644 186 644 186 663 c 0,46,47
 186 705 186 705 310 843 c 1,48,49
 327 853 327 853 378 860.5 c 128,-1,50
 429 868 429 868 480 868 c 0,51,52
 597 868 597 868 597 831 c 1,31,-1
EndSplineSet
EndChar

StartChar: edieresis
Encoding: 235 235 170
Width: 657
GlyphClass: 2
Flags: W
LayerCount: 2
Fore
SplineSet
331 -25 m 0,0,1
 194 -25 194 -25 119.5 46 c 128,-1,2
 45 117 45 117 45 238 c 0,3,4
 45 399 45 399 155.5 499.5 c 128,-1,5
 266 600 266 600 433 600 c 0,6,7
 526 600 526 600 574 558.5 c 128,-1,8
 622 517 622 517 622 449 c 0,9,10
 622 356 622 356 531.5 294.5 c 128,-1,11
 441 233 441 233 252 232 c 1,12,13
 255 168 255 168 281 131.5 c 128,-1,14
 307 95 307 95 346 95 c 128,-1,15
 385 95 385 95 413.5 121 c 128,-1,16
 442 147 442 147 442 206 c 1,17,18
 588 206 588 206 588 137 c 0,19,20
 588 78 588 78 516 26.5 c 128,-1,21
 444 -25 444 -25 331 -25 c 0,0,1
416 483 m 0,22,23
 365 483 365 483 322.5 432 c 128,-1,24
 280 381 280 381 261 312 c 1,25,26
 361 320 361 320 411.5 357.5 c 128,-1,27
 462 395 462 395 462 437 c 0,28,29
 462 457 462 457 449.5 470 c 128,-1,30
 437 483 437 483 416 483 c 0,22,23
639 696 m 128,-1,32
 602 666 602 666 556 666 c 128,-1,33
 510 666 510 666 483.5 686 c 128,-1,34
 457 706 457 706 457 741 c 0,35,36
 457 792 457 792 496.5 820.5 c 128,-1,37
 536 849 536 849 579.5 849 c 128,-1,38
 623 849 623 849 649.5 828.5 c 128,-1,39
 676 808 676 808 676 767 c 128,-1,31
 676 726 676 726 639 696 c 128,-1,32
338 696 m 128,-1,41
 301 666 301 666 255 666 c 128,-1,42
 209 666 209 666 182.5 686 c 128,-1,43
 156 706 156 706 156 741 c 0,44,45
 156 792 156 792 195.5 820.5 c 128,-1,46
 235 849 235 849 278.5 849 c 128,-1,47
 322 849 322 849 348.5 828.5 c 128,-1,48
 375 808 375 808 375 767 c 128,-1,40
 375 726 375 726 338 696 c 128,-1,41
EndSplineSet
EndChar

StartChar: igrave
Encoding: 236 236 171
Width: 388
GlyphClass: 2
Flags: W
LayerCount: 2
Fore
SplineSet
93 6 m 128,-1,1
 65 37 65 37 65 100.5 c 128,-1,2
 65 164 65 164 129 441 c 1,3,-1
 73 525 l 1,4,5
 198 600 198 600 270 600 c 0,6,7
 311 600 311 600 328 582.5 c 128,-1,8
 345 565 345 565 345 526 c 0,9,10
 345 511 345 511 308 350 c 128,-1,11
 271 189 271 189 271 120 c 128,-1,12
 271 51 271 51 302 24 c 1,13,14
 246 -25 246 -25 183.5 -25 c 128,-1,0
 121 -25 121 -25 93 6 c 128,-1,1
348 653 m 0,15,16
 306 653 306 653 226.5 686.5 c 128,-1,17
 147 720 147 720 101 720 c 0,18,19
 92 720 92 720 78 718 c 1,20,21
 68 752 68 752 68 791 c 0,22,23
 68 886 68 886 124 886 c 0,24,25
 161 886 161 886 208.5 852.5 c 128,-1,26
 256 819 256 819 308.5 779 c 128,-1,27
 361 739 361 739 404 729 c 1,28,29
 401 690 401 690 385.5 671.5 c 128,-1,30
 370 653 370 653 348 653 c 0,15,16
EndSplineSet
EndChar

StartChar: iacute
Encoding: 237 237 172
Width: 388
GlyphClass: 2
Flags: W
LayerCount: 2
Fore
SplineSet
93 6 m 128,-1,1
 65 37 65 37 65 100.5 c 128,-1,2
 65 164 65 164 129 441 c 1,3,-1
 73 525 l 1,4,5
 198 600 198 600 270 600 c 0,6,7
 311 600 311 600 328 582.5 c 128,-1,8
 345 565 345 565 345 526 c 0,9,10
 345 511 345 511 308 350 c 128,-1,11
 271 189 271 189 271 120 c 128,-1,12
 271 51 271 51 302 24 c 1,13,14
 246 -25 246 -25 183.5 -25 c 128,-1,0
 121 -25 121 -25 93 6 c 128,-1,1
127 653 m 0,15,16
 105 653 105 653 89.5 671.5 c 128,-1,17
 74 690 74 690 71 729 c 1,18,19
 114 739 114 739 166.5 779 c 128,-1,20
 219 819 219 819 266.5 852.5 c 128,-1,21
 314 886 314 886 351 886 c 0,22,23
 407 886 407 886 407 791 c 0,24,25
 407 752 407 752 397 718 c 1,26,27
 383 720 383 720 374 720 c 0,28,29
 328 720 328 720 248.5 686.5 c 128,-1,30
 169 653 169 653 127 653 c 0,15,16
EndSplineSet
EndChar

StartChar: icircumflex
Encoding: 238 238 173
Width: 388
GlyphClass: 2
Flags: W
LayerCount: 2
Fore
SplineSet
93 6 m 128,-1,1
 65 37 65 37 65 100.5 c 128,-1,2
 65 164 65 164 129 441 c 1,3,-1
 73 525 l 1,4,5
 198 600 198 600 270 600 c 0,6,7
 311 600 311 600 328 582.5 c 128,-1,8
 345 565 345 565 345 526 c 0,9,10
 345 511 345 511 308 350 c 128,-1,11
 271 189 271 189 271 120 c 128,-1,12
 271 51 271 51 302 24 c 1,13,14
 246 -25 246 -25 183.5 -25 c 128,-1,0
 121 -25 121 -25 93 6 c 128,-1,1
429 831 m 1,15,-1
 419 708 l 1,16,17
 419 676 419 676 433 652 c 1,18,19
 402 644 402 644 354.5 644 c 128,-1,20
 307 644 307 644 286.5 665 c 128,-1,21
 266 686 266 686 266 726 c 0,22,23
 266 741 266 741 273 806 c 1,24,-1
 247 806 l 1,25,26
 187 732 187 732 187 656 c 1,27,28
 132 644 132 644 75 644 c 128,-1,29
 18 644 18 644 18 663 c 0,30,31
 18 705 18 705 142 843 c 1,32,33
 159 853 159 853 210 860.5 c 128,-1,34
 261 868 261 868 312 868 c 0,35,36
 429 868 429 868 429 831 c 1,15,-1
EndSplineSet
EndChar

StartChar: idieresis
Encoding: 239 239 174
Width: 388
GlyphClass: 2
Flags: W
LayerCount: 2
Fore
SplineSet
93 6 m 128,-1,1
 65 37 65 37 65 100.5 c 128,-1,2
 65 164 65 164 129 441 c 1,3,-1
 73 525 l 1,4,5
 198 600 198 600 270 600 c 0,6,7
 311 600 311 600 328 582.5 c 128,-1,8
 345 565 345 565 345 526 c 0,9,10
 345 511 345 511 308 350 c 128,-1,11
 271 189 271 189 271 120 c 128,-1,12
 271 51 271 51 302 24 c 1,13,14
 246 -25 246 -25 183.5 -25 c 128,-1,0
 121 -25 121 -25 93 6 c 128,-1,1
484 696 m 128,-1,16
 447 666 447 666 401 666 c 128,-1,17
 355 666 355 666 328.5 686 c 128,-1,18
 302 706 302 706 302 741 c 0,19,20
 302 792 302 792 341.5 820.5 c 128,-1,21
 381 849 381 849 424.5 849 c 128,-1,22
 468 849 468 849 494.5 828.5 c 128,-1,23
 521 808 521 808 521 767 c 128,-1,15
 521 726 521 726 484 696 c 128,-1,16
183 696 m 128,-1,25
 146 666 146 666 100 666 c 128,-1,26
 54 666 54 666 27.5 686 c 128,-1,27
 1 706 1 706 1 741 c 0,28,29
 1 792 1 792 40.5 820.5 c 128,-1,30
 80 849 80 849 123.5 849 c 128,-1,31
 167 849 167 849 193.5 828.5 c 128,-1,32
 220 808 220 808 220 767 c 128,-1,24
 220 726 220 726 183 696 c 128,-1,25
EndSplineSet
EndChar

StartChar: eth
Encoding: 240 240 175
Width: 674
GlyphClass: 2
Flags: W
LayerCount: 2
Fore
SplineSet
95 47.5 m 128,-1,1
 30 120 30 120 30 225 c 0,2,3
 30 303 30 303 65 373.5 c 128,-1,4
 100 444 100 444 174 492 c 128,-1,5
 248 540 248 540 346 540 c 0,6,7
 374 540 374 540 411 533 c 1,8,9
 389 583 389 583 347.5 621 c 128,-1,10
 306 659 306 659 233 703 c 1,11,12
 262 730 262 730 306.5 749.5 c 128,-1,13
 351 769 351 769 393 769 c 0,14,15
 469 769 469 769 520 686 c 1,16,17
 582 727 582 727 616 727 c 0,18,19
 684 727 684 727 684 662 c 0,20,21
 684 629 684 629 663 588 c 1,22,23
 650 590 650 590 627 590 c 128,-1,24
 604 590 604 590 567 577 c 1,25,26
 604 455 604 455 604 311 c 0,27,28
 604 231 604 231 575.5 165 c 128,-1,29
 547 99 547 99 500 58 c 0,30,31
 405 -25 405 -25 282.5 -25 c 128,-1,0
 160 -25 160 -25 95 47.5 c 128,-1,1
225 220 m 0,32,33
 225 166 225 166 248 138.5 c 128,-1,34
 271 111 271 111 306 111 c 0,35,36
 358 111 358 111 401 163.5 c 128,-1,37
 444 216 444 216 444 304 c 0,38,39
 444 356 444 356 421.5 383 c 128,-1,40
 399 410 399 410 365 410 c 0,41,42
 313 410 313 410 269 357.5 c 128,-1,43
 225 305 225 305 225 220 c 0,32,33
EndSplineSet
EndChar

StartChar: ntilde
Encoding: 241 241 176
Width: 799
GlyphClass: 2
Flags: W
LayerCount: 2
Fore
SplineSet
99 6 m 128,-1,1
 71 37 71 37 71 88 c 128,-1,2
 71 139 71 139 91.5 254 c 128,-1,3
 112 369 112 369 134 464 c 1,4,-1
 82 544 l 1,5,6
 181 600 181 600 265 600 c 128,-1,7
 349 600 349 600 349 524 c 0,8,9
 349 474 349 474 326 422 c 1,10,-1
 336 417 l 1,11,12
 443 600 443 600 608 600 c 0,13,14
 729 600 729 600 729 479 c 0,15,16
 729 427 729 427 699.5 303 c 128,-1,17
 670 179 670 179 670 116 c 128,-1,18
 670 53 670 53 691 24 c 1,19,20
 638 -25 638 -25 579 -25 c 0,21,22
 464 -25 464 -25 464 99 c 0,23,24
 464 145 464 145 494 255 c 128,-1,25
 524 365 524 365 524 398 c 0,26,27
 524 443 524 443 490 443 c 0,28,29
 462 443 462 443 426 418.5 c 128,-1,30
 390 394 390 394 356.5 352.5 c 128,-1,31
 323 311 323 311 300 247.5 c 128,-1,32
 277 184 277 184 277 118.5 c 128,-1,33
 277 53 277 53 298 24 c 1,34,35
 245 -25 245 -25 186 -25 c 128,-1,0
 127 -25 127 -25 99 6 c 128,-1,1
627 705 m 1,36,37
 587 725 587 725 544 725 c 128,-1,38
 501 725 501 725 424.5 695.5 c 128,-1,39
 348 666 348 666 310 666 c 0,40,41
 246 666 246 666 246 729 c 0,42,43
 246 775 246 775 273 834 c 1,44,45
 313 814 313 814 356 814 c 128,-1,46
 399 814 399 814 475.5 843.5 c 128,-1,47
 552 873 552 873 590 873 c 0,48,49
 654 873 654 873 654 810 c 0,50,51
 654 764 654 764 627 705 c 1,36,37
EndSplineSet
EndChar

StartChar: ograve
Encoding: 242 242 177
Width: 715
GlyphClass: 2
Flags: W
LayerCount: 2
Fore
SplineSet
539 653 m 0,0,1
 497 653 497 653 417.5 686.5 c 128,-1,2
 338 720 338 720 292 720 c 0,3,4
 283 720 283 720 269 718 c 1,5,6
 259 752 259 752 259 791 c 0,7,8
 259 886 259 886 315 886 c 0,9,10
 352 886 352 886 399.5 852.5 c 128,-1,11
 447 819 447 819 499.5 779 c 128,-1,12
 552 739 552 739 595 729 c 1,13,14
 592 690 592 690 576.5 671.5 c 128,-1,15
 561 653 561 653 539 653 c 0,0,1
538 524 m 0,16,17
 594 524 594 524 634.5 479 c 128,-1,18
 675 434 675 434 675 348.5 c 128,-1,19
 675 263 675 263 645 190.5 c 128,-1,20
 615 118 615 118 566 72 c 128,-1,21
 517 26 517 26 455 0.5 c 128,-1,22
 393 -25 393 -25 328 -25 c 0,23,24
 197 -25 197 -25 121 47 c 128,-1,25
 45 119 45 119 45 238 c 0,26,27
 45 399 45 399 148.5 499.5 c 128,-1,28
 252 600 252 600 412 600 c 0,29,30
 448 600 448 600 484 592 c 1,31,32
 495 559 495 559 496 517 c 1,33,34
 517 524 517 524 538 524 c 0,16,17
415 385 m 0,35,36
 415 413 415 413 428.5 448 c 128,-1,37
 442 483 442 483 472 504 c 1,38,39
 340 476 340 476 290 397 c 0,40,41
 247 329 247 329 247 257 c 128,-1,42
 247 185 247 185 276.5 141.5 c 128,-1,43
 306 98 306 98 352 98 c 0,44,45
 454 98 454 98 496 231 c 1,46,47
 415 281 415 281 415 385 c 0,35,36
EndSplineSet
EndChar

StartChar: oacute
Encoding: 243 243 178
Width: 715
GlyphClass: 2
Flags: W
LayerCount: 2
Fore
SplineSet
316 653 m 0,0,1
 294 653 294 653 278.5 671.5 c 128,-1,2
 263 690 263 690 260 729 c 1,3,4
 303 739 303 739 355.5 779 c 128,-1,5
 408 819 408 819 455.5 852.5 c 128,-1,6
 503 886 503 886 540 886 c 0,7,8
 596 886 596 886 596 791 c 0,9,10
 596 752 596 752 586 718 c 1,11,12
 572 720 572 720 563 720 c 0,13,14
 517 720 517 720 437.5 686.5 c 128,-1,15
 358 653 358 653 316 653 c 0,0,1
538 524 m 0,16,17
 594 524 594 524 634.5 479 c 128,-1,18
 675 434 675 434 675 348.5 c 128,-1,19
 675 263 675 263 645 190.5 c 128,-1,20
 615 118 615 118 566 72 c 128,-1,21
 517 26 517 26 455 0.5 c 128,-1,22
 393 -25 393 -25 328 -25 c 0,23,24
 197 -25 197 -25 121 47 c 128,-1,25
 45 119 45 119 45 238 c 0,26,27
 45 399 45 399 148.5 499.5 c 128,-1,28
 252 600 252 600 412 600 c 0,29,30
 448 600 448 600 484 592 c 1,31,32
 495 559 495 559 496 517 c 1,33,34
 517 524 517 524 538 524 c 0,16,17
415 385 m 0,35,36
 415 413 415 413 428.5 448 c 128,-1,37
 442 483 442 483 472 504 c 1,38,39
 340 476 340 476 290 397 c 0,40,41
 247 329 247 329 247 257 c 128,-1,42
 247 185 247 185 276.5 141.5 c 128,-1,43
 306 98 306 98 352 98 c 0,44,45
 454 98 454 98 496 231 c 1,46,47
 415 281 415 281 415 385 c 0,35,36
EndSplineSet
EndChar

StartChar: ocircumflex
Encoding: 244 244 179
Width: 715
GlyphClass: 2
Flags: W
LayerCount: 2
Fore
SplineSet
618 831 m 1,0,-1
 608 708 l 1,1,2
 608 676 608 676 622 652 c 1,3,4
 591 644 591 644 543.5 644 c 128,-1,5
 496 644 496 644 475.5 665 c 128,-1,6
 455 686 455 686 455 726 c 0,7,8
 455 741 455 741 462 806 c 1,9,-1
 436 806 l 1,10,11
 376 732 376 732 376 656 c 1,12,13
 321 644 321 644 264 644 c 128,-1,14
 207 644 207 644 207 663 c 0,15,16
 207 705 207 705 331 843 c 1,17,18
 348 853 348 853 399 860.5 c 128,-1,19
 450 868 450 868 501 868 c 0,20,21
 618 868 618 868 618 831 c 1,0,-1
538 524 m 0,22,23
 594 524 594 524 634.5 479 c 128,-1,24
 675 434 675 434 675 348.5 c 128,-1,25
 675 263 675 263 645 190.5 c 128,-1,26
 615 118 615 118 566 72 c 128,-1,27
 517 26 517 26 455 0.5 c 128,-1,28
 393 -25 393 -25 328 -25 c 0,29,30
 197 -25 197 -25 121 47 c 128,-1,31
 45 119 45 119 45 238 c 0,32,33
 45 399 45 399 148.5 499.5 c 128,-1,34
 252 600 252 600 412 600 c 0,35,36
 448 600 448 600 484 592 c 1,37,38
 495 559 495 559 496 517 c 1,39,40
 517 524 517 524 538 524 c 0,22,23
415 385 m 0,41,42
 415 413 415 413 428.5 448 c 128,-1,43
 442 483 442 483 472 504 c 1,44,45
 340 476 340 476 290 397 c 0,46,47
 247 329 247 329 247 257 c 128,-1,48
 247 185 247 185 276.5 141.5 c 128,-1,49
 306 98 306 98 352 98 c 0,50,51
 454 98 454 98 496 231 c 1,52,53
 415 281 415 281 415 385 c 0,41,42
EndSplineSet
EndChar

StartChar: otilde
Encoding: 245 245 180
Width: 715
GlyphClass: 2
Flags: W
LayerCount: 2
Fore
SplineSet
615 705 m 1,0,1
 575 725 575 725 532 725 c 128,-1,2
 489 725 489 725 412.5 695.5 c 128,-1,3
 336 666 336 666 298 666 c 0,4,5
 234 666 234 666 234 729 c 0,6,7
 234 775 234 775 261 834 c 1,8,9
 301 814 301 814 344 814 c 128,-1,10
 387 814 387 814 463.5 843.5 c 128,-1,11
 540 873 540 873 578 873 c 0,12,13
 642 873 642 873 642 810 c 0,14,15
 642 764 642 764 615 705 c 1,0,1
538 524 m 0,16,17
 594 524 594 524 634.5 479 c 128,-1,18
 675 434 675 434 675 348.5 c 128,-1,19
 675 263 675 263 645 190.5 c 128,-1,20
 615 118 615 118 566 72 c 128,-1,21
 517 26 517 26 455 0.5 c 128,-1,22
 393 -25 393 -25 328 -25 c 0,23,24
 197 -25 197 -25 121 47 c 128,-1,25
 45 119 45 119 45 238 c 0,26,27
 45 399 45 399 148.5 499.5 c 128,-1,28
 252 600 252 600 412 600 c 0,29,30
 448 600 448 600 484 592 c 1,31,32
 495 559 495 559 496 517 c 1,33,34
 517 524 517 524 538 524 c 0,16,17
415 385 m 0,35,36
 415 413 415 413 428.5 448 c 128,-1,37
 442 483 442 483 472 504 c 1,38,39
 340 476 340 476 290 397 c 0,40,41
 247 329 247 329 247 257 c 128,-1,42
 247 185 247 185 276.5 141.5 c 128,-1,43
 306 98 306 98 352 98 c 0,44,45
 454 98 454 98 496 231 c 1,46,47
 415 281 415 281 415 385 c 0,35,36
EndSplineSet
EndChar

StartChar: odieresis
Encoding: 246 246 181
Width: 715
GlyphClass: 2
Flags: W
LayerCount: 2
Fore
SplineSet
650 696 m 128,-1,1
 613 666 613 666 567 666 c 128,-1,2
 521 666 521 666 494.5 686 c 128,-1,3
 468 706 468 706 468 741 c 0,4,5
 468 792 468 792 507.5 820.5 c 128,-1,6
 547 849 547 849 590.5 849 c 128,-1,7
 634 849 634 849 660.5 828.5 c 128,-1,8
 687 808 687 808 687 767 c 128,-1,0
 687 726 687 726 650 696 c 128,-1,1
349 696 m 128,-1,10
 312 666 312 666 266 666 c 128,-1,11
 220 666 220 666 193.5 686 c 128,-1,12
 167 706 167 706 167 741 c 0,13,14
 167 792 167 792 206.5 820.5 c 128,-1,15
 246 849 246 849 289.5 849 c 128,-1,16
 333 849 333 849 359.5 828.5 c 128,-1,17
 386 808 386 808 386 767 c 128,-1,9
 386 726 386 726 349 696 c 128,-1,10
538 524 m 0,18,19
 594 524 594 524 634.5 479 c 128,-1,20
 675 434 675 434 675 348.5 c 128,-1,21
 675 263 675 263 645 190.5 c 128,-1,22
 615 118 615 118 566 72 c 128,-1,23
 517 26 517 26 455 0.5 c 128,-1,24
 393 -25 393 -25 328 -25 c 0,25,26
 197 -25 197 -25 121 47 c 128,-1,27
 45 119 45 119 45 238 c 0,28,29
 45 399 45 399 148.5 499.5 c 128,-1,30
 252 600 252 600 412 600 c 0,31,32
 448 600 448 600 484 592 c 1,33,34
 495 559 495 559 496 517 c 1,35,36
 517 524 517 524 538 524 c 0,18,19
415 385 m 0,37,38
 415 413 415 413 428.5 448 c 128,-1,39
 442 483 442 483 472 504 c 1,40,41
 340 476 340 476 290 397 c 0,42,43
 247 329 247 329 247 257 c 128,-1,44
 247 185 247 185 276.5 141.5 c 128,-1,45
 306 98 306 98 352 98 c 0,46,47
 454 98 454 98 496 231 c 1,48,49
 415 281 415 281 415 385 c 0,37,38
EndSplineSet
EndChar

StartChar: divide
Encoding: 247 247 182
Width: 733
GlyphClass: 2
Flags: W
LayerCount: 2
Fore
SplineSet
264.5 35.5 m 128,-1,1
 240 60 240 60 240 98 c 128,-1,2
 240 136 240 136 269.5 166.5 c 128,-1,3
 299 197 299 197 338.5 197 c 128,-1,4
 378 197 378 197 402 172.5 c 128,-1,5
 426 148 426 148 426 110 c 128,-1,6
 426 72 426 72 396.5 41.5 c 128,-1,7
 367 11 367 11 328 11 c 128,-1,0
 289 11 289 11 264.5 35.5 c 128,-1,1
311.5 531.5 m 128,-1,9
 287 556 287 556 287 594 c 128,-1,10
 287 632 287 632 316.5 662.5 c 128,-1,11
 346 693 346 693 385 693 c 128,-1,12
 424 693 424 693 448.5 668.5 c 128,-1,13
 473 644 473 644 473 606 c 128,-1,14
 473 568 473 568 443.5 537.5 c 128,-1,15
 414 507 414 507 375 507 c 128,-1,8
 336 507 336 507 311.5 531.5 c 128,-1,9
259 440 m 1,16,-1
 554 446 l 1,17,18
 633 446 633 446 633 370 c 0,19,20
 633 326 633 326 615 291 c 1,21,22
 576 307 576 307 508.5 307 c 128,-1,23
 441 307 441 307 320 295 c 128,-1,24
 199 283 199 283 139 283 c 0,25,26
 100 283 100 283 100 347 c 128,-1,27
 100 411 100 411 131 457 c 1,28,29
 185 440 185 440 259 440 c 1,16,-1
EndSplineSet
EndChar

StartChar: oslash
Encoding: 248 248 183
Width: 715
GlyphClass: 2
Flags: W
LayerCount: 2
Fore
SplineSet
359 -23 m 1,0,-1
 358 -29 l 1,1,2
 331 -127 331 -127 258 -127 c 0,3,4
 215 -127 215 -127 177 -98 c 1,5,6
 204 -73 204 -73 226 -11 c 1,7,8
 140 14 140 14 92.5 79.5 c 128,-1,9
 45 145 45 145 45 238 c 0,10,11
 45 391 45 391 139.5 490 c 128,-1,12
 234 589 234 589 383 599 c 1,13,-1
 395 645 l 2,14,15
 409 702 409 702 466 702 c 128,-1,16
 523 702 523 702 570 660 c 1,17,18
 539 613 539 613 507 520 c 1,19,20
 527 524 527 524 538 524 c 0,21,22
 594 524 594 524 634.5 479 c 128,-1,23
 675 434 675 434 675 349 c 0,24,25
 675 189 675 189 582 89 c 128,-1,26
 489 -11 489 -11 359 -23 c 1,0,-1
521 343 m 128,-1,28
 521 418 521 418 488 455 c 1,29,30
 417 201 417 201 395 108 c 1,31,32
 453 132 453 132 487 200 c 128,-1,27
 521 268 521 268 521 343 c 128,-1,28
267.5 376.5 m 128,-1,34
 236 311 236 311 236 239 c 128,-1,35
 236 167 236 167 269 130 c 1,36,37
 295 228 295 228 353 470 c 1,38,33
 299 442 299 442 267.5 376.5 c 128,-1,34
EndSplineSet
EndChar

StartChar: ugrave
Encoding: 249 249 184
Width: 764
GlyphClass: 2
Flags: W
LayerCount: 2
Fore
SplineSet
223 -25 m 0,0,1
 135 -25 135 -25 100 18 c 128,-1,2
 65 61 65 61 65 126.5 c 128,-1,3
 65 192 65 192 87 306 c 128,-1,4
 109 420 109 420 109 471 c 128,-1,5
 109 522 109 522 88 551 c 1,6,7
 181 600 181 600 245 600 c 0,8,9
 286 600 286 600 304.5 583.5 c 128,-1,10
 323 567 323 567 323 530 c 128,-1,11
 323 493 323 493 292.5 348.5 c 128,-1,12
 262 204 262 204 262 170 c 128,-1,13
 262 136 262 136 281 116.5 c 128,-1,14
 300 97 300 97 331 97 c 128,-1,15
 362 97 362 97 397 121.5 c 128,-1,16
 432 146 432 146 454 191 c 1,17,18
 468 272 468 272 509 447 c 1,19,-1
 449 527 l 1,20,21
 550 600 550 600 641 600 c 0,22,23
 686 600 686 600 705.5 583.5 c 128,-1,24
 725 567 725 567 725 533.5 c 128,-1,25
 725 500 725 500 688.5 342 c 128,-1,26
 652 184 652 184 652 117.5 c 128,-1,27
 652 51 652 51 683 24 c 1,28,29
 627 -25 627 -25 565.5 -25 c 128,-1,30
 504 -25 504 -25 477 2 c 128,-1,31
 450 29 450 29 450 73 c 1,32,-1
 440 78 l 1,33,34
 407 30 407 30 348.5 2.5 c 128,-1,35
 290 -25 290 -25 223 -25 c 0,0,1
553 653 m 0,36,37
 511 653 511 653 431.5 686.5 c 128,-1,38
 352 720 352 720 306 720 c 0,39,40
 297 720 297 720 283 718 c 1,41,42
 273 752 273 752 273 791 c 0,43,44
 273 886 273 886 329 886 c 0,45,46
 366 886 366 886 413.5 852.5 c 128,-1,47
 461 819 461 819 513.5 779 c 128,-1,48
 566 739 566 739 609 729 c 1,49,50
 606 690 606 690 590.5 671.5 c 128,-1,51
 575 653 575 653 553 653 c 0,36,37
EndSplineSet
EndChar

